%TF.GenerationSoftware,Altium Limited,Altium Designer,23.3.1 (30)*%
G04 Layer_Physical_Order=2*
G04 Layer_Color=16711680*
%FSLAX26Y26*%
%MOIN*%
%TF.SameCoordinates,8F501EFE-F143-482A-9327-88418F9FCBED*%
%TF.FilePolarity,Positive*%
%TF.FileFunction,Copper,L2,Bot,Signal*%
%TF.Part,Single*%
G01*
G75*
%TA.AperFunction,Conductor*%
%ADD10C,0.035000*%
%ADD11C,0.025000*%
%ADD12C,0.020000*%
%TA.AperFunction,ComponentPad*%
%ADD13O,0.075000X0.090000*%
%ADD14R,0.075000X0.090000*%
%ADD15C,0.070000*%
%ADD16C,0.065000*%
%ADD17R,0.044488X0.044488*%
%ADD18C,0.044488*%
%ADD19O,0.065000X0.100000*%
%ADD20R,0.065000X0.100000*%
%ADD21C,0.075000*%
%ADD22O,0.075000X0.065000*%
%ADD23C,0.061024*%
%ADD24R,0.061024X0.061024*%
%ADD25R,0.047244X0.047244*%
%ADD26C,0.047244*%
%ADD27O,0.085000X0.065000*%
%ADD28R,0.085000X0.065000*%
%ADD29R,0.078740X0.062992*%
%ADD30O,0.078740X0.062992*%
%TA.AperFunction,ViaPad*%
%ADD31C,0.098425*%
%ADD32C,0.050000*%
D10*
X1170000Y200000D02*
Y280000D01*
X1240000Y350000D01*
X880000Y1690000D02*
X1035000Y1535000D01*
X880000Y1690000D02*
Y1761500D01*
X955000Y2340000D02*
X1035000Y2420000D01*
X955000Y2070000D02*
Y2340000D01*
X1035000Y1995000D02*
X1170000D01*
X400000Y2410000D02*
X455000D01*
X235000D02*
X400000D01*
X880750Y1110750D02*
X951500Y1181500D01*
X880000Y2620000D02*
X1033003Y2466997D01*
Y2421997D02*
Y2466997D01*
X455000Y2410000D02*
X500000Y2365000D01*
Y2265433D02*
Y2365000D01*
X444567Y2210000D02*
X500000Y2265433D01*
X400000Y2210000D02*
X444567D01*
X2935000Y2765000D02*
X3120000D01*
X3300000Y2385000D02*
Y2585000D01*
X3120000Y2765000D02*
X3300000Y2585000D01*
X2375000Y1200000D02*
Y1370000D01*
Y1200000D02*
X2425000Y1150000D01*
X1611299Y2445000D02*
Y2556299D01*
X1720000Y2665000D02*
X2020000D01*
X1611299Y2556299D02*
X1720000Y2665000D01*
X2020000D02*
X2155000Y2530000D01*
Y2160000D02*
Y2530000D01*
Y2160000D02*
X2190000Y2125000D01*
X1611299Y1561500D02*
X1650000Y1600201D01*
Y1830000D01*
X2425000Y1150000D02*
X2541299D01*
X2670000D01*
X1870000Y2155000D02*
Y2235000D01*
X1910000Y2115000D02*
X2110000D01*
X1870000Y2155000D02*
X1910000Y2115000D01*
X955000Y2070000D02*
X1030000Y1995000D01*
X881694Y1996694D02*
X955000Y2070000D01*
X2190000Y2125000D02*
X2270000D01*
X450000Y2010000D02*
X698500Y1761500D01*
X880000D01*
X2805000Y2670000D02*
Y2735000D01*
X2895000Y2825000D02*
X3160000D01*
X2805000Y2735000D02*
X2895000Y2825000D01*
X2910000Y2740000D02*
X2935000Y2765000D01*
X2910000Y2670000D02*
Y2740000D01*
X3160000Y2825000D02*
X3410000Y2575000D01*
X2380000Y2605000D02*
X2445000Y2670000D01*
X2805000D01*
X1650000Y688701D02*
Y955000D01*
X1611299Y650000D02*
X1650000Y688701D01*
X1480000Y1125000D02*
X1650000Y955000D01*
X1485000Y1995000D02*
X1650000Y1830000D01*
X400000Y2010000D02*
X450000D01*
X485000Y2055000D02*
Y2169567D01*
X445962Y2015962D02*
X485000Y2055000D01*
X444567Y2210000D02*
X485000Y2169567D01*
X235000Y2210000D02*
X400000D01*
X235000Y2010000D02*
X400000D01*
X2380000Y2425000D02*
Y2605000D01*
Y2425000D02*
X2420000Y2385000D01*
X2525000D01*
X3300000Y2185000D02*
X3360000D01*
X3410000Y2235000D01*
Y2575000D01*
X2143701Y645000D02*
X2223701Y725000D01*
X2918575Y320000D02*
X3083575Y485000D01*
X2815000Y320000D02*
X2918575D01*
X2735000Y240000D02*
X2815000Y320000D01*
X2638284Y143284D02*
X2735000Y240000D01*
X3083575Y485000D02*
X3200000D01*
X495000Y1380000D02*
Y1585000D01*
X2330000Y1950000D02*
X2385000Y1895000D01*
X495000Y1585000D02*
Y1795000D01*
X1855000Y1000000D02*
X2005000Y850000D01*
X2228701D01*
X1735000Y1000000D02*
X1855000D01*
X880000Y830000D02*
Y1110000D01*
X2071716Y143284D02*
X2638284D01*
X1975000Y240000D02*
X2071716Y143284D01*
X1975000Y240000D02*
Y545000D01*
X2075000Y645000D01*
X2143701D01*
X2226201Y727500D02*
Y847500D01*
X885962Y784038D02*
Y824038D01*
Y784038D02*
X1040000Y630000D01*
X885000Y200000D02*
X960000Y275000D01*
Y550000D01*
Y275000D02*
X1035000Y200000D01*
X960000Y550000D02*
X1040000Y630000D01*
X1035000Y200000D02*
X1170000D01*
X1240000Y350000D02*
X1298701D01*
X2275000Y2130000D02*
X2454055Y1950945D01*
X2535354D01*
X957897Y1181500D02*
Y1457897D01*
X1035000Y1535000D01*
X965000Y1181500D02*
X1035000Y1111500D01*
X880000Y1761500D02*
Y1995000D01*
X1035000Y1111500D02*
X1170000D01*
Y1200000D01*
X1231500Y1261500D01*
X2120000Y1650000D02*
X2223701D01*
X2110000Y2115000D02*
X2155000Y2160000D01*
X880000Y2725000D02*
X950000Y2795000D01*
X880000Y2620000D02*
Y2725000D01*
X950000Y2795000D02*
X1735000D01*
X1231500Y1261500D02*
X1298701D01*
X1170000Y1995000D02*
Y2080000D01*
X1235000Y2145000D01*
X1298701D01*
D11*
X2885000Y1150000D02*
X2990000Y1255000D01*
Y1343620D01*
X2824645Y2285000D02*
X3200000D01*
X2810000Y2220000D02*
Y2270355D01*
X2824645Y2285000D01*
X1415000Y2735000D02*
X1480000Y2670000D01*
X1035000D02*
X1100000Y2735000D01*
X1415000D01*
X1030000Y1995000D02*
X1035000D01*
X1033003Y2421997D02*
X1035000Y2420000D01*
X1735000Y2095000D02*
Y2185000D01*
X1675000Y2245000D02*
X1735000Y2185000D01*
X1395000Y950000D02*
X1475000Y870000D01*
X1100000Y950000D02*
X1395000D01*
X1040000Y890000D02*
X1100000Y950000D01*
X2075000Y465000D02*
X2125000Y515000D01*
X2225000D01*
X2075000Y395000D02*
Y465000D01*
X2020000Y2199606D02*
X2075000Y2254606D01*
Y2495000D01*
X1735000Y2345000D02*
X1970000D01*
X1735000Y2545000D02*
X1970000D01*
X2025000D01*
X2075000Y2495000D01*
X880000Y2245000D02*
Y2420000D01*
X140000Y1845000D02*
Y2065000D01*
Y1845000D02*
X188306Y1796694D01*
X243306D01*
X191312Y2102346D02*
X227346D01*
X176390Y2101390D02*
X190355D01*
X140000Y2065000D02*
X176390Y2101390D01*
X227346Y2102346D02*
X235000Y2110000D01*
X190355Y2101390D02*
X191312Y2102346D01*
X243306Y1796694D02*
X245000Y1795000D01*
X80000Y1665000D02*
X160000Y1585000D01*
X80000Y1665000D02*
Y2235000D01*
X147500Y2302500D01*
X227500D01*
X160000Y1585000D02*
X245000D01*
X2385000Y1585000D02*
Y1895000D01*
Y1585000D02*
X2425000Y1545000D01*
X2440000Y1430000D02*
X2510000D01*
X2335000Y1535000D02*
Y1685000D01*
Y1535000D02*
X2440000Y1430000D01*
X2510000Y1545000D02*
X2950000D01*
X2425000D02*
X2510000D01*
X790000Y155000D02*
X835000Y110000D01*
X1735000D01*
X1850000Y225000D01*
X790000Y155000D02*
Y395000D01*
X838306Y443306D01*
X873306D02*
X880000Y450000D01*
X838306Y443306D02*
X873306D01*
X880000Y450000D02*
Y630000D01*
X1335000Y550000D02*
X1361299Y523701D01*
Y225000D02*
Y523701D01*
X2223701Y725000D02*
X2226201Y727500D01*
X957897Y1181500D02*
X965000D01*
X951500D02*
X957897D01*
X2615000Y2035000D02*
X2795000Y1855000D01*
X2760000Y1650000D02*
X2795000Y1685000D01*
Y1855000D01*
X2536299Y1650000D02*
X2760000D01*
X2755000Y2080000D02*
X3030000D01*
X3135000Y2185000D02*
X3200000D01*
X3030000Y2080000D02*
X3135000Y2185000D01*
X2710000Y2125000D02*
Y2205000D01*
Y2125000D02*
X2755000Y2080000D01*
X2870000Y1995000D02*
X2920000Y1945000D01*
X2600000Y2115000D02*
X2720000Y1995000D01*
X2870000D01*
X2920000Y1850000D02*
Y1945000D01*
X2600000Y2115000D02*
Y2470000D01*
X2500000Y2035000D02*
X2615000D01*
X2563610Y2506390D02*
X2600000Y2470000D01*
X3205000Y190000D02*
X3400000Y385000D01*
X3370000Y1885000D02*
X3400000Y1855000D01*
Y385000D02*
Y1855000D01*
X3300000Y1885000D02*
X3370000D01*
X2870000Y190000D02*
X3205000D01*
X2735000Y440000D02*
X2870000D01*
X880000Y200000D02*
X885000D01*
X486390Y1371390D02*
X495000Y1380000D01*
X880000Y1361500D02*
Y1561500D01*
Y1360000D02*
Y1361500D01*
X2270000Y1750000D02*
X2335000Y1685000D01*
X2223701Y1750000D02*
X2270000D01*
X2223701Y1950000D02*
X2330000D01*
X235000Y2510000D02*
X375000D01*
X227500Y2302500D02*
X235000Y2310000D01*
Y2110000D02*
X375000D01*
X2805000Y1150000D02*
X2885000D01*
X2285000Y2250000D02*
X2500000Y2035000D01*
X2275000Y2250000D02*
X2285000D01*
X2525000Y2515000D02*
X2533610Y2506390D01*
X2563610D01*
X2275000Y2385000D02*
Y2515000D01*
Y2250000D02*
Y2385000D01*
X2536299Y1850000D02*
X2670000D01*
X2525000Y2130000D02*
Y2250000D01*
X2365000Y245000D02*
Y320000D01*
X2485000Y440000D01*
X2817177Y900000D02*
X2831371Y885806D01*
X2839194D02*
X2895000Y830000D01*
Y650000D02*
Y830000D01*
X2805000Y900000D02*
X2817177D01*
X2831371Y885806D02*
X2839194D01*
X2840000Y595000D02*
X2895000Y650000D01*
X2723701Y595000D02*
X2840000D01*
X2473701D02*
Y725000D01*
X2670000Y785000D02*
Y900000D01*
X2730000Y725000D02*
X2820000D01*
X2670000Y785000D02*
X2730000Y725000D01*
X2473701D02*
X2570000D01*
X2226201Y847500D02*
X2228701Y850000D01*
X2365000Y770000D02*
Y905000D01*
X2410000Y725000D02*
X2470000D01*
X2365000Y770000D02*
X2410000Y725000D01*
X2320000Y950000D02*
X2365000Y905000D01*
X2228701Y950000D02*
X2320000D01*
X2561390Y733610D02*
X2570000Y725000D01*
X880000Y830000D02*
X885962Y824038D01*
X2124606Y1050000D02*
X2228701D01*
X2075000Y1099606D02*
X2124606Y1050000D01*
X1880000Y750000D02*
X2075000D01*
X1735000Y550000D02*
X1880000D01*
X1735000Y750000D02*
X1880000D01*
X1298701Y650000D02*
X1380000D01*
X1430000Y600000D01*
X1735000Y300000D02*
Y405000D01*
X1690000Y450000D02*
X1735000Y405000D01*
X1611299Y450000D02*
X1690000D01*
X1540000D02*
X1611299D01*
Y550000D02*
X1735000D01*
X1475000Y830000D02*
Y870000D01*
X1040000Y880000D02*
Y890000D01*
X1375000Y775000D02*
Y830000D01*
Y775000D02*
X1505000Y645000D01*
Y485000D02*
Y645000D01*
Y485000D02*
X1540000Y450000D01*
X1430000Y415000D02*
Y600000D01*
Y415000D02*
X1495000Y350000D01*
X1298701Y550000D02*
X1335000D01*
X1611299Y225000D02*
Y350000D01*
X1495000D02*
X1611299D01*
Y1125000D02*
Y1261500D01*
X1170000Y450000D02*
Y650000D01*
Y450000D02*
X1298701D01*
X2525000Y2130000D02*
X2527500Y2132500D01*
X2270000Y2125000D02*
X2275000Y2130000D01*
X2535354Y1950945D02*
X2536299Y1950000D01*
X2689803Y1750000D02*
X2690000Y1749803D01*
X2536299Y1750000D02*
X2689803D01*
X2020000Y1375000D02*
X2055000Y1340000D01*
X2120000D01*
X2020000Y1375000D02*
Y1530000D01*
X1985000Y1565000D02*
X2020000Y1530000D01*
X1835000Y1565000D02*
X1985000D01*
X1735000Y1665000D02*
X1835000Y1565000D01*
X1683500Y1361500D02*
X1735000Y1310000D01*
Y1211500D02*
Y1310000D01*
X1611299Y1361500D02*
X1683500D01*
X1563500D02*
X1611299D01*
Y1461500D02*
X1735000D01*
X1043610Y1793610D02*
Y1818610D01*
X1090000Y1865000D02*
X1430000D01*
X1043610Y1818610D02*
X1090000Y1865000D01*
X1035000Y1785000D02*
X1043610Y1793610D01*
X1475000Y1750000D02*
Y1820000D01*
X1430000Y1865000D02*
X1475000Y1820000D01*
X1361299Y1995000D02*
Y2308701D01*
X1298701Y2345000D02*
X1302493Y2341207D01*
X1328793D01*
X1361299Y2308701D01*
X1498500Y1261500D02*
X1611299D01*
X1440000Y1320000D02*
X1498500Y1261500D01*
X1440000Y1320000D02*
Y1485000D01*
X1363500Y1561500D02*
X1440000Y1485000D01*
X1455000Y2210000D02*
X1520000Y2145000D01*
X1455000Y2210000D02*
Y2355000D01*
X1365000Y2445000D02*
X1455000Y2355000D01*
X1298701Y2445000D02*
X1365000D01*
X1380000Y2565000D02*
X1525000Y2420000D01*
Y2295000D02*
Y2420000D01*
X1380000Y2565000D02*
Y2630000D01*
X1611299Y2245000D02*
X1675000D01*
X1525000Y2295000D02*
X1575000Y2245000D01*
X1611299D01*
X1298701Y1561500D02*
X1363500D01*
X1516375Y1408625D02*
Y1533625D01*
X1375000Y1675000D02*
X1516375Y1533625D01*
X1375000Y1675000D02*
Y1750000D01*
X1516375Y1408625D02*
X1563500Y1361500D01*
X1298701Y1461500D02*
X1303386Y1456814D01*
X1323186D01*
X1361299Y1125000D02*
Y1418701D01*
X1323186Y1456814D02*
X1361299Y1418701D01*
X2120000Y1750000D02*
X2223701D01*
X2260000Y1430000D02*
Y1545000D01*
X1870000Y1750000D02*
Y1985000D01*
X2020000Y1850000D02*
X2020394Y1849606D01*
X1480000Y2630000D02*
Y2670000D01*
X1611299Y2345000D02*
X1735000D01*
X1170000Y1361500D02*
Y1561500D01*
Y1361500D02*
X1298701D01*
X1520000Y2145000D02*
X1611299D01*
Y1995000D02*
Y2145000D01*
X1170000Y2245000D02*
Y2450000D01*
Y2245000D02*
X1298701D01*
X600000Y2010000D02*
Y2075000D01*
X625000Y2100000D02*
Y2110000D01*
X600000Y2075000D02*
X625000Y2100000D01*
X600000Y2210000D02*
Y2275000D01*
X625000Y2300000D02*
Y2310000D01*
X600000Y2275000D02*
X625000Y2300000D01*
X600000Y2475000D02*
X625000Y2500000D01*
X600000Y2410000D02*
Y2475000D01*
X625000Y2500000D02*
Y2510000D01*
X235000Y2310000D02*
X375000D01*
D12*
X2020000Y1850000D02*
X2223701D01*
D13*
X3010000Y2670000D02*
D03*
X2910000D02*
D03*
X2810000Y2205000D02*
D03*
X2910000D02*
D03*
X3010000D02*
D03*
D14*
X2805000Y2670000D02*
D03*
X2710000Y2205000D02*
D03*
D15*
X2120000Y1340000D02*
D03*
Y1540000D02*
D03*
X880000Y1561500D02*
D03*
Y1761500D02*
D03*
X1170000Y650000D02*
D03*
Y850000D02*
D03*
X880000Y630000D02*
D03*
Y830000D02*
D03*
X1970000Y2545000D02*
D03*
Y2345000D02*
D03*
X1170000Y2450000D02*
D03*
Y2650000D02*
D03*
X880000Y2420000D02*
D03*
Y2620000D02*
D03*
X1170000Y1761500D02*
D03*
Y1561500D02*
D03*
X600000Y2010000D02*
D03*
X400000D02*
D03*
X600000Y2210000D02*
D03*
X400000D02*
D03*
X600000Y2410000D02*
D03*
X400000D02*
D03*
X1880000Y550000D02*
D03*
Y750000D02*
D03*
D16*
X1735000Y1915000D02*
D03*
Y1665000D02*
D03*
X880000Y1111500D02*
D03*
Y1361500D02*
D03*
X1035000Y1535000D02*
D03*
Y1785000D02*
D03*
Y200000D02*
D03*
Y450000D02*
D03*
X880000Y200000D02*
D03*
Y450000D02*
D03*
X1040000Y630000D02*
D03*
Y880000D02*
D03*
X1735000Y1000000D02*
D03*
Y750000D02*
D03*
Y550000D02*
D03*
Y300000D02*
D03*
X2723701Y595000D02*
D03*
X2473701D02*
D03*
X2223701Y725000D02*
D03*
X2473701D02*
D03*
X2075000Y645000D02*
D03*
Y395000D02*
D03*
X2365000Y245000D02*
D03*
X2115000D02*
D03*
X2870000Y440000D02*
D03*
Y190000D02*
D03*
X2670000Y1150000D02*
D03*
Y900000D02*
D03*
X2805000Y1150000D02*
D03*
Y900000D02*
D03*
X2525000Y2515000D02*
D03*
X2275000D02*
D03*
X2525000Y2385000D02*
D03*
X2275000D02*
D03*
Y2250000D02*
D03*
X2525000D02*
D03*
X2275000Y2130000D02*
D03*
X2525000D02*
D03*
X1870000Y2235000D02*
D03*
Y1985000D02*
D03*
X1735000Y2345000D02*
D03*
Y2095000D02*
D03*
X880000Y1995000D02*
D03*
Y2245000D02*
D03*
X1735000Y2795000D02*
D03*
Y2545000D02*
D03*
X2920000Y1850000D02*
D03*
X2670000D02*
D03*
X495000Y1380000D02*
D03*
X245000D02*
D03*
X1170000Y450000D02*
D03*
Y200000D02*
D03*
X2510000Y1430000D02*
D03*
X2260000D02*
D03*
X1035000Y1361500D02*
D03*
Y1111500D02*
D03*
X1361299Y1125000D02*
D03*
X1611299D02*
D03*
X2260000Y1545000D02*
D03*
X2510000D02*
D03*
X1870000Y1650000D02*
D03*
X2120000D02*
D03*
X1870000Y1750000D02*
D03*
X2120000D02*
D03*
X1170000Y1361500D02*
D03*
Y1111500D02*
D03*
X1035000Y2670000D02*
D03*
Y2420000D02*
D03*
X1361299Y1995000D02*
D03*
X1611299D02*
D03*
X1035000Y2245000D02*
D03*
Y1995000D02*
D03*
X1170000Y2245000D02*
D03*
Y1995000D02*
D03*
X375000Y2110000D02*
D03*
X625000D02*
D03*
X375000Y2310000D02*
D03*
X625000D02*
D03*
X375000Y2510000D02*
D03*
X625000D02*
D03*
X1735000Y1211500D02*
D03*
Y1461500D02*
D03*
X495000Y1585000D02*
D03*
X245000D02*
D03*
X1361299Y225000D02*
D03*
X1611299D02*
D03*
X495000Y1795000D02*
D03*
X245000D02*
D03*
X2820000Y725000D02*
D03*
X2570000D02*
D03*
D17*
X2228701Y1150000D02*
D03*
X2223701Y1950000D02*
D03*
X1298701Y650000D02*
D03*
Y1561500D02*
D03*
Y2445000D02*
D03*
D18*
X2228701Y1050000D02*
D03*
Y950000D02*
D03*
Y850000D02*
D03*
X2541299D02*
D03*
Y950000D02*
D03*
Y1050000D02*
D03*
Y1150000D02*
D03*
X2223701Y1850000D02*
D03*
Y1750000D02*
D03*
Y1650000D02*
D03*
X2536299D02*
D03*
Y1750000D02*
D03*
Y1850000D02*
D03*
Y1950000D02*
D03*
X1611299Y650000D02*
D03*
Y550000D02*
D03*
Y450000D02*
D03*
Y350000D02*
D03*
X1298701D02*
D03*
Y450000D02*
D03*
Y550000D02*
D03*
X1611299Y1561500D02*
D03*
Y1461500D02*
D03*
Y1361500D02*
D03*
Y1261500D02*
D03*
X1298701D02*
D03*
Y1361500D02*
D03*
Y1461500D02*
D03*
X1611299Y2445000D02*
D03*
Y2345000D02*
D03*
Y2245000D02*
D03*
Y2145000D02*
D03*
X1298701D02*
D03*
Y2245000D02*
D03*
Y2345000D02*
D03*
D19*
X2225000Y515000D02*
D03*
D20*
X2335000D02*
D03*
D21*
X2485000Y440000D02*
D03*
X2735000Y240000D02*
D03*
Y440000D02*
D03*
X2485000Y240000D02*
D03*
D22*
X2990000Y1346000D02*
D03*
Y1444000D02*
D03*
Y1545000D02*
D03*
D23*
X2690000Y1400197D02*
D03*
X2020000Y2199606D02*
D03*
X2075000Y750000D02*
D03*
D24*
X2690000Y1749803D02*
D03*
X2020000Y1850000D02*
D03*
X2075000Y1099606D02*
D03*
D25*
X1380000Y2630000D02*
D03*
X1375000Y830000D02*
D03*
Y1750000D02*
D03*
D26*
X1480000Y2630000D02*
D03*
X1580000D02*
D03*
X1575000Y830000D02*
D03*
X1475000D02*
D03*
X1575000Y1750000D02*
D03*
X1475000D02*
D03*
D27*
X235000Y2110000D02*
D03*
Y2410000D02*
D03*
Y2310000D02*
D03*
Y2210000D02*
D03*
Y2010000D02*
D03*
D28*
Y2510000D02*
D03*
D29*
X3200000Y2385000D02*
D03*
D30*
X3300000D02*
D03*
X3200000Y2285000D02*
D03*
X3300000D02*
D03*
X3200000Y2185000D02*
D03*
X3300000D02*
D03*
X3200000Y2085000D02*
D03*
X3300000D02*
D03*
X3200000Y1985000D02*
D03*
X3300000D02*
D03*
X3200000Y1885000D02*
D03*
X3300000D02*
D03*
X3200000Y1785000D02*
D03*
X3300000D02*
D03*
X3200000Y1685000D02*
D03*
X3300000D02*
D03*
X3200000Y1585000D02*
D03*
X3300000D02*
D03*
X3200000Y1485000D02*
D03*
X3300000D02*
D03*
X3200000Y1385000D02*
D03*
X3300000D02*
D03*
X3200000Y1285000D02*
D03*
X3300000D02*
D03*
X3200000Y1185000D02*
D03*
X3300000D02*
D03*
X3200000Y1085000D02*
D03*
X3300000D02*
D03*
X3200000Y985000D02*
D03*
X3300000D02*
D03*
X3200000Y885000D02*
D03*
X3300000D02*
D03*
X3200000Y785000D02*
D03*
X3300000D02*
D03*
X3200000Y685000D02*
D03*
X3300000D02*
D03*
X3200000Y585000D02*
D03*
X3300000D02*
D03*
X3200000Y485000D02*
D03*
X3300000D02*
D03*
D31*
X118110Y118110D02*
D03*
Y2834646D02*
D03*
X3425197D02*
D03*
Y118110D02*
D03*
D32*
X2375000Y1370000D02*
D03*
X1480000Y1125000D02*
D03*
X1485000Y1995000D02*
D03*
X1850000Y225000D02*
D03*
%TF.MD5,8b0d03571fecb12a9f6852e52d813135*%
M02*
