%TF.GenerationSoftware,Altium Limited,Altium Designer,23.3.1 (30)*%
G04 Layer_Physical_Order=1*
G04 Layer_Color=255*
%FSLAX26Y26*%
%MOIN*%
%TF.SameCoordinates,8F501EFE-F143-482A-9327-88418F9FCBED*%
%TF.FilePolarity,Positive*%
%TF.FileFunction,Copper,L1,Top,Signal*%
%TF.Part,Single*%
G01*
G75*
%TA.AperFunction,Conductor*%
%ADD10C,0.035000*%
%ADD11C,0.025000*%
%ADD12C,0.020000*%
%TA.AperFunction,ComponentPad*%
%ADD13O,0.075000X0.090000*%
%ADD14R,0.075000X0.090000*%
%ADD15C,0.070000*%
%ADD16C,0.065000*%
%ADD17R,0.044488X0.044488*%
%ADD18C,0.044488*%
%ADD19O,0.065000X0.100000*%
%ADD20R,0.065000X0.100000*%
%ADD21C,0.075000*%
%ADD22O,0.075000X0.065000*%
%ADD23C,0.061024*%
%ADD24R,0.061024X0.061024*%
%ADD25R,0.047244X0.047244*%
%ADD26C,0.047244*%
%ADD27O,0.085000X0.065000*%
%ADD28R,0.085000X0.065000*%
%ADD29R,0.078740X0.062992*%
%ADD30O,0.078740X0.062992*%
%TA.AperFunction,ViaPad*%
%ADD31C,0.098425*%
%ADD32C,0.050000*%
D10*
X2910000Y2205000D02*
Y2275000D01*
X2675000Y2510000D02*
Y2780000D01*
Y2510000D02*
X2910000Y2275000D01*
Y2035000D02*
Y2205000D01*
X2435000Y1635000D02*
Y1895000D01*
X2490000Y1950000D02*
X2536299D01*
X2435000Y1895000D02*
X2490000Y1950000D01*
X1540000Y2445000D02*
X1611299D01*
X1238500Y1111500D02*
X1350000Y1000000D01*
X1170000Y1111500D02*
X1238500D01*
X1350000Y1000000D02*
X1735000D01*
X2375000Y1370000D02*
Y1575000D01*
X2435000Y1635000D01*
X2855000Y2825000D02*
X2910000Y2770000D01*
Y2670000D02*
Y2770000D01*
X2720000Y2825000D02*
X2855000D01*
X2675000Y2780000D02*
X2720000Y2825000D01*
X2805000Y2500000D02*
Y2670000D01*
Y2500000D02*
X3010000Y2295000D01*
X2355000Y1681568D02*
Y1965000D01*
X2290000Y2030000D02*
X2355000Y1965000D01*
X2323432Y1650000D02*
X2355000Y1681568D01*
X1480000Y1125000D02*
Y1525000D01*
X1516500Y1561500D01*
X1611299D01*
X1485000Y2390000D02*
X1540000Y2445000D01*
X1485000Y1995000D02*
Y2390000D01*
X1250000Y1915000D02*
X1735000D01*
X1170000Y1995000D02*
X1250000Y1915000D01*
X2005000Y135000D02*
X2115000Y245000D01*
X1556716Y135000D02*
X2005000D01*
X1485000Y206716D02*
X1556716Y135000D01*
X495000Y390000D02*
X775000Y110000D01*
X1388284D02*
X1485000Y206716D01*
X775000Y110000D02*
X1388284D01*
X495000Y390000D02*
Y1380000D01*
X2223701Y1650000D02*
X2323432D01*
X2065000Y2030000D02*
X2290000D01*
X1950000Y1915000D02*
X2065000Y2030000D01*
X1735000Y1915000D02*
X1950000D01*
X2536299Y1950000D02*
X2825000D01*
X2910000Y2035000D01*
X3010000Y2205000D02*
Y2295000D01*
X1485000Y206716D02*
Y615000D01*
X1520000Y650000D01*
X1611299D01*
D11*
X2910000Y2205000D02*
Y2207617D01*
X2665000Y1260000D02*
X2790000Y1385000D01*
X1885000Y1165000D02*
X1980000Y1260000D01*
X2665000D01*
X2228701Y1150000D02*
X2298701Y1220000D01*
X2735000D01*
X2805000Y1150000D01*
X1135000Y2345000D02*
X1298701D01*
X1035000Y2245000D02*
X1135000Y2345000D01*
X1035000Y2245000D02*
X1037500Y2242500D01*
X790000Y1900000D02*
Y2210000D01*
X825000Y2245000D02*
X880000D01*
X790000Y2210000D02*
X825000Y2245000D01*
X150000Y1380000D02*
X245000D01*
X100000Y1430000D02*
Y2435000D01*
Y1430000D02*
X150000Y1380000D01*
X100000Y2435000D02*
X169645Y2504645D01*
X229645D02*
X235000Y2510000D01*
X169645Y2504645D02*
X229645D01*
X3010000Y2670000D02*
X3255000D01*
X2589803Y1300000D02*
X2690000Y1400197D01*
X2287598Y1300000D02*
X2589803D01*
X2120000Y1340000D02*
X2247598D01*
X2287598Y1300000D01*
X1455000Y920000D02*
X1840000D01*
X1885000Y965000D01*
X1430000Y945000D02*
X1455000Y920000D01*
X1885000Y965000D02*
Y1165000D01*
X1850000Y225000D02*
X1980000Y355000D01*
Y1004606D02*
X2075000Y1099606D01*
X1980000Y355000D02*
Y1004606D01*
X1205000Y1035000D02*
X1295000Y945000D01*
X1430000D01*
X800000Y1035000D02*
X1205000D01*
X790000Y1900000D02*
X839606Y1850394D01*
X685000Y980000D02*
X1100000D01*
X740000Y1095000D02*
X800000Y1035000D01*
X1100000Y980000D02*
X1170000Y910000D01*
X610000Y1055000D02*
X685000Y980000D01*
X3255000Y2670000D02*
X3410000Y2515000D01*
Y1740000D02*
Y2515000D01*
X3355000Y1685000D02*
X3410000Y1740000D01*
X3300000Y1685000D02*
X3355000D01*
X3010000Y515000D02*
X3075000Y580000D01*
X2356201Y515000D02*
X3010000D01*
X3075000Y580000D02*
Y1830000D01*
X2333701Y485000D02*
Y492500D01*
X2356201Y515000D01*
X2735000Y440000D02*
Y450000D01*
X3075000Y1830000D02*
X3130000Y1885000D01*
X3200000D01*
X2870000Y190000D02*
X2878610Y198610D01*
X740000Y1095000D02*
Y1325000D01*
X776500Y1361500D01*
X610000Y1055000D02*
Y1973284D01*
X600000Y2010000D02*
X609567Y2000433D01*
Y1973717D02*
X610000Y1973284D01*
X609567Y1973717D02*
Y2000433D01*
X776500Y1361500D02*
X880000D01*
X2745197Y1749803D02*
X2790000Y1705000D01*
X2690000Y1749803D02*
X2745197D01*
X2790000Y1385000D02*
Y1705000D01*
X2835000Y1470000D02*
Y1800000D01*
X2670000Y1850000D02*
X2785000D01*
X2835000Y1800000D01*
Y1470000D02*
X2861000Y1444000D01*
X2950000D01*
X1813500Y1540000D02*
X2120000D01*
X1735000Y1461500D02*
X1813500Y1540000D01*
X1170000Y850000D02*
Y910000D01*
X1075000Y2755000D02*
X1170000Y2660000D01*
X625000Y2615000D02*
X765000Y2755000D01*
X1075000D01*
X625000Y2510000D02*
Y2615000D01*
X600000Y2210000D02*
X670000D01*
X725000Y2155000D01*
Y1731716D02*
Y2155000D01*
Y1731716D02*
X796716Y1660000D01*
X1068500D01*
X1170000Y1761500D01*
Y2650000D02*
Y2660000D01*
X1039194Y454194D02*
Y494194D01*
X1095000Y550000D02*
X1298701D01*
X1039194Y494194D02*
X1095000Y550000D01*
X1035000Y450000D02*
X1039194Y454194D01*
X1035000Y1361500D02*
X1135000Y1461500D01*
X1298701D01*
X1870000Y1650000D02*
X1920000D01*
X2020000Y1750000D02*
X2120000D01*
X1920000Y1650000D02*
X2020000Y1750000D01*
D12*
X839606Y1850394D02*
X840000Y1850000D01*
X2020000D01*
D13*
X3010000Y2670000D02*
D03*
X2910000D02*
D03*
X2810000Y2205000D02*
D03*
X2910000D02*
D03*
X3010000D02*
D03*
D14*
X2805000Y2670000D02*
D03*
X2710000Y2205000D02*
D03*
D15*
X2120000Y1340000D02*
D03*
Y1540000D02*
D03*
X880000Y1561500D02*
D03*
Y1761500D02*
D03*
X1170000Y650000D02*
D03*
Y850000D02*
D03*
X880000Y630000D02*
D03*
Y830000D02*
D03*
X1970000Y2545000D02*
D03*
Y2345000D02*
D03*
X1170000Y2450000D02*
D03*
Y2650000D02*
D03*
X880000Y2420000D02*
D03*
Y2620000D02*
D03*
X1170000Y1761500D02*
D03*
Y1561500D02*
D03*
X600000Y2010000D02*
D03*
X400000D02*
D03*
X600000Y2210000D02*
D03*
X400000D02*
D03*
X600000Y2410000D02*
D03*
X400000D02*
D03*
X1880000Y550000D02*
D03*
Y750000D02*
D03*
D16*
X1735000Y1915000D02*
D03*
Y1665000D02*
D03*
X880000Y1111500D02*
D03*
Y1361500D02*
D03*
X1035000Y1535000D02*
D03*
Y1785000D02*
D03*
Y200000D02*
D03*
Y450000D02*
D03*
X880000Y200000D02*
D03*
Y450000D02*
D03*
X1040000Y630000D02*
D03*
Y880000D02*
D03*
X1735000Y1000000D02*
D03*
Y750000D02*
D03*
Y550000D02*
D03*
Y300000D02*
D03*
X2723701Y595000D02*
D03*
X2473701D02*
D03*
X2223701Y725000D02*
D03*
X2473701D02*
D03*
X2075000Y645000D02*
D03*
Y395000D02*
D03*
X2365000Y245000D02*
D03*
X2115000D02*
D03*
X2870000Y440000D02*
D03*
Y190000D02*
D03*
X2670000Y1150000D02*
D03*
Y900000D02*
D03*
X2805000Y1150000D02*
D03*
Y900000D02*
D03*
X2525000Y2515000D02*
D03*
X2275000D02*
D03*
X2525000Y2385000D02*
D03*
X2275000D02*
D03*
Y2250000D02*
D03*
X2525000D02*
D03*
X2275000Y2130000D02*
D03*
X2525000D02*
D03*
X1870000Y2235000D02*
D03*
Y1985000D02*
D03*
X1735000Y2345000D02*
D03*
Y2095000D02*
D03*
X880000Y1995000D02*
D03*
Y2245000D02*
D03*
X1735000Y2795000D02*
D03*
Y2545000D02*
D03*
X2920000Y1850000D02*
D03*
X2670000D02*
D03*
X495000Y1380000D02*
D03*
X245000D02*
D03*
X1170000Y450000D02*
D03*
Y200000D02*
D03*
X2510000Y1430000D02*
D03*
X2260000D02*
D03*
X1035000Y1361500D02*
D03*
Y1111500D02*
D03*
X1361299Y1125000D02*
D03*
X1611299D02*
D03*
X2260000Y1545000D02*
D03*
X2510000D02*
D03*
X1870000Y1650000D02*
D03*
X2120000D02*
D03*
X1870000Y1750000D02*
D03*
X2120000D02*
D03*
X1170000Y1361500D02*
D03*
Y1111500D02*
D03*
X1035000Y2670000D02*
D03*
Y2420000D02*
D03*
X1361299Y1995000D02*
D03*
X1611299D02*
D03*
X1035000Y2245000D02*
D03*
Y1995000D02*
D03*
X1170000Y2245000D02*
D03*
Y1995000D02*
D03*
X375000Y2110000D02*
D03*
X625000D02*
D03*
X375000Y2310000D02*
D03*
X625000D02*
D03*
X375000Y2510000D02*
D03*
X625000D02*
D03*
X1735000Y1211500D02*
D03*
Y1461500D02*
D03*
X495000Y1585000D02*
D03*
X245000D02*
D03*
X1361299Y225000D02*
D03*
X1611299D02*
D03*
X495000Y1795000D02*
D03*
X245000D02*
D03*
X2820000Y725000D02*
D03*
X2570000D02*
D03*
D17*
X2228701Y1150000D02*
D03*
X2223701Y1950000D02*
D03*
X1298701Y650000D02*
D03*
Y1561500D02*
D03*
Y2445000D02*
D03*
D18*
X2228701Y1050000D02*
D03*
Y950000D02*
D03*
Y850000D02*
D03*
X2541299D02*
D03*
Y950000D02*
D03*
Y1050000D02*
D03*
Y1150000D02*
D03*
X2223701Y1850000D02*
D03*
Y1750000D02*
D03*
Y1650000D02*
D03*
X2536299D02*
D03*
Y1750000D02*
D03*
Y1850000D02*
D03*
Y1950000D02*
D03*
X1611299Y650000D02*
D03*
Y550000D02*
D03*
Y450000D02*
D03*
Y350000D02*
D03*
X1298701D02*
D03*
Y450000D02*
D03*
Y550000D02*
D03*
X1611299Y1561500D02*
D03*
Y1461500D02*
D03*
Y1361500D02*
D03*
Y1261500D02*
D03*
X1298701D02*
D03*
Y1361500D02*
D03*
Y1461500D02*
D03*
X1611299Y2445000D02*
D03*
Y2345000D02*
D03*
Y2245000D02*
D03*
Y2145000D02*
D03*
X1298701D02*
D03*
Y2245000D02*
D03*
Y2345000D02*
D03*
D19*
X2225000Y515000D02*
D03*
D20*
X2335000D02*
D03*
D21*
X2485000Y440000D02*
D03*
X2735000Y240000D02*
D03*
Y440000D02*
D03*
X2485000Y240000D02*
D03*
D22*
X2990000Y1346000D02*
D03*
Y1444000D02*
D03*
Y1545000D02*
D03*
D23*
X2690000Y1400197D02*
D03*
X2020000Y2199606D02*
D03*
X2075000Y750000D02*
D03*
D24*
X2690000Y1749803D02*
D03*
X2020000Y1850000D02*
D03*
X2075000Y1099606D02*
D03*
D25*
X1380000Y2630000D02*
D03*
X1375000Y830000D02*
D03*
Y1750000D02*
D03*
D26*
X1480000Y2630000D02*
D03*
X1580000D02*
D03*
X1575000Y830000D02*
D03*
X1475000D02*
D03*
X1575000Y1750000D02*
D03*
X1475000D02*
D03*
D27*
X235000Y2110000D02*
D03*
Y2410000D02*
D03*
Y2310000D02*
D03*
Y2210000D02*
D03*
Y2010000D02*
D03*
D28*
Y2510000D02*
D03*
D29*
X3200000Y2385000D02*
D03*
D30*
X3300000D02*
D03*
X3200000Y2285000D02*
D03*
X3300000D02*
D03*
X3200000Y2185000D02*
D03*
X3300000D02*
D03*
X3200000Y2085000D02*
D03*
X3300000D02*
D03*
X3200000Y1985000D02*
D03*
X3300000D02*
D03*
X3200000Y1885000D02*
D03*
X3300000D02*
D03*
X3200000Y1785000D02*
D03*
X3300000D02*
D03*
X3200000Y1685000D02*
D03*
X3300000D02*
D03*
X3200000Y1585000D02*
D03*
X3300000D02*
D03*
X3200000Y1485000D02*
D03*
X3300000D02*
D03*
X3200000Y1385000D02*
D03*
X3300000D02*
D03*
X3200000Y1285000D02*
D03*
X3300000D02*
D03*
X3200000Y1185000D02*
D03*
X3300000D02*
D03*
X3200000Y1085000D02*
D03*
X3300000D02*
D03*
X3200000Y985000D02*
D03*
X3300000D02*
D03*
X3200000Y885000D02*
D03*
X3300000D02*
D03*
X3200000Y785000D02*
D03*
X3300000D02*
D03*
X3200000Y685000D02*
D03*
X3300000D02*
D03*
X3200000Y585000D02*
D03*
X3300000D02*
D03*
X3200000Y485000D02*
D03*
X3300000D02*
D03*
D31*
X118110Y118110D02*
D03*
Y2834646D02*
D03*
X3425197D02*
D03*
Y118110D02*
D03*
D32*
X2375000Y1370000D02*
D03*
X1480000Y1125000D02*
D03*
X1485000Y1995000D02*
D03*
X1850000Y225000D02*
D03*
%TF.MD5,529873e4dd77f586f4b6a16712d3e884*%
M02*
