%TF.GenerationSoftware,Altium Limited,Altium Designer,23.3.1 (30)*%
G04 Layer_Color=8388736*
%FSLAX26Y26*%
%MOIN*%
%TF.SameCoordinates,8F501EFE-F143-482A-9327-88418F9FCBED*%
%TF.FilePolarity,Negative*%
%TF.FileFunction,Soldermask,Top*%
%TF.Part,Single*%
G01*
G75*
%TA.AperFunction,ComponentPad*%
%ADD23C,0.061024*%
%ADD24R,0.061024X0.061024*%
%ADD25R,0.047244X0.047244*%
%ADD26C,0.047244*%
%ADD41O,0.083000X0.098000*%
%ADD42R,0.083000X0.098000*%
%ADD43C,0.078000*%
%ADD44C,0.073000*%
%ADD45R,0.052488X0.052488*%
%ADD46C,0.052488*%
%ADD47O,0.073000X0.108000*%
%ADD48R,0.073000X0.108000*%
%ADD49C,0.083000*%
%ADD50O,0.083000X0.073000*%
%ADD51O,0.093000X0.073000*%
%ADD52R,0.093000X0.073000*%
%ADD53R,0.086740X0.070992*%
%ADD54O,0.086740X0.070992*%
%TA.AperFunction,ViaPad*%
%ADD55C,0.106425*%
%ADD56C,0.058000*%
D23*
X2690000Y1400197D02*
D03*
X2020000Y2199606D02*
D03*
X2075000Y750000D02*
D03*
D24*
X2690000Y1749803D02*
D03*
X2020000Y1850000D02*
D03*
X2075000Y1099606D02*
D03*
D25*
X1380000Y2630000D02*
D03*
X1375000Y830000D02*
D03*
Y1750000D02*
D03*
D26*
X1480000Y2630000D02*
D03*
X1580000D02*
D03*
X1575000Y830000D02*
D03*
X1475000D02*
D03*
X1575000Y1750000D02*
D03*
X1475000D02*
D03*
D41*
X3010000Y2670000D02*
D03*
X2910000D02*
D03*
X2810000Y2205000D02*
D03*
X2910000D02*
D03*
X3010000D02*
D03*
D42*
X2805000Y2670000D02*
D03*
X2710000Y2205000D02*
D03*
D43*
X2120000Y1340000D02*
D03*
Y1540000D02*
D03*
X880000Y1561500D02*
D03*
Y1761500D02*
D03*
X1170000Y650000D02*
D03*
Y850000D02*
D03*
X880000Y630000D02*
D03*
Y830000D02*
D03*
X1970000Y2545000D02*
D03*
Y2345000D02*
D03*
X1170000Y2450000D02*
D03*
Y2650000D02*
D03*
X880000Y2420000D02*
D03*
Y2620000D02*
D03*
X1170000Y1761500D02*
D03*
Y1561500D02*
D03*
X600000Y2010000D02*
D03*
X400000D02*
D03*
X600000Y2210000D02*
D03*
X400000D02*
D03*
X600000Y2410000D02*
D03*
X400000D02*
D03*
X1880000Y550000D02*
D03*
Y750000D02*
D03*
D44*
X1735000Y1915000D02*
D03*
Y1665000D02*
D03*
X880000Y1111500D02*
D03*
Y1361500D02*
D03*
X1035000Y1535000D02*
D03*
Y1785000D02*
D03*
Y200000D02*
D03*
Y450000D02*
D03*
X880000Y200000D02*
D03*
Y450000D02*
D03*
X1040000Y630000D02*
D03*
Y880000D02*
D03*
X1735000Y1000000D02*
D03*
Y750000D02*
D03*
Y550000D02*
D03*
Y300000D02*
D03*
X2723701Y595000D02*
D03*
X2473701D02*
D03*
X2223701Y725000D02*
D03*
X2473701D02*
D03*
X2075000Y645000D02*
D03*
Y395000D02*
D03*
X2365000Y245000D02*
D03*
X2115000D02*
D03*
X2870000Y440000D02*
D03*
Y190000D02*
D03*
X2670000Y1150000D02*
D03*
Y900000D02*
D03*
X2805000Y1150000D02*
D03*
Y900000D02*
D03*
X2525000Y2515000D02*
D03*
X2275000D02*
D03*
X2525000Y2385000D02*
D03*
X2275000D02*
D03*
Y2250000D02*
D03*
X2525000D02*
D03*
X2275000Y2130000D02*
D03*
X2525000D02*
D03*
X1870000Y2235000D02*
D03*
Y1985000D02*
D03*
X1735000Y2345000D02*
D03*
Y2095000D02*
D03*
X880000Y1995000D02*
D03*
Y2245000D02*
D03*
X1735000Y2795000D02*
D03*
Y2545000D02*
D03*
X2920000Y1850000D02*
D03*
X2670000D02*
D03*
X495000Y1380000D02*
D03*
X245000D02*
D03*
X1170000Y450000D02*
D03*
Y200000D02*
D03*
X2510000Y1430000D02*
D03*
X2260000D02*
D03*
X1035000Y1361500D02*
D03*
Y1111500D02*
D03*
X1361299Y1125000D02*
D03*
X1611299D02*
D03*
X2260000Y1545000D02*
D03*
X2510000D02*
D03*
X1870000Y1650000D02*
D03*
X2120000D02*
D03*
X1870000Y1750000D02*
D03*
X2120000D02*
D03*
X1170000Y1361500D02*
D03*
Y1111500D02*
D03*
X1035000Y2670000D02*
D03*
Y2420000D02*
D03*
X1361299Y1995000D02*
D03*
X1611299D02*
D03*
X1035000Y2245000D02*
D03*
Y1995000D02*
D03*
X1170000Y2245000D02*
D03*
Y1995000D02*
D03*
X375000Y2110000D02*
D03*
X625000D02*
D03*
X375000Y2310000D02*
D03*
X625000D02*
D03*
X375000Y2510000D02*
D03*
X625000D02*
D03*
X1735000Y1211500D02*
D03*
Y1461500D02*
D03*
X495000Y1585000D02*
D03*
X245000D02*
D03*
X1361299Y225000D02*
D03*
X1611299D02*
D03*
X495000Y1795000D02*
D03*
X245000D02*
D03*
X2820000Y725000D02*
D03*
X2570000D02*
D03*
D45*
X2228701Y1150000D02*
D03*
X2223701Y1950000D02*
D03*
X1298701Y650000D02*
D03*
Y1561500D02*
D03*
Y2445000D02*
D03*
D46*
X2228701Y1050000D02*
D03*
Y950000D02*
D03*
Y850000D02*
D03*
X2541299D02*
D03*
Y950000D02*
D03*
Y1050000D02*
D03*
Y1150000D02*
D03*
X2223701Y1850000D02*
D03*
Y1750000D02*
D03*
Y1650000D02*
D03*
X2536299D02*
D03*
Y1750000D02*
D03*
Y1850000D02*
D03*
Y1950000D02*
D03*
X1611299Y650000D02*
D03*
Y550000D02*
D03*
Y450000D02*
D03*
Y350000D02*
D03*
X1298701D02*
D03*
Y450000D02*
D03*
Y550000D02*
D03*
X1611299Y1561500D02*
D03*
Y1461500D02*
D03*
Y1361500D02*
D03*
Y1261500D02*
D03*
X1298701D02*
D03*
Y1361500D02*
D03*
Y1461500D02*
D03*
X1611299Y2445000D02*
D03*
Y2345000D02*
D03*
Y2245000D02*
D03*
Y2145000D02*
D03*
X1298701D02*
D03*
Y2245000D02*
D03*
Y2345000D02*
D03*
D47*
X2225000Y515000D02*
D03*
D48*
X2335000D02*
D03*
D49*
X2485000Y440000D02*
D03*
X2735000Y240000D02*
D03*
Y440000D02*
D03*
X2485000Y240000D02*
D03*
D50*
X2990000Y1346000D02*
D03*
Y1444000D02*
D03*
Y1545000D02*
D03*
D51*
X235000Y2110000D02*
D03*
Y2410000D02*
D03*
Y2310000D02*
D03*
Y2210000D02*
D03*
Y2010000D02*
D03*
D52*
Y2510000D02*
D03*
D53*
X3200000Y2385000D02*
D03*
D54*
X3300000D02*
D03*
X3200000Y2285000D02*
D03*
X3300000D02*
D03*
X3200000Y2185000D02*
D03*
X3300000D02*
D03*
X3200000Y2085000D02*
D03*
X3300000D02*
D03*
X3200000Y1985000D02*
D03*
X3300000D02*
D03*
X3200000Y1885000D02*
D03*
X3300000D02*
D03*
X3200000Y1785000D02*
D03*
X3300000D02*
D03*
X3200000Y1685000D02*
D03*
X3300000D02*
D03*
X3200000Y1585000D02*
D03*
X3300000D02*
D03*
X3200000Y1485000D02*
D03*
X3300000D02*
D03*
X3200000Y1385000D02*
D03*
X3300000D02*
D03*
X3200000Y1285000D02*
D03*
X3300000D02*
D03*
X3200000Y1185000D02*
D03*
X3300000D02*
D03*
X3200000Y1085000D02*
D03*
X3300000D02*
D03*
X3200000Y985000D02*
D03*
X3300000D02*
D03*
X3200000Y885000D02*
D03*
X3300000D02*
D03*
X3200000Y785000D02*
D03*
X3300000D02*
D03*
X3200000Y685000D02*
D03*
X3300000D02*
D03*
X3200000Y585000D02*
D03*
X3300000D02*
D03*
X3200000Y485000D02*
D03*
X3300000D02*
D03*
D55*
X118110Y118110D02*
D03*
Y2834646D02*
D03*
X3425197D02*
D03*
Y118110D02*
D03*
D56*
X2375000Y1370000D02*
D03*
X1480000Y1125000D02*
D03*
X1485000Y1995000D02*
D03*
X1850000Y225000D02*
D03*
%TF.MD5,fbb8f8a099ae1448da142abba0583088*%
M02*
