G04*
G04 #@! TF.GenerationSoftware,Altium Limited,Altium Designer,23.3.1 (30)*
G04*
G04 Layer_Color=65535*
%FSTAX25Y25*%
%MOIN*%
G70*
G04*
G04 #@! TF.SameCoordinates,9A05AFE5-7EB6-4EC5-A0C1-68252A558CAD*
G04*
G04*
G04 #@! TF.FilePolarity,Positive*
G04*
G01*
G75*
%ADD10C,0.00700*%
%ADD11C,0.00787*%
%ADD12C,0.00600*%
%ADD13C,0.00984*%
%ADD14C,0.00500*%
%ADD15C,0.01200*%
%ADD16C,0.01000*%
%ADD17C,0.03000*%
G36*
X00161Y02509D02*
X00136Y02534D01*
Y02484D01*
X00161Y02509D01*
D02*
G37*
G36*
X026745Y020555D02*
X027455D01*
X027105Y020905D01*
Y020915D01*
X026745Y020555D01*
D02*
G37*
G36*
X02934Y01545D02*
X02909Y0157D01*
Y0152D01*
X02934Y01545D01*
D02*
G37*
G36*
X027745Y025205D02*
X028455D01*
X028105Y025555D01*
Y025565D01*
X027745Y025205D01*
D02*
G37*
D10*
X0208Y0134D02*
X0208116Y0133043D01*
X0208458Y0132141D01*
X0209006Y0131348D01*
X0209728Y0130708D01*
X0210582Y013026D01*
X0211518Y0130029D01*
X0212482D01*
X0213418Y013026D01*
X0214272Y0130708D01*
X0214994Y0131348D01*
X0215542Y0132141D01*
X0215884Y0133043D01*
X0216Y0134D01*
Y0154D02*
X0215884Y0154957D01*
X0215542Y0155859D01*
X0214994Y0156652D01*
X0214272Y0157292D01*
X0213418Y015774D01*
X0212482Y0157971D01*
X0211518D01*
X0210582Y015774D01*
X0209728Y0157292D01*
X0209006Y0156652D01*
X0208458Y0155859D01*
X0208116Y0154957D01*
X0208Y0154D01*
X0084Y015615D02*
X0084116Y0155193D01*
X0084458Y0154291D01*
X0085006Y0153498D01*
X0085728Y0152858D01*
X0086582Y015241D01*
X0087518Y0152179D01*
X0088482D01*
X0089418Y015241D01*
X0090272Y0152858D01*
X0090994Y0153498D01*
X0091542Y0154291D01*
X0091884Y0155193D01*
X0092Y015615D01*
Y017615D02*
X0091884Y0177107D01*
X0091542Y0178009D01*
X0090994Y0178803D01*
X0090272Y0179442D01*
X0089418Y017989D01*
X0088482Y0180121D01*
X0087518D01*
X0086582Y017989D01*
X0085728Y0179442D01*
X0085006Y0178803D01*
X0084458Y0178009D01*
X0084116Y0177107D01*
X0084Y017615D01*
X0113Y0065D02*
X0113116Y0064043D01*
X0113458Y0063141D01*
X0114006Y0062348D01*
X0114728Y0061708D01*
X0115582Y006126D01*
X0116518Y0061029D01*
X0117482D01*
X0118418Y006126D01*
X0119272Y0061708D01*
X0119994Y0062348D01*
X0120542Y0063141D01*
X0120884Y0064043D01*
X0121Y0065D01*
Y0085D02*
X0120884Y0085957D01*
X0120542Y0086859D01*
X0119994Y0087652D01*
X0119272Y0088292D01*
X0118418Y008874D01*
X0117482Y0088971D01*
X0116518D01*
X0115582Y008874D01*
X0114728Y0088292D01*
X0114006Y0087652D01*
X0113458Y0086859D01*
X0113116Y0085957D01*
X0113Y0085D01*
X0084Y0063D02*
X0084116Y0062043D01*
X0084458Y0061141D01*
X0085006Y0060347D01*
X0085728Y0059708D01*
X0086582Y005926D01*
X0087518Y0059029D01*
X0088482D01*
X0089418Y005926D01*
X0090272Y0059708D01*
X0090994Y0060347D01*
X0091542Y0061141D01*
X0091884Y0062043D01*
X0092Y0063D01*
Y0083D02*
X0091884Y0083957D01*
X0091542Y0084859D01*
X0090994Y0085653D01*
X0090272Y0086292D01*
X0089418Y008674D01*
X0088482Y0086971D01*
X0087518D01*
X0086582Y008674D01*
X0085728Y0086292D01*
X0085006Y0085653D01*
X0084458Y0084859D01*
X0084116Y0083957D01*
X0084Y0083D01*
X0217649Y0045429D02*
X0218188Y0044592D01*
X0218795Y0043802D01*
X0219465Y0043065D01*
X0220193Y0042386D01*
X0220976Y004177D01*
X0221807Y0041222D01*
X022268Y0040744D01*
X022359Y0040339D01*
X0224531Y0040012D01*
X0225495Y0039764D01*
X0226477Y0039597D01*
X0227469Y0039512D01*
X0228465Y0039509D01*
X0229458Y0039589D01*
X023044Y0039751D01*
X0231406Y0039994D01*
X0232348Y0040315D01*
X023326Y0040714D01*
X0234137Y0041188D01*
X023497Y0041732D01*
X0235756Y0042344D01*
X0236489Y0043018D01*
X0237163Y0043751D01*
X0237774Y0044538D01*
X0238317Y0045372D01*
X023879Y0046249D01*
X0239188Y0047161D01*
X0239509Y0048104D01*
X0239751Y004907D01*
X0239912Y0050052D01*
X0239991Y0051045D01*
X0239988Y0052041D01*
X0239902Y0053033D01*
X0239734Y0054014D01*
X0239485Y0054979D01*
X0239157Y0055919D01*
X0238752Y0056829D01*
X0238273Y0057702D01*
X0237723Y0058532D01*
X0237107Y0059314D01*
X0236428Y0060042D01*
X023569Y0060712D01*
X02349Y0061318D01*
X0234062Y0061856D01*
X0233183Y0062323D01*
X0232268Y0062715D01*
X0231323Y0063031D01*
X0230356Y0063266D01*
X0229372Y0063421D01*
X0228379Y0063494D01*
X0227383Y0063484D01*
X0226392Y0063392D01*
X0225411Y0063217D01*
X0224449Y0062962D01*
X022351Y0062629D01*
X0222603Y0062218D01*
X0221733Y0061734D01*
X0220906Y0061179D01*
X0220128Y0060557D01*
X0219404Y0059873D01*
X021874Y0059132D01*
X0218139Y0058338D01*
X0217606Y0057497D01*
X0201Y02545D02*
X0200884Y0255457D01*
X0200542Y0256359D01*
X0199994Y0257153D01*
X0199272Y0257792D01*
X0198418Y025824D01*
X0197482Y0258471D01*
X0196518D01*
X0195582Y025824D01*
X0194728Y0257792D01*
X0194006Y0257153D01*
X0193458Y0256359D01*
X0193116Y0255457D01*
X0193Y02545D01*
Y02345D02*
X0193116Y0233543D01*
X0193458Y0232641D01*
X0194006Y0231848D01*
X0194728Y0231208D01*
X0195582Y023076D01*
X0196518Y0230529D01*
X0197482D01*
X0198418Y023076D01*
X0199272Y0231208D01*
X0199994Y0231848D01*
X0200542Y0232641D01*
X0200884Y0233543D01*
X0201Y02345D01*
X0113Y0245D02*
X0113116Y0244043D01*
X0113458Y0243141D01*
X0114006Y0242348D01*
X0114728Y0241708D01*
X0115582Y024126D01*
X0116518Y0241029D01*
X0117482D01*
X0118418Y024126D01*
X0119272Y0241708D01*
X0119994Y0242348D01*
X0120542Y0243141D01*
X0120884Y0244043D01*
X0121Y0245D01*
Y0265D02*
X0120884Y0265957D01*
X0120542Y0266859D01*
X0119994Y0267653D01*
X0119272Y0268292D01*
X0118418Y026874D01*
X0117482Y0268971D01*
X0116518D01*
X0115582Y026874D01*
X0114728Y0268292D01*
X0114006Y0267653D01*
X0113458Y0266859D01*
X0113116Y0265957D01*
X0113Y0265D01*
X0084Y0242D02*
X0084116Y0241043D01*
X0084458Y0240141D01*
X0085006Y0239348D01*
X0085728Y0238708D01*
X0086582Y023826D01*
X0087518Y0238029D01*
X0088482D01*
X0089418Y023826D01*
X0090272Y0238708D01*
X0090994Y0239348D01*
X0091542Y0240141D01*
X0091884Y0241043D01*
X0092Y0242D01*
Y0262D02*
X0091884Y0262957D01*
X0091542Y0263859D01*
X0090994Y0264652D01*
X0090272Y0265292D01*
X0089418Y026574D01*
X0088482Y0265971D01*
X0087518D01*
X0086582Y026574D01*
X0085728Y0265292D01*
X0085006Y0264652D01*
X0084458Y0263859D01*
X0084116Y0262957D01*
X0084Y0262D01*
X0121Y017615D02*
X0120884Y0177107D01*
X0120542Y0178009D01*
X0119994Y0178803D01*
X0119272Y0179442D01*
X0118418Y017989D01*
X0117482Y0180121D01*
X0116518D01*
X0115582Y017989D01*
X0114728Y0179442D01*
X0114006Y0178803D01*
X0113458Y0178009D01*
X0113116Y0177107D01*
X0113Y017615D01*
Y015615D02*
X0113116Y0155193D01*
X0113458Y0154291D01*
X0114006Y0153498D01*
X0114728Y0152858D01*
X0115582Y015241D01*
X0116518Y0152179D01*
X0117482D01*
X0118418Y015241D01*
X0119272Y0152858D01*
X0119994Y0153498D01*
X0120542Y0154291D01*
X0120884Y0155193D01*
X0121Y015615D01*
X006Y0197D02*
X0060957Y0197116D01*
X0061859Y0197458D01*
X0062652Y0198006D01*
X0063292Y0198728D01*
X006374Y0199582D01*
X0063971Y0200518D01*
Y0201482D01*
X006374Y0202418D01*
X0063292Y0203272D01*
X0062652Y0203994D01*
X0061859Y0204542D01*
X0060957Y0204884D01*
X006Y0205D01*
X004D02*
X0039043Y0204884D01*
X0038141Y0204542D01*
X0037347Y0203994D01*
X0036708Y0203272D01*
X003626Y0202418D01*
X0036029Y0201482D01*
Y0200518D01*
X003626Y0199582D01*
X0036708Y0198728D01*
X0037347Y0198006D01*
X0038141Y0197458D01*
X0039043Y0197116D01*
X004Y0197D01*
X006Y0217D02*
X0060957Y0217116D01*
X0061859Y0217458D01*
X0062652Y0218006D01*
X0063292Y0218728D01*
X006374Y0219582D01*
X0063971Y0220518D01*
Y0221482D01*
X006374Y0222418D01*
X0063292Y0223272D01*
X0062652Y0223994D01*
X0061859Y0224542D01*
X0060957Y0224884D01*
X006Y0225D01*
X004D02*
X0039043Y0224884D01*
X0038141Y0224542D01*
X0037347Y0223994D01*
X0036708Y0223272D01*
X003626Y0222418D01*
X0036029Y0221482D01*
Y0220518D01*
X003626Y0219582D01*
X0036708Y0218728D01*
X0037347Y0218006D01*
X0038141Y0217458D01*
X0039043Y0217116D01*
X004Y0217D01*
X006Y0237D02*
X0060957Y0237116D01*
X0061859Y0237458D01*
X0062652Y0238006D01*
X0063292Y0238728D01*
X006374Y0239582D01*
X0063971Y0240518D01*
Y0241482D01*
X006374Y0242418D01*
X0063292Y0243272D01*
X0062652Y0243994D01*
X0061859Y0244542D01*
X0060957Y0244884D01*
X006Y0245D01*
X004D02*
X0039043Y0244884D01*
X0038141Y0244542D01*
X0037347Y0243994D01*
X0036708Y0243272D01*
X003626Y0242418D01*
X0036029Y0241482D01*
Y0240518D01*
X003626Y0239582D01*
X0036708Y0238728D01*
X0037347Y0238006D01*
X0038141Y0237458D01*
X0039043Y0237116D01*
X004Y0237D01*
X0184Y0055D02*
X0184116Y0054043D01*
X0184458Y0053141D01*
X0185006Y0052347D01*
X0185728Y0051708D01*
X0186582Y005126D01*
X0187518Y0051029D01*
X0188482D01*
X0189418Y005126D01*
X0190272Y0051708D01*
X0190994Y0052347D01*
X0191542Y0053141D01*
X0191884Y0054043D01*
X0192Y0055D01*
Y0075D02*
X0191884Y0075957D01*
X0191542Y0076859D01*
X0190994Y0077653D01*
X0190272Y0078292D01*
X0189418Y007874D01*
X0188482Y0078971D01*
X0187518D01*
X0186582Y007874D01*
X0185728Y0078292D01*
X0185006Y0077653D01*
X0184458Y0076859D01*
X0184116Y0075957D01*
X0184Y0075D01*
X03031Y0257D02*
Y026D01*
X02981D02*
X03031D01*
X02981Y0257D02*
Y026D01*
X02832Y02571D02*
Y02601D01*
X02782D02*
X02832D01*
X02782Y02571D02*
Y02601D01*
X0311Y0267D02*
Y0281D01*
X0271Y0257D02*
Y0281D01*
Y0257D02*
X0311D01*
Y0267D01*
X0271Y0281D02*
X0311D01*
X0208Y0134D02*
Y0154D01*
X0216Y0134D02*
Y0154D01*
X0209Y01415D02*
X02145D01*
X0209Y0146D02*
X02145D01*
X0212Y01385D02*
Y01415D01*
Y0146D02*
Y0149D01*
X01735Y01695D02*
Y01742D01*
X01767D02*
Y01842D01*
X01701Y01742D02*
Y01842D01*
X01767D01*
X01701Y01742D02*
X01767D01*
X01735Y01845D02*
Y01885D01*
X0088Y012845D02*
Y013315D01*
X00848Y011845D02*
Y012845D01*
X00914Y011845D02*
Y012845D01*
X00848Y011845D02*
X00914D01*
X00848Y012845D02*
X00914D01*
X0088Y011415D02*
Y011815D01*
X0084Y015615D02*
Y017615D01*
X0092Y015615D02*
Y017615D01*
X0085Y016365D02*
X00905D01*
X0085Y016815D02*
X00905D01*
X0088Y016065D02*
Y016365D01*
Y016815D02*
Y017115D01*
X01035Y01708D02*
Y01755D01*
X01003Y01608D02*
Y01708D01*
X01069Y01608D02*
Y01708D01*
X01003Y01608D02*
X01069D01*
X01003Y01708D02*
X01069D01*
X01035Y01565D02*
Y01605D01*
Y00373D02*
Y0042D01*
X01003Y00273D02*
Y00373D01*
X01069Y00273D02*
Y00373D01*
X01003Y00273D02*
X01069D01*
X01003Y00373D02*
X01069D01*
X01035Y0023D02*
Y0027D01*
X0088Y00373D02*
Y0042D01*
X00848Y00273D02*
Y00373D01*
X00914Y00273D02*
Y00373D01*
X00848Y00273D02*
X00914D01*
X00848Y00373D02*
X00914D01*
X0088Y0023D02*
Y0027D01*
X0113Y0065D02*
Y0085D01*
X0121Y0065D02*
Y0085D01*
X0114Y00725D02*
X01195D01*
X0114Y0077D02*
X01195D01*
X0117Y00695D02*
Y00725D01*
Y0077D02*
Y008D01*
X0084Y0063D02*
Y0083D01*
X0092Y0063D02*
Y0083D01*
X0085Y00705D02*
X00905D01*
X0085Y0075D02*
X00905D01*
X0088Y00675D02*
Y00705D01*
Y0075D02*
Y0078D01*
X0104Y00803D02*
Y0085D01*
X01008Y00703D02*
Y00803D01*
X01074Y00703D02*
Y00803D01*
X01008Y00703D02*
X01074D01*
X01008Y00803D02*
X01074D01*
X0104Y0066D02*
Y007D01*
X01735Y0078D02*
Y00827D01*
X01767D02*
Y00927D01*
X01701Y00827D02*
Y00927D01*
X01767D01*
X01701Y00827D02*
X01767D01*
X01735Y0093D02*
Y0097D01*
Y0033D02*
Y00377D01*
X01767D02*
Y00477D01*
X01701Y00377D02*
Y00477D01*
X01767D01*
X01701Y00377D02*
X01767D01*
X01735Y0048D02*
Y0052D01*
X025037Y00595D02*
X025507D01*
Y00563D02*
X026507D01*
X025507Y00629D02*
X026507D01*
Y00563D02*
Y00629D01*
X025507Y00563D02*
Y00629D01*
X026537Y00595D02*
X026937D01*
X023967Y00725D02*
X024437D01*
X022967Y00757D02*
X023967D01*
X022967Y00691D02*
X023967D01*
X022967D02*
Y00757D01*
X023967Y00691D02*
Y00757D01*
X022537Y00725D02*
X022937D01*
X02075Y00425D02*
Y00472D01*
X02107D02*
Y00572D01*
X02041Y00472D02*
Y00572D01*
X02107D01*
X02041Y00472D02*
X02107D01*
X02075Y00575D02*
Y00615D01*
X02145Y00245D02*
X02192D01*
Y00213D02*
X02292D01*
X02192Y00279D02*
X02292D01*
Y00213D02*
Y00279D01*
X02192Y00213D02*
Y00279D01*
X02295Y00245D02*
X02335D01*
X02176Y00455D02*
Y00574D01*
X02321Y00447D02*
X02351D01*
X02336Y00432D02*
Y0046D01*
X02724Y00225D02*
X02725Y00226D01*
X0287Y0022D02*
Y00267D01*
X02902D02*
Y00367D01*
X02836Y00267D02*
Y00367D01*
X02902D01*
X02836Y00267D02*
X02902D01*
X0287Y0037D02*
Y0041D01*
X0267Y0093D02*
Y00977D01*
X02702D02*
Y01077D01*
X02636Y00977D02*
Y01077D01*
X02702D01*
X02636Y00977D02*
X02702D01*
X0267Y0108D02*
Y0112D01*
X02805Y0093D02*
Y00977D01*
X02837D02*
Y01077D01*
X02771Y00977D02*
Y01077D01*
X02837D01*
X02771Y00977D02*
X02837D01*
X02805Y0108D02*
Y0112D01*
X0294Y01295D02*
Y01595D01*
X0304D01*
Y01295D02*
Y01595D01*
X0294Y01295D02*
X0304D01*
X0294Y015D02*
X03039D01*
X02305Y02515D02*
X02352D01*
Y02483D02*
X02452D01*
X02352Y02549D02*
X02452D01*
Y02483D02*
Y02549D01*
X02352Y02483D02*
Y02549D01*
X02455Y02515D02*
X02495D01*
X02305Y02385D02*
X02352D01*
Y02353D02*
X02452D01*
X02352Y02419D02*
X02452D01*
Y02353D02*
Y02419D01*
X02352Y02353D02*
Y02419D01*
X02455Y02385D02*
X02495D01*
X02448Y0225D02*
X02495D01*
X02348Y02282D02*
X02448D01*
X02348Y02216D02*
X02448D01*
X02348D02*
Y02282D01*
X02448Y02216D02*
Y02282D01*
X02305Y0225D02*
X02345D01*
X02448Y0213D02*
X02495D01*
X02348Y02162D02*
X02448D01*
X02348Y02096D02*
X02448D01*
X02348D02*
Y02162D01*
X02448Y02096D02*
Y02162D01*
X02305Y0213D02*
X02345D01*
X0201Y02345D02*
Y02545D01*
X0193Y02345D02*
Y02545D01*
X01945Y0247D02*
X02D01*
X01945Y02425D02*
X02D01*
X0197Y0247D02*
Y025D01*
Y02395D02*
Y02425D01*
X0187Y02015D02*
Y02062D01*
X01902D02*
Y02162D01*
X01836Y02062D02*
Y02162D01*
X01902D01*
X01836Y02062D02*
X01902D01*
X0187Y02165D02*
Y02205D01*
X01735Y02125D02*
Y02172D01*
X01767D02*
Y02272D01*
X01701Y02172D02*
Y02272D01*
X01767D01*
X01701Y02172D02*
X01767D01*
X01735Y02275D02*
Y02315D01*
X0088Y02168D02*
Y02215D01*
X00848Y02068D02*
Y02168D01*
X00914Y02068D02*
Y02168D01*
X00848Y02068D02*
X00914D01*
X00848Y02168D02*
X00914D01*
X0088Y02025D02*
Y02065D01*
X01735Y02575D02*
Y02622D01*
X01767D02*
Y02722D01*
X01701Y02622D02*
Y02722D01*
X01767D01*
X01701Y02622D02*
X01767D01*
X01735Y02725D02*
Y02765D01*
X0113Y0245D02*
Y0265D01*
X0121Y0245D02*
Y0265D01*
X0114Y02525D02*
X01195D01*
X0114Y0257D02*
X01195D01*
X0117Y02495D02*
Y02525D01*
Y0257D02*
Y026D01*
X0084Y0242D02*
Y0262D01*
X0092Y0242D02*
Y0262D01*
X0085Y02495D02*
X00905D01*
X0085Y0254D02*
X00905D01*
X0088Y02465D02*
Y02495D01*
Y0254D02*
Y0257D01*
X0301Y02107D02*
Y02137D01*
X0296D02*
X0301D01*
X0296Y02107D02*
Y02137D01*
X02762Y02105D02*
Y02135D01*
X02712D02*
X02762D01*
X02712Y02105D02*
Y02135D01*
X0261Y02345D02*
X0311D01*
Y02105D02*
Y02205D01*
X0261Y02105D02*
X0311D01*
X0261D02*
Y02345D01*
X0311Y02205D02*
Y02345D01*
X027Y0185D02*
X0274D01*
X02843Y01816D02*
Y01882D01*
X02743Y01816D02*
Y01882D01*
Y01816D02*
X02843D01*
X02743Y01882D02*
X02843D01*
Y0185D02*
X0289D01*
X00275Y0138D02*
X00315D01*
X00418Y01346D02*
Y01412D01*
X00318Y01346D02*
Y01412D01*
Y01346D02*
X00418D01*
X00318Y01412D02*
X00418D01*
Y0138D02*
X00465D01*
X00178Y02459D02*
X00291D01*
X00293Y01954D02*
Y0256D01*
X00178Y01954D02*
Y0256D01*
X00293D01*
X00178Y01954D02*
X00293D01*
X0117Y0023D02*
Y0027D01*
X01138Y00373D02*
X01204D01*
X01138Y00273D02*
X01204D01*
Y00373D01*
X01138Y00273D02*
Y00373D01*
X0117D02*
Y0042D01*
X0229Y0143D02*
X0233D01*
X02433Y01396D02*
Y01462D01*
X02333Y01396D02*
Y01462D01*
Y01396D02*
X02433D01*
X02333Y01462D02*
X02433D01*
Y0143D02*
X0248D01*
X01035Y011415D02*
Y011815D01*
X01003Y012845D02*
X01069D01*
X01003Y011845D02*
X01069D01*
Y012845D01*
X01003Y011845D02*
Y012845D01*
X01035D02*
Y013315D01*
X015413Y01125D02*
X015813D01*
X014383Y01093D02*
Y01159D01*
X015383Y01093D02*
Y01159D01*
X014383D02*
X015383D01*
X014383Y01093D02*
X015383D01*
X013913Y01125D02*
X014383D01*
X0244Y01545D02*
X0248D01*
X02337Y01513D02*
Y01579D01*
X02437Y01513D02*
Y01579D01*
X02337D02*
X02437D01*
X02337Y01513D02*
X02437D01*
X0229Y01545D02*
X02337D01*
X0205Y0165D02*
X0209D01*
X01947Y01618D02*
Y01684D01*
X02047Y01618D02*
Y01684D01*
X01947D02*
X02047D01*
X01947Y01618D02*
X02047D01*
X019Y0165D02*
X01947D01*
X0205Y0175D02*
X0209D01*
X01947Y01718D02*
Y01784D01*
X02047Y01718D02*
Y01784D01*
X01947D02*
X02047D01*
X01947Y01718D02*
X02047D01*
X019Y0175D02*
X01947D01*
X0117Y011415D02*
Y011815D01*
X01138Y012845D02*
X01204D01*
X01138Y011845D02*
X01204D01*
Y012845D01*
X01138Y011845D02*
Y012845D01*
X0117D02*
Y013315D01*
Y016815D02*
Y017115D01*
Y016065D02*
Y016365D01*
X0114Y016815D02*
X01195D01*
X0114Y016365D02*
X01195D01*
X0121Y015615D02*
Y017615D01*
X0113Y015615D02*
Y017615D01*
X01035Y0245D02*
Y0249D01*
X01003Y02593D02*
X01069D01*
X01003Y02493D02*
X01069D01*
Y02593D01*
X01003Y02493D02*
Y02593D01*
X01035D02*
Y0264D01*
X015413Y01995D02*
X015813D01*
X014383Y01963D02*
Y02029D01*
X015383Y01963D02*
Y02029D01*
X014383D02*
X015383D01*
X014383Y01963D02*
X015383D01*
X013913Y01995D02*
X014383D01*
X01035Y02025D02*
Y02065D01*
X01003Y02168D02*
X01069D01*
X01003Y02068D02*
X01069D01*
Y02168D01*
X01003Y02068D02*
Y02168D01*
X01035D02*
Y02215D01*
X0117Y02025D02*
Y02065D01*
X01138Y02168D02*
X01204D01*
X01138Y02068D02*
X01204D01*
Y02168D01*
X01138Y02068D02*
Y02168D01*
X0117D02*
Y02215D01*
X0052Y0201D02*
X0055D01*
X00445D02*
X00475D01*
X0052Y01985D02*
Y0204D01*
X00475Y01985D02*
Y0204D01*
X004Y0197D02*
X006D01*
X004Y0205D02*
X006D01*
X0052Y0221D02*
X0055D01*
X00445D02*
X00475D01*
X0052Y02185D02*
Y0224D01*
X00475Y02185D02*
Y0224D01*
X004Y0217D02*
X006D01*
X004Y0225D02*
X006D01*
X00555Y0211D02*
X00595D01*
X00452Y02078D02*
Y02144D01*
X00552Y02078D02*
Y02144D01*
X00452D02*
X00552D01*
X00452Y02078D02*
X00552D01*
X00405Y0211D02*
X00452D01*
X00555Y0231D02*
X00595D01*
X00452Y02278D02*
Y02344D01*
X00552Y02278D02*
Y02344D01*
X00452D02*
X00552D01*
X00452Y02278D02*
X00552D01*
X00405Y0231D02*
X00452D01*
X0052Y0241D02*
X0055D01*
X00445D02*
X00475D01*
X0052Y02385D02*
Y0244D01*
X00475Y02385D02*
Y0244D01*
X004Y0237D02*
X006D01*
X004Y0245D02*
X006D01*
X00555Y0251D02*
X00595D01*
X00452Y02478D02*
Y02544D01*
X00552Y02478D02*
Y02544D01*
X00452D02*
X00552D01*
X00452Y02478D02*
X00552D01*
X00405Y0251D02*
X00452D01*
X01735Y013915D02*
Y014315D01*
X01701Y012885D02*
X01767D01*
X01701Y013885D02*
X01767D01*
X01701Y012885D02*
Y013885D01*
X01767Y012885D02*
Y013885D01*
X01735Y012415D02*
Y012885D01*
X00275Y01585D02*
X00315D01*
X00418Y01551D02*
Y01617D01*
X00318Y01551D02*
Y01617D01*
Y01551D02*
X00418D01*
X00318Y01617D02*
X00418D01*
Y01585D02*
X00465D01*
X0188Y006D02*
Y0063D01*
Y00675D02*
Y00705D01*
X01855Y0063D02*
X0191D01*
X01855Y00675D02*
X0191D01*
X0184Y0055D02*
Y0075D01*
X0192Y0055D02*
Y0075D01*
X015413Y00225D02*
X015813D01*
X014383Y00193D02*
Y00259D01*
X015383Y00193D02*
Y00259D01*
X014383D02*
X015383D01*
X014383Y00193D02*
X015383D01*
X013913Y00225D02*
X014383D01*
X00275Y01795D02*
X00315D01*
X00418Y01761D02*
Y01827D01*
X00318Y01761D02*
Y01827D01*
Y01761D02*
X00418D01*
X00318Y01827D02*
X00418D01*
Y01795D02*
X00465D01*
X026Y00725D02*
X0264D01*
X02743Y00691D02*
Y00757D01*
X02643Y00691D02*
Y00757D01*
Y00691D02*
X02743D01*
X02643Y00757D02*
X02743D01*
Y00725D02*
X0279D01*
D11*
X0219071Y0115D02*
X0218284D01*
X0219071D01*
X0218571Y0195D02*
X0217783D01*
X0218571D01*
X0126071Y0065D02*
X0125284D01*
X0126071D01*
Y015615D02*
X0125284D01*
X0126071D01*
Y02445D02*
X0125284D01*
X0126071D01*
X0263764Y0162618D02*
X0274236D01*
X0269Y0144646D02*
Y0147264D01*
Y0167736D02*
Y0170354D01*
X0263488Y0167736D02*
X0274512D01*
X0263488Y0147264D02*
Y0167736D01*
Y0147264D02*
X0274512D01*
Y0167736D01*
X0196764Y0197362D02*
X0207236D01*
X0202Y0212717D02*
Y0215335D01*
Y0189626D02*
Y0192244D01*
X0196488D02*
X0207512D01*
Y0212717D01*
X0196488D02*
X0207512D01*
X0196488Y0192244D02*
Y0212717D01*
X0167252Y0253256D02*
Y0272783D01*
X0128748Y0253256D02*
X0167252D01*
X0128748D02*
Y0272783D01*
X0167252D01*
X0128248Y0092783D02*
X0166752D01*
X0128248Y0073256D02*
Y0092783D01*
Y0073256D02*
X0166752D01*
Y0092783D01*
X0128248Y0184783D02*
X0166752D01*
X0128248Y0165256D02*
Y0184783D01*
Y0165256D02*
X0166752D01*
Y0184783D01*
X0213012Y0082244D02*
Y0102717D01*
X0201988Y0082244D02*
X0213012D01*
X0201988D02*
Y0102717D01*
X0213012D01*
X02075D02*
Y0105335D01*
Y0079626D02*
Y0082244D01*
X0202264Y0097598D02*
X0212736D01*
D12*
X0266Y00345D02*
X0265898Y0035506D01*
X0265595Y0036472D01*
X0265104Y0037356D01*
X0264445Y0038124D01*
X0263645Y0038743D01*
X0262737Y0039189D01*
X0261757Y0039442D01*
X0260747Y0039494D01*
X0259747Y003934D01*
X0258798Y0038989D01*
X025794Y0038454D01*
X0257206Y0037757D01*
X0256628Y0036926D01*
X0256229Y0035997D01*
X0256026Y0035006D01*
Y0033994D01*
X0256229Y0033003D01*
X0256628Y0032074D01*
X0257206Y0031243D01*
X025794Y0030546D01*
X0258798Y0030011D01*
X0259747Y002966D01*
X0260747Y0029506D01*
X0261757Y0029558D01*
X0262737Y0029811D01*
X0263645Y0030257D01*
X0264445Y0030876D01*
X0265104Y0031644D01*
X0265595Y0032528D01*
X0265898Y0033494D01*
X0266Y00345D01*
X025Y0029D02*
Y00385D01*
X02531Y0024D02*
X02685D01*
X02725Y0029D02*
Y00385D01*
X0253Y0044D02*
X02685D01*
D13*
X0127232Y0263D02*
X0126494Y0263426D01*
Y0262574D01*
X0127232Y0263D01*
X0126732Y0083D02*
X0125994Y0083426D01*
Y0082574D01*
X0126732Y0083D01*
Y0175D02*
X0125994Y0175426D01*
Y0174574D01*
X0126732Y0175D01*
D14*
X0226Y0118878D02*
X0251D01*
X0226Y0081122D02*
X0251D01*
X02255Y0198878D02*
X02505D01*
X02255Y0161122D02*
X02505D01*
X0133Y0031122D02*
X0158D01*
X0133Y0068878D02*
X0158D01*
X0133Y0122272D02*
X0158D01*
X0133Y0160028D02*
X0158D01*
X0133Y0210622D02*
X0158D01*
X0133Y0248378D02*
X0158D01*
D15*
X0315Y02435D02*
X0335D01*
X0315Y00435D02*
Y02435D01*
Y00435D02*
X0335D01*
Y02435D01*
X0325Y02335D02*
Y02435D01*
X0315Y02335D02*
X0325D01*
D16*
X0284999Y0137498D02*
X0283333D01*
X02825Y0136665D01*
Y0133333D01*
X0283333Y01325D01*
X0284999D01*
X0285832Y0133333D01*
Y0136665D01*
X0284999Y0137498D01*
X0287498Y0136665D02*
X0288331Y0137498D01*
X0289998D01*
X0290831Y0136665D01*
Y0135832D01*
X0289998Y0134999D01*
X0289164D01*
X0289998D01*
X0290831Y0134166D01*
Y0133333D01*
X0289998Y01325D01*
X0288331D01*
X0287498Y0133333D01*
X0284999Y0147998D02*
X0283333D01*
X02825Y0147165D01*
Y0143833D01*
X0283333Y0143D01*
X0284999D01*
X0285832Y0143833D01*
Y0147165D01*
X0284999Y0147998D01*
X0290831Y0143D02*
X0287498D01*
X0290831Y0146332D01*
Y0147165D01*
X0289998Y0147998D01*
X0288331D01*
X0287498Y0147165D01*
X0284999Y0157498D02*
X0283333D01*
X02825Y0156665D01*
Y0153333D01*
X0283333Y01525D01*
X0284999D01*
X0285832Y0153333D01*
Y0156665D01*
X0284999Y0157498D01*
X0287498Y01525D02*
X0289164D01*
X0288331D01*
Y0157498D01*
X0287498Y0156665D01*
X0298855Y019573D02*
X0298022Y0194897D01*
Y0193231D01*
X0298855Y0192398D01*
X0302187D01*
X030302Y0193231D01*
Y0194897D01*
X0302187Y019573D01*
X0300521D01*
Y0194064D01*
X030302Y0197396D02*
X0298022D01*
X030302Y0200729D01*
X0298022D01*
Y0202395D02*
X030302D01*
Y0204894D01*
X0302187Y0205727D01*
X0298855D01*
X0298022Y0204894D01*
Y0202395D01*
X0287522Y0191898D02*
X0290854D01*
X029252Y0193564D01*
X0290854Y019523D01*
X0287522D01*
X0288355Y0200229D02*
X0287522Y0199396D01*
Y0197729D01*
X0288355Y0196896D01*
X0291687D01*
X029252Y0197729D01*
Y0199396D01*
X0291687Y0200229D01*
X0288355Y0205227D02*
X0287522Y0204394D01*
Y0202728D01*
X0288355Y0201895D01*
X0291687D01*
X029252Y0202728D01*
Y0204394D01*
X0291687Y0205227D01*
X0277835Y0194332D02*
X0277002Y0193499D01*
Y0191833D01*
X0277835Y0191D01*
X0278668D01*
X0279501Y0191833D01*
Y0193499D01*
X0280334Y0194332D01*
X0281167D01*
X0282Y0193499D01*
Y0191833D01*
X0281167Y0191D01*
X0277002Y0195998D02*
X0282D01*
Y0198498D01*
X0281167Y0199331D01*
X0277835D01*
X0277002Y0198498D01*
Y0195998D01*
X0282Y0200997D02*
X0278668D01*
X0277002Y0202663D01*
X0278668Y0204329D01*
X0282D01*
X0279501D01*
Y0200997D01*
X0269835Y0194332D02*
X0269002Y0193499D01*
Y0191833D01*
X0269835Y0191D01*
X0270668D01*
X0271501Y0191833D01*
Y0193499D01*
X0272334Y0194332D01*
X0273167D01*
X0274Y0193499D01*
Y0191833D01*
X0273167Y0191D01*
X0269835Y0199331D02*
X0269002Y0198498D01*
Y0196831D01*
X0269835Y0195998D01*
X0273167D01*
X0274Y0196831D01*
Y0198498D01*
X0273167Y0199331D01*
X0269002Y0200997D02*
X0274D01*
Y0204329D01*
X030352Y0237398D02*
X0298522D01*
Y0239897D01*
X0299355Y024073D01*
X0301021D01*
X0301854Y0239897D01*
Y0237398D01*
X0298522Y0242396D02*
X0301021D01*
X0301854Y0243229D01*
X0301021Y0244062D01*
X0301854Y0244896D01*
X0301021Y0245729D01*
X0298522D01*
X0301854Y0247395D02*
X0298522D01*
Y0248228D01*
X0299355Y0249061D01*
X0301854D01*
X0299355D01*
X0298522Y0249894D01*
X0299355Y0250727D01*
X0301854D01*
X0288522Y0237398D02*
X0291854D01*
X029352Y0239064D01*
X0291854Y024073D01*
X0288522D01*
X0289355Y0245729D02*
X0288522Y0244896D01*
Y0243229D01*
X0289355Y0242396D01*
X0292687D01*
X029352Y0243229D01*
Y0244896D01*
X0292687Y0245729D01*
X0289355Y0250727D02*
X0288522Y0249894D01*
Y0248228D01*
X0289355Y0247395D01*
X0292687D01*
X029352Y0248228D01*
Y0249894D01*
X0292687Y0250727D01*
X0279335Y0240332D02*
X0278502Y0239499D01*
Y0237833D01*
X0279335Y0237D01*
X0282667D01*
X02835Y0237833D01*
Y0239499D01*
X0282667Y0240332D01*
X0281001D01*
Y0238666D01*
X02835Y0241998D02*
X0278502D01*
X02835Y0245331D01*
X0278502D01*
Y0246997D02*
X02835D01*
Y0249496D01*
X0282667Y0250329D01*
X0279335D01*
X0278502Y0249496D01*
Y0246997D01*
X00055Y0212165D02*
X0006333Y0212998D01*
X0007999D01*
X0008832Y0212165D01*
Y0211332D01*
X0007999Y0210499D01*
X0007166D01*
X0007999D01*
X0008832Y0209666D01*
Y0208833D01*
X0007999Y0208D01*
X0006333D01*
X00055Y0208833D01*
X0010498Y0210499D02*
X0013831D01*
X0012165Y0212165D02*
Y0208833D01*
X0005822Y0202881D02*
X0006655Y0203714D01*
X0008321D01*
X0009155Y0202881D01*
Y0202048D01*
X0008321Y0201215D01*
X0007489D01*
X0008321D01*
X0009155Y0200382D01*
Y0199549D01*
X0008321Y0198716D01*
X0006655D01*
X0005822Y0199549D01*
X0010821Y0201215D02*
X0014153D01*
X0008332Y0228D02*
X0005D01*
X0008332Y0231332D01*
Y0232165D01*
X0007499Y0232998D01*
X0005833D01*
X0005Y0232165D01*
X0009998Y0230499D02*
X0013331D01*
X0011665Y0232165D02*
Y0228833D01*
X0008655Y0218716D02*
X0005322D01*
X0008655Y0222048D01*
Y0222881D01*
X0007822Y0223714D01*
X0006155D01*
X0005322Y0222881D01*
X0010321Y0221215D02*
X0013653D01*
X0004822Y0239216D02*
X0006488D01*
X0005655D01*
Y0244214D01*
X0004822Y0243381D01*
X0008988Y0241715D02*
X001232D01*
X00045Y02485D02*
X0006166D01*
X0005333D01*
Y0253498D01*
X00045Y0252665D01*
X0008665Y0250999D02*
X0011998D01*
X0010331Y0252665D02*
Y0249333D01*
X0276169Y0288166D02*
X0275336Y0288999D01*
X027367D01*
X0272837Y0288166D01*
Y0287333D01*
X027367Y02865D01*
X0275336D01*
X0276169Y0285667D01*
Y0284834D01*
X0275336Y0284001D01*
X027367D01*
X0272837Y0284834D01*
X0281168Y0288999D02*
X0277835D01*
Y0284001D01*
X0281168D01*
X0277835Y02865D02*
X0279502D01*
X0282834Y0284001D02*
Y0288999D01*
X0285333D01*
X0286166Y0288166D01*
Y02865D01*
X0285333Y0285667D01*
X0282834D01*
X02845D02*
X0286166Y0284001D01*
X0287832Y0288999D02*
Y0285667D01*
X0289498Y0284001D01*
X0291164Y0285667D01*
Y0288999D01*
X029533D02*
X0293664D01*
X0292831Y0288166D01*
Y0284834D01*
X0293664Y0284001D01*
X029533D01*
X0296163Y0284834D01*
Y0288166D01*
X029533Y0288999D01*
X02616Y0242798D02*
Y02378D01*
X0264932D01*
X0269931Y0241965D02*
X0269098Y0242798D01*
X0267431D01*
X0266598Y0241965D01*
Y0238633D01*
X0267431Y02378D01*
X0269098D01*
X0269931Y0238633D01*
X0271597Y0242798D02*
Y02378D01*
X0274096D01*
X0274929Y0238633D01*
Y0241965D01*
X0274096Y0242798D01*
X0271597D01*
X0017932Y0263565D02*
X0017099Y0264398D01*
X0015433D01*
X00146Y0263565D01*
Y0262732D01*
X0015433Y0261899D01*
X0017099D01*
X0017932Y0261066D01*
Y0260233D01*
X0017099Y02594D01*
X0015433D01*
X00146Y0260233D01*
X0022931Y0264398D02*
X0019598D01*
Y02594D01*
X0022931D01*
X0019598Y0261899D02*
X0021264D01*
X0024597Y02594D02*
Y0264398D01*
X0027929Y02594D01*
Y0264398D01*
X0032927Y0263565D02*
X0032094Y0264398D01*
X0030428D01*
X0029595Y0263565D01*
Y0262732D01*
X0030428Y0261899D01*
X0032094D01*
X0032927Y0261066D01*
Y0260233D01*
X0032094Y02594D01*
X0030428D01*
X0029595Y0260233D01*
X0037093Y0264398D02*
X0035427D01*
X0034593Y0263565D01*
Y0260233D01*
X0035427Y02594D01*
X0037093D01*
X0037926Y0260233D01*
Y0263565D01*
X0037093Y0264398D01*
X0039592Y02594D02*
Y0264398D01*
X0042091D01*
X0042924Y0263565D01*
Y0261899D01*
X0042091Y0261066D01*
X0039592D01*
X0041258D02*
X0042924Y02594D01*
X01263Y0101598D02*
Y0098266D01*
X0127966Y00966D01*
X0129632Y0098266D01*
Y0101598D01*
X0131298Y00966D02*
Y0101598D01*
X0133798D01*
X0134631Y0100765D01*
Y0099099D01*
X0133798Y0098266D01*
X0131298D01*
X0132965D02*
X0134631Y00966D01*
X0136297Y0100765D02*
X013713Y0101598D01*
X0138796D01*
X0139629Y0100765D01*
Y0099932D01*
X0138796Y0099099D01*
X0137963D01*
X0138796D01*
X0139629Y0098266D01*
Y0097433D01*
X0138796Y00966D01*
X013713D01*
X0136297Y0097433D01*
X0140835Y0192499D02*
Y0189167D01*
X0142502Y0187501D01*
X0144168Y0189167D01*
Y0192499D01*
X0145834Y0187501D02*
Y0192499D01*
X0148333D01*
X0149166Y0191666D01*
Y019D01*
X0148333Y0189167D01*
X0145834D01*
X01475D02*
X0149166Y0187501D01*
X0154165D02*
X0150832D01*
X0154165Y0190833D01*
Y0191666D01*
X0153331Y0192499D01*
X0151665D01*
X0150832Y0191666D01*
X0139169Y0281499D02*
Y0278167D01*
X0140835Y0276501D01*
X0142501Y0278167D01*
Y0281499D01*
X0144167Y0276501D02*
Y0281499D01*
X0146666D01*
X0147499Y0280666D01*
Y0279D01*
X0146666Y0278167D01*
X0144167D01*
X0145833D02*
X0147499Y0276501D01*
X0149165D02*
X0150831D01*
X0149998D01*
Y0281499D01*
X0149165Y0280666D01*
X0219835Y0126499D02*
Y0122334D01*
X0220668Y0121501D01*
X0222334D01*
X0223167Y0122334D01*
Y0126499D01*
X0228165D02*
X0224833D01*
Y0124D01*
X0226499Y0124833D01*
X0227332D01*
X0228165Y0124D01*
Y0122334D01*
X0227332Y0121501D01*
X0225666D01*
X0224833Y0122334D01*
X01259Y0077998D02*
Y0073833D01*
X0126733Y0073D01*
X0128399D01*
X0129232Y0073833D01*
Y0077998D01*
X0133398Y0073D02*
Y0077998D01*
X0130898Y0075499D01*
X0134231D01*
X0115835Y0148499D02*
Y0144334D01*
X0116668Y0143501D01*
X0118334D01*
X0119167Y0144334D01*
Y0148499D01*
X0120833Y0147666D02*
X0121666Y0148499D01*
X0123332D01*
X0124165Y0147666D01*
Y0146833D01*
X0123332Y0146D01*
X0122499D01*
X0123332D01*
X0124165Y0145167D01*
Y0144334D01*
X0123332Y0143501D01*
X0121666D01*
X0120833Y0144334D01*
X0217835Y0206499D02*
Y0202334D01*
X0218668Y0201501D01*
X0220334D01*
X0221167Y0202334D01*
Y0206499D01*
X0226165Y0201501D02*
X0222833D01*
X0226165Y0204833D01*
Y0205666D01*
X0225332Y0206499D01*
X0223666D01*
X0222833Y0205666D01*
X0165668Y0250499D02*
Y0246334D01*
X0166501Y0245501D01*
X0168167D01*
X0169Y0246334D01*
Y0250499D01*
X0170666Y0245501D02*
X0172332D01*
X0171499D01*
Y0250499D01*
X0170666Y0249666D01*
X0249501Y0016666D02*
X0248668Y0017499D01*
X0247002D01*
X0246169Y0016666D01*
Y0015833D01*
X0247002Y0015D01*
X0248668D01*
X0249501Y0014167D01*
Y0013334D01*
X0248668Y0012501D01*
X0247002D01*
X0246169Y0013334D01*
X0251167Y0017499D02*
Y0012501D01*
X0252833Y0014167D01*
X0254499Y0012501D01*
Y0017499D01*
X0256165Y0012501D02*
X0257831D01*
X0256998D01*
Y0017499D01*
X0256165Y0016666D01*
X0199836Y0030001D02*
Y0034999D01*
X0202335D01*
X0203168Y0034166D01*
Y00325D01*
X0202335Y0031667D01*
X0199836D01*
X0201502D02*
X0203168Y0030001D01*
X0207333D02*
Y0034999D01*
X0204834Y00325D01*
X0208166D01*
X0213164Y0034999D02*
X0209832D01*
Y00325D01*
X0211498Y0033333D01*
X0212331D01*
X0213164Y00325D01*
Y0030834D01*
X0212331Y0030001D01*
X0210665D01*
X0209832Y0030834D01*
X0281335Y0049001D02*
Y0053999D01*
X0283835D01*
X0284668Y0053166D01*
Y00515D01*
X0283835Y0050667D01*
X0281335D01*
X0283002D02*
X0284668Y0049001D01*
X0288833D02*
Y0053999D01*
X0286334Y00515D01*
X0289666D01*
X0293831Y0049001D02*
Y0053999D01*
X0291332Y00515D01*
X0294665D01*
X0215835Y0013001D02*
Y0017999D01*
X0218335D01*
X0219168Y0017166D01*
Y00155D01*
X0218335Y0014667D01*
X0215835D01*
X0217502D02*
X0219168Y0013001D01*
X0223333D02*
Y0017999D01*
X0220834Y00155D01*
X0224166D01*
X0225832Y0017166D02*
X0226665Y0017999D01*
X0228331D01*
X0229165Y0017166D01*
Y0016333D01*
X0228331Y00155D01*
X0227498D01*
X0228331D01*
X0229165Y0014667D01*
Y0013834D01*
X0228331Y0013001D01*
X0226665D01*
X0225832Y0013834D01*
X0278335Y0119501D02*
Y0124499D01*
X0280835D01*
X0281668Y0123666D01*
Y0122D01*
X0280835Y0121167D01*
X0278335D01*
X0280002D02*
X0281668Y0119501D01*
X0285833D02*
Y0124499D01*
X0283334Y0122D01*
X0286666D01*
X0291665Y0119501D02*
X0288332D01*
X0291665Y0122833D01*
Y0123666D01*
X0290831Y0124499D01*
X0289165D01*
X0288332Y0123666D01*
X0288669Y0070501D02*
Y0075499D01*
X0291168D01*
X0292001Y0074666D01*
Y0073D01*
X0291168Y0072167D01*
X0288669D01*
X0290335D02*
X0292001Y0070501D01*
X0296166D02*
Y0075499D01*
X0293667Y0073D01*
X0296999D01*
X0298665Y0070501D02*
X0300331D01*
X0299498D01*
Y0075499D01*
X0298665Y0074666D01*
X0233836Y0063001D02*
Y0067999D01*
X0236335D01*
X0237168Y0067166D01*
Y00655D01*
X0236335Y0064667D01*
X0233836D01*
X0235502D02*
X0237168Y0063001D01*
X0241333D02*
Y0067999D01*
X0238834Y00655D01*
X0242166D01*
X0243832Y0067166D02*
X0244665Y0067999D01*
X0246331D01*
X0247165Y0067166D01*
Y0063834D01*
X0246331Y0063001D01*
X0244665D01*
X0243832Y0063834D01*
Y0067166D01*
X02544Y00792D02*
Y0084198D01*
X0256899D01*
X0257732Y0083365D01*
Y0081699D01*
X0256899Y0080866D01*
X02544D01*
X0256066D02*
X0257732Y00792D01*
X0259398Y0083365D02*
X0260231Y0084198D01*
X0261898D01*
X0262731Y0083365D01*
Y0082532D01*
X0261898Y0081699D01*
X0261065D01*
X0261898D01*
X0262731Y0080866D01*
Y0080033D01*
X0261898Y00792D01*
X0260231D01*
X0259398Y0080033D01*
X0264397D02*
X026523Y00792D01*
X0266896D01*
X0267729Y0080033D01*
Y0083365D01*
X0266896Y0084198D01*
X026523D01*
X0264397Y0083365D01*
Y0082532D01*
X026523Y0081699D01*
X0267729D01*
X0259335Y0119501D02*
Y0124499D01*
X0261835D01*
X0262668Y0123666D01*
Y0122D01*
X0261835Y0121167D01*
X0259335D01*
X0261002D02*
X0262668Y0119501D01*
X0264334Y0123666D02*
X0265167Y0124499D01*
X0266833D01*
X0267666Y0123666D01*
Y0122833D01*
X0266833Y0122D01*
X0266D01*
X0266833D01*
X0267666Y0121167D01*
Y0120334D01*
X0266833Y0119501D01*
X0265167D01*
X0264334Y0120334D01*
X0269332Y0123666D02*
X0270165Y0124499D01*
X0271831D01*
X0272664Y0123666D01*
Y0122833D01*
X0271831Y0122D01*
X0272664Y0121167D01*
Y0120334D01*
X0271831Y0119501D01*
X0270165D01*
X0269332Y0120334D01*
Y0121167D01*
X0270165Y0122D01*
X0269332Y0122833D01*
Y0123666D01*
X0270165Y0122D02*
X0271831D01*
X0078335Y0008001D02*
Y0012999D01*
X0080835D01*
X0081668Y0012166D01*
Y00105D01*
X0080835Y0009667D01*
X0078335D01*
X0080002D02*
X0081668Y0008001D01*
X0083334Y0012166D02*
X0084167Y0012999D01*
X0085833D01*
X0086666Y0012166D01*
Y0011333D01*
X0085833Y00105D01*
X0085D01*
X0085833D01*
X0086666Y0009667D01*
Y0008834D01*
X0085833Y0008001D01*
X0084167D01*
X0083334Y0008834D01*
X0088332Y0012999D02*
X0091664D01*
Y0012166D01*
X0088332Y0008834D01*
Y0008001D01*
X0166835Y0104501D02*
Y0109499D01*
X0169335D01*
X0170168Y0108666D01*
Y0107D01*
X0169335Y0106167D01*
X0166835D01*
X0168502D02*
X0170168Y0104501D01*
X0171834Y0108666D02*
X0172667Y0109499D01*
X0174333D01*
X0175166Y0108666D01*
Y0107833D01*
X0174333Y0107D01*
X01735D01*
X0174333D01*
X0175166Y0106167D01*
Y0105334D01*
X0174333Y0104501D01*
X0172667D01*
X0171834Y0105334D01*
X0180165Y0109499D02*
X0178498Y0108666D01*
X0176832Y0107D01*
Y0105334D01*
X0177665Y0104501D01*
X0179331D01*
X0180165Y0105334D01*
Y0106167D01*
X0179331Y0107D01*
X0176832D01*
X0166335Y0059501D02*
Y0064499D01*
X0168835D01*
X0169668Y0063666D01*
Y0062D01*
X0168835Y0061167D01*
X0166335D01*
X0168002D02*
X0169668Y0059501D01*
X0171334Y0063666D02*
X0172167Y0064499D01*
X0173833D01*
X0174666Y0063666D01*
Y0062833D01*
X0173833Y0062D01*
X0173D01*
X0173833D01*
X0174666Y0061167D01*
Y0060334D01*
X0173833Y0059501D01*
X0172167D01*
X0171334Y0060334D01*
X0179665Y0064499D02*
X0176332D01*
Y0062D01*
X0177998Y0062833D01*
X0178831D01*
X0179665Y0062D01*
Y0060334D01*
X0178831Y0059501D01*
X0177165D01*
X0176332Y0060334D01*
X0093836Y0052501D02*
Y0057499D01*
X0096335D01*
X0097168Y0056666D01*
Y0055D01*
X0096335Y0054167D01*
X0093836D01*
X0095502D02*
X0097168Y0052501D01*
X0098834Y0056666D02*
X0099667Y0057499D01*
X0101333D01*
X0102166Y0056666D01*
Y0055833D01*
X0101333Y0055D01*
X01005D01*
X0101333D01*
X0102166Y0054167D01*
Y0053334D01*
X0101333Y0052501D01*
X0099667D01*
X0098834Y0053334D01*
X0106331Y0052501D02*
Y0057499D01*
X0103832Y0055D01*
X0107165D01*
X01335Y00292D02*
Y0034198D01*
X0135999D01*
X0136832Y0033365D01*
Y0031699D01*
X0135999Y0030866D01*
X01335D01*
X0135166D02*
X0136832Y00292D01*
X0138498Y0033365D02*
X0139331Y0034198D01*
X0140998D01*
X0141831Y0033365D01*
Y0032532D01*
X0140998Y0031699D01*
X0140164D01*
X0140998D01*
X0141831Y0030866D01*
Y0030033D01*
X0140998Y00292D01*
X0139331D01*
X0138498Y0030033D01*
X0143497Y0033365D02*
X014433Y0034198D01*
X0145996D01*
X0146829Y0033365D01*
Y0032532D01*
X0145996Y0031699D01*
X0145163D01*
X0145996D01*
X0146829Y0030866D01*
Y0030033D01*
X0145996Y00292D01*
X014433D01*
X0143497Y0030033D01*
X0094836Y0008001D02*
Y0012999D01*
X0097335D01*
X0098168Y0012166D01*
Y00105D01*
X0097335Y0009667D01*
X0094836D01*
X0096502D02*
X0098168Y0008001D01*
X0099834Y0012166D02*
X0100667Y0012999D01*
X0102333D01*
X0103166Y0012166D01*
Y0011333D01*
X0102333Y00105D01*
X01015D01*
X0102333D01*
X0103166Y0009667D01*
Y0008834D01*
X0102333Y0008001D01*
X0100667D01*
X0099834Y0008834D01*
X0108165Y0008001D02*
X0104832D01*
X0108165Y0011333D01*
Y0012166D01*
X0107331Y0012999D01*
X0105665D01*
X0104832Y0012166D01*
X0112169Y0008001D02*
Y0012999D01*
X0114668D01*
X0115501Y0012166D01*
Y00105D01*
X0114668Y0009667D01*
X0112169D01*
X0113835D02*
X0115501Y0008001D01*
X0117167Y0012166D02*
X0118Y0012999D01*
X0119666D01*
X0120499Y0012166D01*
Y0011333D01*
X0119666Y00105D01*
X0118833D01*
X0119666D01*
X0120499Y0009667D01*
Y0008834D01*
X0119666Y0008001D01*
X0118D01*
X0117167Y0008834D01*
X0122165Y0008001D02*
X0123831D01*
X0122998D01*
Y0012999D01*
X0122165Y0012166D01*
X0067835Y0208501D02*
Y0213499D01*
X0070335D01*
X0071168Y0212666D01*
Y0211D01*
X0070335Y0210167D01*
X0067835D01*
X0069502D02*
X0071168Y0208501D01*
X0072834Y0212666D02*
X0073667Y0213499D01*
X0075333D01*
X0076166Y0212666D01*
Y0211833D01*
X0075333Y0211D01*
X00745D01*
X0075333D01*
X0076166Y0210167D01*
Y0209334D01*
X0075333Y0208501D01*
X0073667D01*
X0072834Y0209334D01*
X0077832Y0212666D02*
X0078665Y0213499D01*
X0080331D01*
X0081164Y0212666D01*
Y0209334D01*
X0080331Y0208501D01*
X0078665D01*
X0077832Y0209334D01*
Y0212666D01*
X00218Y01862D02*
Y0191198D01*
X0024299D01*
X0025132Y0190365D01*
Y0188699D01*
X0024299Y0187866D01*
X00218D01*
X0023466D02*
X0025132Y01862D01*
X0030131D02*
X0026798D01*
X0030131Y0189532D01*
Y0190365D01*
X0029298Y0191198D01*
X0027631D01*
X0026798Y0190365D01*
X0031797Y0187033D02*
X003263Y01862D01*
X0034296D01*
X0035129Y0187033D01*
Y0190365D01*
X0034296Y0191198D01*
X003263D01*
X0031797Y0190365D01*
Y0189532D01*
X003263Y0188699D01*
X0035129D01*
X0297835Y0182501D02*
Y0187499D01*
X0300335D01*
X0301168Y0186666D01*
Y0185D01*
X0300335Y0184167D01*
X0297835D01*
X0299502D02*
X0301168Y0182501D01*
X0306166D02*
X0302834D01*
X0306166Y0185833D01*
Y0186666D01*
X0305333Y0187499D01*
X0303667D01*
X0302834Y0186666D01*
X0307832D02*
X0308665Y0187499D01*
X0310331D01*
X0311164Y0186666D01*
Y0185833D01*
X0310331Y0185D01*
X0311164Y0184167D01*
Y0183334D01*
X0310331Y0182501D01*
X0308665D01*
X0307832Y0183334D01*
Y0184167D01*
X0308665Y0185D01*
X0307832Y0185833D01*
Y0186666D01*
X0308665Y0185D02*
X0310331D01*
X0209836Y0249001D02*
Y0253999D01*
X0212335D01*
X0213168Y0253166D01*
Y02515D01*
X0212335Y0250667D01*
X0209836D01*
X0211502D02*
X0213168Y0249001D01*
X0218166D02*
X0214834D01*
X0218166Y0252333D01*
Y0253166D01*
X0217333Y0253999D01*
X0215667D01*
X0214834Y0253166D01*
X0219832Y0253999D02*
X0223165D01*
Y0253166D01*
X0219832Y0249834D01*
Y0249001D01*
X0209836Y0236001D02*
Y0240999D01*
X0212335D01*
X0213168Y0240166D01*
Y02385D01*
X0212335Y0237667D01*
X0209836D01*
X0211502D02*
X0213168Y0236001D01*
X0218166D02*
X0214834D01*
X0218166Y0239333D01*
Y0240166D01*
X0217333Y0240999D01*
X0215667D01*
X0214834Y0240166D01*
X0223165Y0240999D02*
X0221498Y0240166D01*
X0219832Y02385D01*
Y0236834D01*
X0220665Y0236001D01*
X0222331D01*
X0223165Y0236834D01*
Y0237667D01*
X0222331Y02385D01*
X0219832D01*
X0209836Y0222001D02*
Y0226999D01*
X0212335D01*
X0213168Y0226166D01*
Y02245D01*
X0212335Y0223667D01*
X0209836D01*
X0211502D02*
X0213168Y0222001D01*
X0218166D02*
X0214834D01*
X0218166Y0225333D01*
Y0226166D01*
X0217333Y0226999D01*
X0215667D01*
X0214834Y0226166D01*
X0223165Y0226999D02*
X0219832D01*
Y02245D01*
X0221498Y0225333D01*
X0222331D01*
X0223165Y02245D01*
Y0222834D01*
X0222331Y0222001D01*
X0220665D01*
X0219832Y0222834D01*
X0210335Y0210001D02*
Y0214999D01*
X0212835D01*
X0213668Y0214166D01*
Y02125D01*
X0212835Y0211667D01*
X0210335D01*
X0212002D02*
X0213668Y0210001D01*
X0218666D02*
X0215334D01*
X0218666Y0213333D01*
Y0214166D01*
X0217833Y0214999D01*
X0216167D01*
X0215334Y0214166D01*
X0222831Y0210001D02*
Y0214999D01*
X0220332Y02125D01*
X0223664D01*
X0079835Y0141501D02*
Y0146499D01*
X0082335D01*
X0083168Y0145666D01*
Y0144D01*
X0082335Y0143167D01*
X0079835D01*
X0081502D02*
X0083168Y0141501D01*
X0088166D02*
X0084834D01*
X0088166Y0144833D01*
Y0145666D01*
X0087333Y0146499D01*
X0085667D01*
X0084834Y0145666D01*
X0089832D02*
X0090665Y0146499D01*
X0092331D01*
X0093164Y0145666D01*
Y0144833D01*
X0092331Y0144D01*
X0091498D01*
X0092331D01*
X0093164Y0143167D01*
Y0142334D01*
X0092331Y0141501D01*
X0090665D01*
X0089832Y0142334D01*
X0166835Y0196001D02*
Y0200999D01*
X0169335D01*
X0170168Y0200166D01*
Y01985D01*
X0169335Y0197667D01*
X0166835D01*
X0168502D02*
X0170168Y0196001D01*
X0175166D02*
X0171834D01*
X0175166Y0199333D01*
Y0200166D01*
X0174333Y0200999D01*
X0172667D01*
X0171834Y0200166D01*
X0180165Y0196001D02*
X0176832D01*
X0180165Y0199333D01*
Y0200166D01*
X0179331Y0200999D01*
X0177665D01*
X0176832Y0200166D01*
X01708Y01528D02*
Y0157798D01*
X0173299D01*
X0174132Y0156965D01*
Y0155299D01*
X0173299Y0154466D01*
X01708D01*
X0172466D02*
X0174132Y01528D01*
X0179131D02*
X0175798D01*
X0179131Y0156132D01*
Y0156965D01*
X0178298Y0157798D01*
X0176631D01*
X0175798Y0156965D01*
X0180797Y01528D02*
X0182463D01*
X018163D01*
Y0157798D01*
X0180797Y0156965D01*
X0096336Y0186501D02*
Y0191499D01*
X0098835D01*
X0099668Y0190666D01*
Y0189D01*
X0098835Y0188167D01*
X0096336D01*
X0098002D02*
X0099668Y0186501D01*
X0104666D02*
X0101334D01*
X0104666Y0189833D01*
Y0190666D01*
X0103833Y0191499D01*
X0102167D01*
X0101334Y0190666D01*
X0106332D02*
X0107165Y0191499D01*
X0108831D01*
X0109664Y0190666D01*
Y0187334D01*
X0108831Y0186501D01*
X0107165D01*
X0106332Y0187334D01*
Y0190666D01*
X0143252Y0101501D02*
Y0106499D01*
X0145751D01*
X0146584Y0105666D01*
Y0104D01*
X0145751Y0103167D01*
X0143252D01*
X0144918D02*
X0146584Y0101501D01*
X014825D02*
X0149917D01*
X0149083D01*
Y0106499D01*
X014825Y0105666D01*
X0152416Y0102334D02*
X0153249Y0101501D01*
X0154915D01*
X0155748Y0102334D01*
Y0105666D01*
X0154915Y0106499D01*
X0153249D01*
X0152416Y0105666D01*
Y0104833D01*
X0153249Y0104D01*
X0155748D01*
X0096752Y0141001D02*
Y0145999D01*
X0099251D01*
X0100084Y0145166D01*
Y01435D01*
X0099251Y0142667D01*
X0096752D01*
X0098418D02*
X0100084Y0141001D01*
X010175D02*
X0103417D01*
X0102584D01*
Y0145999D01*
X010175Y0145166D01*
X0105916D02*
X0106749Y0145999D01*
X0108415D01*
X0109248Y0145166D01*
Y0144333D01*
X0108415Y01435D01*
X0109248Y0142667D01*
Y0141834D01*
X0108415Y0141001D01*
X0106749D01*
X0105916Y0141834D01*
Y0142667D01*
X0106749Y01435D01*
X0105916Y0144333D01*
Y0145166D01*
X0106749Y01435D02*
X0108415D01*
X0123252Y0115501D02*
Y0120499D01*
X0125751D01*
X0126584Y0119666D01*
Y0118D01*
X0125751Y0117167D01*
X0123252D01*
X0124918D02*
X0126584Y0115501D01*
X012825D02*
X0129917D01*
X0129084D01*
Y0120499D01*
X012825Y0119666D01*
X0132416Y0120499D02*
X0135748D01*
Y0119666D01*
X0132416Y0116334D01*
Y0115501D01*
X0067752Y0228501D02*
Y0233499D01*
X0070251D01*
X0071084Y0232666D01*
Y0231D01*
X0070251Y0230167D01*
X0067752D01*
X0069418D02*
X0071084Y0228501D01*
X007275D02*
X0074417D01*
X0073584D01*
Y0233499D01*
X007275Y0232666D01*
X0080248Y0233499D02*
X0078582Y0232666D01*
X0076916Y0231D01*
Y0229334D01*
X0077749Y0228501D01*
X0079415D01*
X0080248Y0229334D01*
Y0230167D01*
X0079415Y0231D01*
X0076916D01*
X00218Y01652D02*
Y0170198D01*
X0024299D01*
X0025132Y0169365D01*
Y0167699D01*
X0024299Y0166866D01*
X00218D01*
X0023466D02*
X0025132Y01652D01*
X0026798D02*
X0028464D01*
X0027631D01*
Y0170198D01*
X0026798Y0169365D01*
X0034296Y0170198D02*
X0030964D01*
Y0167699D01*
X003263Y0168532D01*
X0033463D01*
X0034296Y0167699D01*
Y0166033D01*
X0033463Y01652D01*
X0031797D01*
X0030964Y0166033D01*
X0257752Y0152001D02*
Y0156999D01*
X0260251D01*
X0261084Y0156166D01*
Y01545D01*
X0260251Y0153667D01*
X0257752D01*
X0259418D02*
X0261084Y0152001D01*
X026275D02*
X0264417D01*
X0263583D01*
Y0156999D01*
X026275Y0156166D01*
X0269415Y0152001D02*
Y0156999D01*
X0266916Y01545D01*
X0270248D01*
X0220252Y0132001D02*
Y0136999D01*
X0222751D01*
X0223584Y0136166D01*
Y01345D01*
X0222751Y0133667D01*
X0220252D01*
X0221918D02*
X0223584Y0132001D01*
X022525D02*
X0226917D01*
X0226083D01*
Y0136999D01*
X022525Y0136166D01*
X0229416D02*
X0230249Y0136999D01*
X0231915D01*
X0232748Y0136166D01*
Y0135333D01*
X0231915Y01345D01*
X0231082D01*
X0231915D01*
X0232748Y0133667D01*
Y0132834D01*
X0231915Y0132001D01*
X0230249D01*
X0229416Y0132834D01*
X0190752Y0155001D02*
Y0159999D01*
X0193251D01*
X0194084Y0159166D01*
Y01575D01*
X0193251Y0156667D01*
X0190752D01*
X0192418D02*
X0194084Y0155001D01*
X019575D02*
X0197416D01*
X0196583D01*
Y0159999D01*
X019575Y0159166D01*
X0203248Y0155001D02*
X0199916D01*
X0203248Y0158333D01*
Y0159166D01*
X0202415Y0159999D01*
X0200749D01*
X0199916Y0159166D01*
X01844Y01818D02*
Y0186798D01*
X0186899D01*
X0187732Y0185965D01*
Y0184299D01*
X0186899Y0183466D01*
X01844D01*
X0186066D02*
X0187732Y01818D01*
X0189398D02*
X0191065D01*
X0190231D01*
Y0186798D01*
X0189398Y0185965D01*
X0193564Y01818D02*
X019523D01*
X0194397D01*
Y0186798D01*
X0193564Y0185965D01*
X0179252Y0228001D02*
Y0232999D01*
X0181751D01*
X0182584Y0232166D01*
Y02305D01*
X0181751Y0229667D01*
X0179252D01*
X0180918D02*
X0182584Y0228001D01*
X018425D02*
X0185916D01*
X0185083D01*
Y0232999D01*
X018425Y0232166D01*
X0188416D02*
X0189249Y0232999D01*
X0190915D01*
X0191748Y0232166D01*
Y0228834D01*
X0190915Y0228001D01*
X0189249D01*
X0188416Y0228834D01*
Y0232166D01*
X0083835Y0229001D02*
Y0233999D01*
X0086334D01*
X0087167Y0233166D01*
Y02315D01*
X0086334Y0230667D01*
X0083835D01*
X0085501D02*
X0087167Y0229001D01*
X0088833Y0229834D02*
X0089666Y0229001D01*
X0091332D01*
X0092165Y0229834D01*
Y0233166D01*
X0091332Y0233999D01*
X0089666D01*
X0088833Y0233166D01*
Y0232333D01*
X0089666Y02315D01*
X0092165D01*
X0173335Y0284001D02*
Y0288999D01*
X0175834D01*
X0176667Y0288166D01*
Y02865D01*
X0175834Y0285667D01*
X0173335D01*
X0175001D02*
X0176667Y0284001D01*
X0178333Y0288166D02*
X0179166Y0288999D01*
X0180832D01*
X0181665Y0288166D01*
Y0287333D01*
X0180832Y02865D01*
X0181665Y0285667D01*
Y0284834D01*
X0180832Y0284001D01*
X0179166D01*
X0178333Y0284834D01*
Y0285667D01*
X0179166Y02865D01*
X0178333Y0287333D01*
Y0288166D01*
X0179166Y02865D02*
X0180832D01*
X0172835Y0239001D02*
Y0243999D01*
X0175334D01*
X0176167Y0243166D01*
Y02415D01*
X0175334Y0240667D01*
X0172835D01*
X0174501D02*
X0176167Y0239001D01*
X0177833Y0243999D02*
X0181165D01*
Y0243166D01*
X0177833Y0239834D01*
Y0239001D01*
X0100335Y0273501D02*
Y0278499D01*
X0102834D01*
X0103667Y0277666D01*
Y0276D01*
X0102834Y0275167D01*
X0100335D01*
X0102001D02*
X0103667Y0273501D01*
X0108665Y0278499D02*
X0106999Y0277666D01*
X0105333Y0276D01*
Y0274334D01*
X0106166Y0273501D01*
X0107832D01*
X0108665Y0274334D01*
Y0275167D01*
X0107832Y0276D01*
X0105333D01*
X0159335Y0205001D02*
Y0209999D01*
X0161834D01*
X0162667Y0209166D01*
Y02075D01*
X0161834Y0206667D01*
X0159335D01*
X0161001D02*
X0162667Y0205001D01*
X0167665Y0209999D02*
X0164333D01*
Y02075D01*
X0165999Y0208333D01*
X0166832D01*
X0167665Y02075D01*
Y0205834D01*
X0166832Y0205001D01*
X0165166D01*
X0164333Y0205834D01*
X0099835Y0229001D02*
Y0233999D01*
X0102334D01*
X0103167Y0233166D01*
Y02315D01*
X0102334Y0230667D01*
X0099835D01*
X0101501D02*
X0103167Y0229001D01*
X0107332D02*
Y0233999D01*
X0104833Y02315D01*
X0108165D01*
X0122835Y0201001D02*
Y0205999D01*
X0125334D01*
X0126167Y0205166D01*
Y02035D01*
X0125334Y0202667D01*
X0122835D01*
X0124501D02*
X0126167Y0201001D01*
X0127833Y0205166D02*
X0128666Y0205999D01*
X0130332D01*
X0131165Y0205166D01*
Y0204333D01*
X0130332Y02035D01*
X0129499D01*
X0130332D01*
X0131165Y0202667D01*
Y0201834D01*
X0130332Y0201001D01*
X0128666D01*
X0127833Y0201834D01*
X0067835Y0248501D02*
Y0253499D01*
X0070334D01*
X0071167Y0252666D01*
Y0251D01*
X0070334Y0250167D01*
X0067835D01*
X0069501D02*
X0071167Y0248501D01*
X0076165D02*
X0072833D01*
X0076165Y0251833D01*
Y0252666D01*
X0075332Y0253499D01*
X0073666D01*
X0072833Y0252666D01*
X00218Y01446D02*
Y0149598D01*
X0024299D01*
X0025132Y0148765D01*
Y0147099D01*
X0024299Y0146266D01*
X00218D01*
X0023466D02*
X0025132Y01446D01*
X0026798D02*
X0028464D01*
X0027631D01*
Y0149598D01*
X0026798Y0148765D01*
X0294835Y0166499D02*
X0293169D01*
X0292336Y0165666D01*
Y0162334D01*
X0293169Y0161501D01*
X0294835D01*
X0295668Y0162334D01*
Y0165666D01*
X0294835Y0166499D01*
X0297334D02*
Y0162334D01*
X0298167Y0161501D01*
X0299833D01*
X0300666Y0162334D01*
Y0166499D01*
X0302332D02*
X0305664D01*
X0303998D01*
Y0161501D01*
X03154Y02471D02*
Y0252098D01*
X0317899D01*
X0318732Y0251265D01*
Y0249599D01*
X0317899Y0248766D01*
X03154D01*
X0320398Y02471D02*
X0322064D01*
X0321231D01*
Y0252098D01*
X0320398Y0251265D01*
X0219669Y0036999D02*
Y0032001D01*
X0223002D01*
X0228Y0036999D02*
X0224668D01*
Y0032001D01*
X0228D01*
X0224668Y00345D02*
X0226334D01*
X0229666Y0036999D02*
Y0032001D01*
X0232165D01*
X0232998Y0032834D01*
Y0036166D01*
X0232165Y0036999D01*
X0229666D01*
X0234665Y0032001D02*
X0236331D01*
X0235498D01*
Y0036999D01*
X0234665Y0036166D01*
X02022Y0121798D02*
Y01168D01*
X0204699D01*
X0205532Y0117633D01*
Y0120965D01*
X0204699Y0121798D01*
X02022D01*
X0207198Y0120965D02*
X0208031Y0121798D01*
X0209698D01*
X0210531Y0120965D01*
Y0120132D01*
X0209698Y0119299D01*
X0208864D01*
X0209698D01*
X0210531Y0118466D01*
Y0117633D01*
X0209698Y01168D01*
X0208031D01*
X0207198Y0117633D01*
X0263835Y0134499D02*
Y0129501D01*
X0266334D01*
X0267167Y0130334D01*
Y0133666D01*
X0266334Y0134499D01*
X0263835D01*
X0272165Y0129501D02*
X0268833D01*
X0272165Y0132833D01*
Y0133666D01*
X0271332Y0134499D01*
X0269666D01*
X0268833Y0133666D01*
X0201668Y0230499D02*
Y0225501D01*
X0204167D01*
X0205Y0226334D01*
Y0229666D01*
X0204167Y0230499D01*
X0201668D01*
X0206666Y0225501D02*
X0208332D01*
X0207499D01*
Y0230499D01*
X0206666Y0229666D01*
X0080084Y0055666D02*
X0079251Y0056499D01*
X0077585D01*
X0076752Y0055666D01*
Y0052334D01*
X0077585Y0051501D01*
X0079251D01*
X0080084Y0052334D01*
X008175Y0051501D02*
X0083416D01*
X0082583D01*
Y0056499D01*
X008175Y0055666D01*
X0089248Y0051501D02*
X0085916D01*
X0089248Y0054833D01*
Y0055666D01*
X0088415Y0056499D01*
X0086749D01*
X0085916Y0055666D01*
X0187632Y0086565D02*
X0186799Y0087398D01*
X0185133D01*
X01843Y0086565D01*
Y0083233D01*
X0185133Y00824D01*
X0186799D01*
X0187632Y0083233D01*
X0189298Y00824D02*
X0190964D01*
X0190131D01*
Y0087398D01*
X0189298Y0086565D01*
X0193464Y00824D02*
X019513D01*
X0194297D01*
Y0087398D01*
X0193464Y0086565D01*
X0114084Y0056666D02*
X0113251Y0057499D01*
X0111585D01*
X0110752Y0056666D01*
Y0053334D01*
X0111585Y0052501D01*
X0113251D01*
X0114084Y0053334D01*
X011575Y0052501D02*
X0117417D01*
X0116584D01*
Y0057499D01*
X011575Y0056666D01*
X0119916D02*
X0120749Y0057499D01*
X0122415D01*
X0123248Y0056666D01*
Y0053334D01*
X0122415Y0052501D01*
X0120749D01*
X0119916Y0053334D01*
Y0056666D01*
X0069167Y0202666D02*
X0068334Y0203499D01*
X0066668D01*
X0065835Y0202666D01*
Y0199334D01*
X0066668Y0198501D01*
X0068334D01*
X0069167Y0199334D01*
X0070833D02*
X0071666Y0198501D01*
X0073332D01*
X0074165Y0199334D01*
Y0202666D01*
X0073332Y0203499D01*
X0071666D01*
X0070833Y0202666D01*
Y0201833D01*
X0071666Y0201D01*
X0074165D01*
X0086167Y0187166D02*
X0085334Y0187999D01*
X0083668D01*
X0082835Y0187166D01*
Y0183834D01*
X0083668Y0183001D01*
X0085334D01*
X0086167Y0183834D01*
X0087833Y0187166D02*
X0088666Y0187999D01*
X0090332D01*
X0091165Y0187166D01*
Y0186333D01*
X0090332Y01855D01*
X0091165Y0184667D01*
Y0183834D01*
X0090332Y0183001D01*
X0088666D01*
X0087833Y0183834D01*
Y0184667D01*
X0088666Y01855D01*
X0087833Y0186333D01*
Y0187166D01*
X0088666Y01855D02*
X0090332D01*
X0200167Y0143166D02*
X0199334Y0143999D01*
X0197668D01*
X0196835Y0143166D01*
Y0139834D01*
X0197668Y0139001D01*
X0199334D01*
X0200167Y0139834D01*
X0201833Y0143999D02*
X0205165D01*
Y0143166D01*
X0201833Y0139834D01*
Y0139001D01*
X0116167Y0186666D02*
X0115334Y0187499D01*
X0113668D01*
X0112835Y0186666D01*
Y0183334D01*
X0113668Y0182501D01*
X0115334D01*
X0116167Y0183334D01*
X0121165Y0187499D02*
X0119499Y0186666D01*
X0117833Y0185D01*
Y0183334D01*
X0118666Y0182501D01*
X0120332D01*
X0121165Y0183334D01*
Y0184167D01*
X0120332Y0185D01*
X0117833D01*
X0069167Y0222666D02*
X0068334Y0223499D01*
X0066668D01*
X0065835Y0222666D01*
Y0219334D01*
X0066668Y0218501D01*
X0068334D01*
X0069167Y0219334D01*
X0074165Y0223499D02*
X0070833D01*
Y0221D01*
X0072499Y0221833D01*
X0073332D01*
X0074165Y0221D01*
Y0219334D01*
X0073332Y0218501D01*
X0071666D01*
X0070833Y0219334D01*
X0087167Y0272666D02*
X0086334Y0273499D01*
X0084668D01*
X0083835Y0272666D01*
Y0269334D01*
X0084668Y0268501D01*
X0086334D01*
X0087167Y0269334D01*
X0091332Y0268501D02*
Y0273499D01*
X0088833Y0271D01*
X0092165D01*
X0196667Y0265166D02*
X0195834Y0265999D01*
X0194168D01*
X0193335Y0265166D01*
Y0261834D01*
X0194168Y0261001D01*
X0195834D01*
X0196667Y0261834D01*
X0198333Y0265166D02*
X0199166Y0265999D01*
X0200832D01*
X0201665Y0265166D01*
Y0264333D01*
X0200832Y02635D01*
X0199999D01*
X0200832D01*
X0201665Y0262667D01*
Y0261834D01*
X0200832Y0261001D01*
X0199166D01*
X0198333Y0261834D01*
X0117667Y0276166D02*
X0116834Y0276999D01*
X0115168D01*
X0114335Y0276166D01*
Y0272834D01*
X0115168Y0272001D01*
X0116834D01*
X0117667Y0272834D01*
X0122665Y0272001D02*
X0119333D01*
X0122665Y0275333D01*
Y0276166D01*
X0121832Y0276999D01*
X0120166D01*
X0119333Y0276166D01*
X007Y0242666D02*
X0069167Y0243499D01*
X0067501D01*
X0066668Y0242666D01*
Y0239334D01*
X0067501Y0238501D01*
X0069167D01*
X007Y0239334D01*
X0071666Y0238501D02*
X0073332D01*
X0072499D01*
Y0243499D01*
X0071666Y0242666D01*
D17*
X0051994Y0115D02*
X0032D01*
Y0101671D01*
X0051994Y0095007D02*
X0032D01*
Y008501D01*
X0035332Y0081677D01*
X0038664D01*
X0041997Y008501D01*
Y0095007D01*
Y008501D01*
X0045329Y0081677D01*
X0048661D01*
X0051994Y008501D01*
Y0095007D01*
Y0065016D02*
Y0071681D01*
X0048661Y0075013D01*
X0035332D01*
X0032Y0071681D01*
Y0065016D01*
X0035332Y0061684D01*
X0048661D01*
X0051994Y0065016D01*
X0032Y0055019D02*
X0051994D01*
Y0045023D01*
X0048661Y004169D01*
X0041997D01*
X0038664Y0045023D01*
Y0055019D01*
Y0048355D02*
X0032Y004169D01*
X0051994Y0025029D02*
Y0031694D01*
X0048661Y0035026D01*
X0035332D01*
X0032Y0031694D01*
Y0025029D01*
X0035332Y0021697D01*
X0048661D01*
X0051994Y0025029D01*
M02*
