%TF.GenerationSoftware,Altium Limited,Altium Designer,23.3.1 (30)*%
G04 Layer_Color=32768*
%FSLAX26Y26*%
%MOIN*%
%TF.SameCoordinates,8F501EFE-F143-482A-9327-88418F9FCBED*%
%TF.FilePolarity,Positive*%
%TF.FileFunction,Other,Top_Courtyard*%
%TF.Part,Single*%
G01*
G75*
%TA.AperFunction,NonConductor*%
%ADD34C,0.007874*%
%ADD57C,0.001968*%
D34*
X2630945Y1784252D02*
X2749055D01*
X2630945Y1365748D02*
Y1784252D01*
Y1365748D02*
X2749055D01*
Y1784252D01*
X1960945Y1815551D02*
X2079055D01*
Y2234055D01*
X1960945D02*
X2079055D01*
X1960945Y1815551D02*
Y2234055D01*
X1676457Y2528622D02*
Y2731772D01*
X1283543Y2528622D02*
X1676457D01*
X1283543D02*
Y2731772D01*
X1676457D01*
X1278543Y931772D02*
X1671457D01*
X1278543Y728622D02*
Y931772D01*
Y728622D02*
X1671457D01*
Y931772D01*
X1278543Y1851772D02*
X1671457D01*
X1278543Y1648622D02*
Y1851772D01*
Y1648622D02*
X1671457D01*
Y1851772D01*
X2134055Y715551D02*
Y1134055D01*
X2015945Y715551D02*
X2134055D01*
X2015945D02*
Y1134055D01*
X2134055D01*
D57*
X2196614Y1198622D02*
X2573386D01*
X2196614Y801378D02*
X2573386D01*
Y1198622D01*
X2196614Y801378D02*
Y1198622D01*
X2191614Y1998622D02*
X2568386D01*
X2191614Y1601378D02*
X2568386D01*
Y1998622D01*
X2191614Y1601378D02*
Y1998622D01*
X1266614Y301378D02*
Y698622D01*
X1643386Y301378D02*
Y698622D01*
X1266614Y301378D02*
X1643386D01*
X1266614Y698622D02*
X1643386D01*
X1266614Y1212878D02*
Y1610122D01*
X1643386Y1212878D02*
Y1610122D01*
X1266614Y1212878D02*
X1643386D01*
X1266614Y1610122D02*
X1643386D01*
X1266614Y2096378D02*
Y2493622D01*
X1643386Y2096378D02*
Y2493622D01*
X1266614Y2096378D02*
X1643386D01*
X1266614Y2493622D02*
X1643386D01*
%TF.MD5,044d03bf0946fd27a9495fe4b4bbd4a3*%
M02*
