%TF.GenerationSoftware,Altium Limited,Altium Designer,23.3.1 (30)*%
G04 Layer_Color=255*
%FSLAX26Y26*%
%MOIN*%
%TF.SameCoordinates,8F501EFE-F143-482A-9327-88418F9FCBED*%
%TF.FilePolarity,Positive*%
%TF.FileFunction,Pads,Top*%
%TF.Part,Single*%
G01*
G75*
%TA.AperFunction,ComponentPad*%
%ADD13O,0.075000X0.090000*%
%ADD14R,0.075000X0.090000*%
%ADD15C,0.070000*%
%ADD16C,0.065000*%
%ADD17R,0.044488X0.044488*%
%ADD18C,0.044488*%
%ADD19O,0.065000X0.100000*%
%ADD20R,0.065000X0.100000*%
%ADD21C,0.075000*%
%ADD22O,0.075000X0.065000*%
%ADD23C,0.061024*%
%ADD24R,0.061024X0.061024*%
%ADD25R,0.047244X0.047244*%
%ADD26C,0.047244*%
%ADD27O,0.085000X0.065000*%
%ADD28R,0.085000X0.065000*%
%ADD29R,0.078740X0.062992*%
%ADD30O,0.078740X0.062992*%
D13*
X3010000Y2670000D02*
D03*
X2910000D02*
D03*
X2810000Y2205000D02*
D03*
X2910000D02*
D03*
X3010000D02*
D03*
D14*
X2805000Y2670000D02*
D03*
X2710000Y2205000D02*
D03*
D15*
X2120000Y1340000D02*
D03*
Y1540000D02*
D03*
X880000Y1561500D02*
D03*
Y1761500D02*
D03*
X1170000Y650000D02*
D03*
Y850000D02*
D03*
X880000Y630000D02*
D03*
Y830000D02*
D03*
X1970000Y2545000D02*
D03*
Y2345000D02*
D03*
X1170000Y2450000D02*
D03*
Y2650000D02*
D03*
X880000Y2420000D02*
D03*
Y2620000D02*
D03*
X1170000Y1761500D02*
D03*
Y1561500D02*
D03*
X600000Y2010000D02*
D03*
X400000D02*
D03*
X600000Y2210000D02*
D03*
X400000D02*
D03*
X600000Y2410000D02*
D03*
X400000D02*
D03*
X1880000Y550000D02*
D03*
Y750000D02*
D03*
D16*
X1735000Y1915000D02*
D03*
Y1665000D02*
D03*
X880000Y1111500D02*
D03*
Y1361500D02*
D03*
X1035000Y1535000D02*
D03*
Y1785000D02*
D03*
Y200000D02*
D03*
Y450000D02*
D03*
X880000Y200000D02*
D03*
Y450000D02*
D03*
X1040000Y630000D02*
D03*
Y880000D02*
D03*
X1735000Y1000000D02*
D03*
Y750000D02*
D03*
Y550000D02*
D03*
Y300000D02*
D03*
X2723701Y595000D02*
D03*
X2473701D02*
D03*
X2223701Y725000D02*
D03*
X2473701D02*
D03*
X2075000Y645000D02*
D03*
Y395000D02*
D03*
X2365000Y245000D02*
D03*
X2115000D02*
D03*
X2870000Y440000D02*
D03*
Y190000D02*
D03*
X2670000Y1150000D02*
D03*
Y900000D02*
D03*
X2805000Y1150000D02*
D03*
Y900000D02*
D03*
X2525000Y2515000D02*
D03*
X2275000D02*
D03*
X2525000Y2385000D02*
D03*
X2275000D02*
D03*
Y2250000D02*
D03*
X2525000D02*
D03*
X2275000Y2130000D02*
D03*
X2525000D02*
D03*
X1870000Y2235000D02*
D03*
Y1985000D02*
D03*
X1735000Y2345000D02*
D03*
Y2095000D02*
D03*
X880000Y1995000D02*
D03*
Y2245000D02*
D03*
X1735000Y2795000D02*
D03*
Y2545000D02*
D03*
X2920000Y1850000D02*
D03*
X2670000D02*
D03*
X495000Y1380000D02*
D03*
X245000D02*
D03*
X1170000Y450000D02*
D03*
Y200000D02*
D03*
X2510000Y1430000D02*
D03*
X2260000D02*
D03*
X1035000Y1361500D02*
D03*
Y1111500D02*
D03*
X1361299Y1125000D02*
D03*
X1611299D02*
D03*
X2260000Y1545000D02*
D03*
X2510000D02*
D03*
X1870000Y1650000D02*
D03*
X2120000D02*
D03*
X1870000Y1750000D02*
D03*
X2120000D02*
D03*
X1170000Y1361500D02*
D03*
Y1111500D02*
D03*
X1035000Y2670000D02*
D03*
Y2420000D02*
D03*
X1361299Y1995000D02*
D03*
X1611299D02*
D03*
X1035000Y2245000D02*
D03*
Y1995000D02*
D03*
X1170000Y2245000D02*
D03*
Y1995000D02*
D03*
X375000Y2110000D02*
D03*
X625000D02*
D03*
X375000Y2310000D02*
D03*
X625000D02*
D03*
X375000Y2510000D02*
D03*
X625000D02*
D03*
X1735000Y1211500D02*
D03*
Y1461500D02*
D03*
X495000Y1585000D02*
D03*
X245000D02*
D03*
X1361299Y225000D02*
D03*
X1611299D02*
D03*
X495000Y1795000D02*
D03*
X245000D02*
D03*
X2820000Y725000D02*
D03*
X2570000D02*
D03*
D17*
X2228701Y1150000D02*
D03*
X2223701Y1950000D02*
D03*
X1298701Y650000D02*
D03*
Y1561500D02*
D03*
Y2445000D02*
D03*
D18*
X2228701Y1050000D02*
D03*
Y950000D02*
D03*
Y850000D02*
D03*
X2541299D02*
D03*
Y950000D02*
D03*
Y1050000D02*
D03*
Y1150000D02*
D03*
X2223701Y1850000D02*
D03*
Y1750000D02*
D03*
Y1650000D02*
D03*
X2536299D02*
D03*
Y1750000D02*
D03*
Y1850000D02*
D03*
Y1950000D02*
D03*
X1611299Y650000D02*
D03*
Y550000D02*
D03*
Y450000D02*
D03*
Y350000D02*
D03*
X1298701D02*
D03*
Y450000D02*
D03*
Y550000D02*
D03*
X1611299Y1561500D02*
D03*
Y1461500D02*
D03*
Y1361500D02*
D03*
Y1261500D02*
D03*
X1298701D02*
D03*
Y1361500D02*
D03*
Y1461500D02*
D03*
X1611299Y2445000D02*
D03*
Y2345000D02*
D03*
Y2245000D02*
D03*
Y2145000D02*
D03*
X1298701D02*
D03*
Y2245000D02*
D03*
Y2345000D02*
D03*
D19*
X2225000Y515000D02*
D03*
D20*
X2335000D02*
D03*
D21*
X2485000Y440000D02*
D03*
X2735000Y240000D02*
D03*
Y440000D02*
D03*
X2485000Y240000D02*
D03*
D22*
X2990000Y1346000D02*
D03*
Y1444000D02*
D03*
Y1545000D02*
D03*
D23*
X2690000Y1400197D02*
D03*
X2020000Y2199606D02*
D03*
X2075000Y750000D02*
D03*
D24*
X2690000Y1749803D02*
D03*
X2020000Y1850000D02*
D03*
X2075000Y1099606D02*
D03*
D25*
X1380000Y2630000D02*
D03*
X1375000Y830000D02*
D03*
Y1750000D02*
D03*
D26*
X1480000Y2630000D02*
D03*
X1580000D02*
D03*
X1575000Y830000D02*
D03*
X1475000D02*
D03*
X1575000Y1750000D02*
D03*
X1475000D02*
D03*
D27*
X235000Y2110000D02*
D03*
Y2410000D02*
D03*
Y2310000D02*
D03*
Y2210000D02*
D03*
Y2010000D02*
D03*
D28*
Y2510000D02*
D03*
D29*
X3200000Y2385000D02*
D03*
D30*
X3300000D02*
D03*
X3200000Y2285000D02*
D03*
X3300000D02*
D03*
X3200000Y2185000D02*
D03*
X3300000D02*
D03*
X3200000Y2085000D02*
D03*
X3300000D02*
D03*
X3200000Y1985000D02*
D03*
X3300000D02*
D03*
X3200000Y1885000D02*
D03*
X3300000D02*
D03*
X3200000Y1785000D02*
D03*
X3300000D02*
D03*
X3200000Y1685000D02*
D03*
X3300000D02*
D03*
X3200000Y1585000D02*
D03*
X3300000D02*
D03*
X3200000Y1485000D02*
D03*
X3300000D02*
D03*
X3200000Y1385000D02*
D03*
X3300000D02*
D03*
X3200000Y1285000D02*
D03*
X3300000D02*
D03*
X3200000Y1185000D02*
D03*
X3300000D02*
D03*
X3200000Y1085000D02*
D03*
X3300000D02*
D03*
X3200000Y985000D02*
D03*
X3300000D02*
D03*
X3200000Y885000D02*
D03*
X3300000D02*
D03*
X3200000Y785000D02*
D03*
X3300000D02*
D03*
X3200000Y685000D02*
D03*
X3300000D02*
D03*
X3200000Y585000D02*
D03*
X3300000D02*
D03*
X3200000Y485000D02*
D03*
X3300000D02*
D03*
%TF.MD5,b31c340740dcd25f7a2075f026203ca4*%
M02*
