G04*
G04 #@! TF.GenerationSoftware,Altium Limited,Altium Designer,23.3.1 (30)*
G04*
G04 Layer_Color=255*
%FSTAX25Y25*%
%MOIN*%
G70*
G04*
G04 #@! TF.SameCoordinates,9A05AFE5-7EB6-4EC5-A0C1-68252A558CAD*
G04*
G04*
G04 #@! TF.FilePolarity,Positive*
G04*
G01*
G75*
%ADD28C,0.06102*%
%ADD29R,0.06102X0.06102*%
%ADD30R,0.04724X0.04724*%
%ADD31C,0.04724*%
%ADD41O,0.07500X0.09000*%
%ADD42R,0.07500X0.09000*%
%ADD43C,0.07000*%
%ADD44C,0.06500*%
%ADD45R,0.04449X0.04449*%
%ADD46C,0.04449*%
%ADD47O,0.06500X0.10000*%
%ADD48R,0.06500X0.10000*%
%ADD49C,0.07500*%
%ADD50O,0.07500X0.06500*%
%ADD51O,0.08500X0.06500*%
%ADD52R,0.08500X0.06500*%
%ADD53R,0.07874X0.06299*%
%ADD54O,0.07874X0.06299*%
D28*
X0269Y014002D02*
D03*
X0202Y0219961D02*
D03*
X02075Y0075D02*
D03*
D29*
X0269Y017498D02*
D03*
X0202Y0185D02*
D03*
X02075Y0109961D02*
D03*
D30*
X0138Y0263D02*
D03*
X01375Y0083D02*
D03*
Y0175D02*
D03*
D31*
X0148Y0263D02*
D03*
X0158D02*
D03*
X01575Y0083D02*
D03*
X01475D02*
D03*
X01575Y0175D02*
D03*
X01475D02*
D03*
D41*
X0301Y0267D02*
D03*
X0291D02*
D03*
X0281Y02205D02*
D03*
X0291D02*
D03*
X0301D02*
D03*
D42*
X02805Y0267D02*
D03*
X0271Y02205D02*
D03*
D43*
X0212Y0134D02*
D03*
Y0154D02*
D03*
X0088Y015615D02*
D03*
Y017615D02*
D03*
X0117Y0065D02*
D03*
Y0085D02*
D03*
X0088Y0063D02*
D03*
Y0083D02*
D03*
X0197Y02545D02*
D03*
Y02345D02*
D03*
X0117Y0245D02*
D03*
Y0265D02*
D03*
X0088Y0242D02*
D03*
Y0262D02*
D03*
X0117Y017615D02*
D03*
Y015615D02*
D03*
X006Y0201D02*
D03*
X004D02*
D03*
X006Y0221D02*
D03*
X004D02*
D03*
X006Y0241D02*
D03*
X004D02*
D03*
X0188Y0055D02*
D03*
Y0075D02*
D03*
D44*
X01735Y01915D02*
D03*
Y01665D02*
D03*
X0088Y011115D02*
D03*
Y013615D02*
D03*
X01035Y01535D02*
D03*
Y01785D02*
D03*
Y002D02*
D03*
Y0045D02*
D03*
X0088Y002D02*
D03*
Y0045D02*
D03*
X0104Y0063D02*
D03*
Y0088D02*
D03*
X01735Y01D02*
D03*
Y0075D02*
D03*
Y0055D02*
D03*
Y003D02*
D03*
X027237Y00595D02*
D03*
X024737D02*
D03*
X022237Y00725D02*
D03*
X024737D02*
D03*
X02075Y00645D02*
D03*
Y00395D02*
D03*
X02365Y00245D02*
D03*
X02115D02*
D03*
X0287Y0044D02*
D03*
Y0019D02*
D03*
X0267Y0115D02*
D03*
Y009D02*
D03*
X02805Y0115D02*
D03*
Y009D02*
D03*
X02525Y02515D02*
D03*
X02275D02*
D03*
X02525Y02385D02*
D03*
X02275D02*
D03*
Y0225D02*
D03*
X02525D02*
D03*
X02275Y0213D02*
D03*
X02525D02*
D03*
X0187Y02235D02*
D03*
Y01985D02*
D03*
X01735Y02345D02*
D03*
Y02095D02*
D03*
X0088Y01995D02*
D03*
Y02245D02*
D03*
X01735Y02795D02*
D03*
Y02545D02*
D03*
X0292Y0185D02*
D03*
X0267D02*
D03*
X00495Y0138D02*
D03*
X00245D02*
D03*
X0117Y0045D02*
D03*
Y002D02*
D03*
X0251Y0143D02*
D03*
X0226D02*
D03*
X01035Y013615D02*
D03*
Y011115D02*
D03*
X013613Y01125D02*
D03*
X016113D02*
D03*
X0226Y01545D02*
D03*
X0251D02*
D03*
X0187Y0165D02*
D03*
X0212D02*
D03*
X0187Y0175D02*
D03*
X0212D02*
D03*
X0117Y013615D02*
D03*
Y011115D02*
D03*
X01035Y0267D02*
D03*
Y0242D02*
D03*
X013613Y01995D02*
D03*
X016113D02*
D03*
X01035Y02245D02*
D03*
Y01995D02*
D03*
X0117Y02245D02*
D03*
Y01995D02*
D03*
X00375Y0211D02*
D03*
X00625D02*
D03*
X00375Y0231D02*
D03*
X00625D02*
D03*
X00375Y0251D02*
D03*
X00625D02*
D03*
X01735Y012115D02*
D03*
Y014615D02*
D03*
X00495Y01585D02*
D03*
X00245D02*
D03*
X013613Y00225D02*
D03*
X016113D02*
D03*
X00495Y01795D02*
D03*
X00245D02*
D03*
X0282Y00725D02*
D03*
X0257D02*
D03*
D45*
X022287Y0115D02*
D03*
X022237Y0195D02*
D03*
X012987Y0065D02*
D03*
Y015615D02*
D03*
Y02445D02*
D03*
D46*
X022287Y0105D02*
D03*
Y0095D02*
D03*
Y0085D02*
D03*
X025413D02*
D03*
Y0095D02*
D03*
Y0105D02*
D03*
Y0115D02*
D03*
X022237Y0185D02*
D03*
Y0175D02*
D03*
Y0165D02*
D03*
X025363D02*
D03*
Y0175D02*
D03*
Y0185D02*
D03*
Y0195D02*
D03*
X016113Y0065D02*
D03*
Y0055D02*
D03*
Y0045D02*
D03*
Y0035D02*
D03*
X012987D02*
D03*
Y0045D02*
D03*
Y0055D02*
D03*
X016113Y015615D02*
D03*
Y014615D02*
D03*
Y013615D02*
D03*
Y012615D02*
D03*
X012987D02*
D03*
Y013615D02*
D03*
Y014615D02*
D03*
X016113Y02445D02*
D03*
Y02345D02*
D03*
Y02245D02*
D03*
Y02145D02*
D03*
X012987D02*
D03*
Y02245D02*
D03*
Y02345D02*
D03*
D47*
X02225Y00515D02*
D03*
D48*
X02335D02*
D03*
D49*
X02485Y0044D02*
D03*
X02735Y0024D02*
D03*
Y0044D02*
D03*
X02485Y0024D02*
D03*
D50*
X0299Y01346D02*
D03*
Y01444D02*
D03*
Y01545D02*
D03*
D51*
X00235Y0211D02*
D03*
Y0241D02*
D03*
Y0231D02*
D03*
Y0221D02*
D03*
Y0201D02*
D03*
D52*
Y0251D02*
D03*
D53*
X032Y02385D02*
D03*
D54*
X033D02*
D03*
X032Y02285D02*
D03*
X033D02*
D03*
X032Y02185D02*
D03*
X033D02*
D03*
X032Y02085D02*
D03*
X033D02*
D03*
X032Y01985D02*
D03*
X033D02*
D03*
X032Y01885D02*
D03*
X033D02*
D03*
X032Y01785D02*
D03*
X033D02*
D03*
X032Y01685D02*
D03*
X033D02*
D03*
X032Y01585D02*
D03*
X033D02*
D03*
X032Y01485D02*
D03*
X033D02*
D03*
X032Y01385D02*
D03*
X033D02*
D03*
X032Y01285D02*
D03*
X033D02*
D03*
X032Y01185D02*
D03*
X033D02*
D03*
X032Y01085D02*
D03*
X033D02*
D03*
X032Y00985D02*
D03*
X033D02*
D03*
X032Y00885D02*
D03*
X033D02*
D03*
X032Y00785D02*
D03*
X033D02*
D03*
X032Y00685D02*
D03*
X033D02*
D03*
X032Y00585D02*
D03*
X033D02*
D03*
X032Y00485D02*
D03*
X033D02*
D03*
M02*
