G04*
G04 #@! TF.GenerationSoftware,Altium Limited,Altium Designer,23.3.1 (30)*
G04*
G04 Layer_Color=2752767*
%FSTAX25Y25*%
%MOIN*%
G70*
G04*
G04 #@! TF.SameCoordinates,9A05AFE5-7EB6-4EC5-A0C1-68252A558CAD*
G04*
G04*
G04 #@! TF.FilePolarity,Positive*
G04*
G01*
G75*
%ADD14C,0.00500*%
%ADD59C,0.00667*%
D14*
X0299Y0265D02*
X03Y0267D01*
X0299Y0269D01*
X0301Y0268D01*
X0303Y0269D01*
X0302Y0267D01*
X0303Y0265D01*
X0301Y0266D01*
X0299Y0265D01*
X0289D02*
X029Y0267D01*
X0289Y0269D01*
X0291Y0268D01*
X0293Y0269D01*
X0292Y0267D01*
X0293Y0265D01*
X0291Y0266D01*
X0289Y0265D01*
X02785D02*
X02795Y0267D01*
X02785Y0269D01*
X02805Y0268D01*
X02825Y0269D01*
X02815Y0267D01*
X02825Y0265D01*
X02805Y0266D01*
X02785Y0265D01*
X0212Y0132D02*
X021Y0136D01*
X0214D01*
X0212Y0132D01*
Y0152D02*
X021Y0156D01*
X0214D01*
X0212Y0152D01*
X01715Y01895D02*
Y01935D01*
X01755D01*
Y01895D01*
X01715D01*
Y01645D02*
Y01685D01*
X01755D01*
Y01645D01*
X01715D01*
X0086Y010915D02*
Y011315D01*
X009D01*
Y010915D01*
X0086D01*
Y013415D02*
Y013815D01*
X009D01*
Y013415D01*
X0086D01*
X0088Y015415D02*
X0086Y015815D01*
X009D01*
X0088Y015415D01*
Y017415D02*
X0086Y017815D01*
X009D01*
X0088Y017415D01*
X01015Y01515D02*
Y01555D01*
X01055D01*
Y01515D01*
X01015D01*
Y01765D02*
Y01805D01*
X01055D01*
Y01765D01*
X01015D01*
Y0018D02*
Y0022D01*
X01055D01*
Y0018D01*
X01015D01*
Y0043D02*
Y0047D01*
X01055D01*
Y0043D01*
X01015D01*
X0086Y0018D02*
Y0022D01*
X009D01*
Y0018D01*
X0086D01*
Y0043D02*
Y0047D01*
X009D01*
Y0043D01*
X0086D01*
X0117Y0063D02*
X0115Y0067D01*
X0119D01*
X0117Y0063D01*
Y0083D02*
X0115Y0087D01*
X0119D01*
X0117Y0083D01*
X0088Y0061D02*
X0086Y0065D01*
X009D01*
X0088Y0061D01*
Y0081D02*
X0086Y0085D01*
X009D01*
X0088Y0081D01*
X0102Y0061D02*
Y0065D01*
X0106D01*
Y0061D01*
X0102D01*
Y0086D02*
Y009D01*
X0106D01*
Y0086D01*
X0102D01*
X01715Y0098D02*
Y0102D01*
X01755D01*
Y0098D01*
X01715D01*
Y0073D02*
Y0077D01*
X01755D01*
Y0073D01*
X01715D01*
Y0053D02*
Y0057D01*
X01755D01*
Y0053D01*
X01715D01*
Y0028D02*
Y0032D01*
X01755D01*
Y0028D01*
X01715D01*
X027037Y00575D02*
Y00615D01*
X027437D01*
Y00575D01*
X027037D01*
X024537D02*
Y00615D01*
X024937D01*
Y00575D01*
X024537D01*
X022037Y00705D02*
Y00745D01*
X022437D01*
Y00705D01*
X022037D01*
X024537D02*
Y00745D01*
X024937D01*
Y00705D01*
X024537D01*
X022187Y0114D02*
Y0113D01*
X022387D01*
Y0114D01*
X022487D01*
Y0116D01*
X022387D01*
Y0117D01*
X022187D01*
Y0116D01*
X022087D01*
Y0114D01*
X022187D01*
Y0104D02*
Y0103D01*
X022387D01*
Y0104D01*
X022487D01*
Y0106D01*
X022387D01*
Y0107D01*
X022187D01*
Y0106D01*
X022087D01*
Y0104D01*
X022187D01*
Y0094D02*
Y0093D01*
X022387D01*
Y0094D01*
X022487D01*
Y0096D01*
X022387D01*
Y0097D01*
X022187D01*
Y0096D01*
X022087D01*
Y0094D01*
X022187D01*
Y0084D02*
Y0083D01*
X022387D01*
Y0084D01*
X022487D01*
Y0086D01*
X022387D01*
Y0087D01*
X022187D01*
Y0086D01*
X022087D01*
Y0084D01*
X022187D01*
X025313D02*
Y0083D01*
X025513D01*
Y0084D01*
X025613D01*
Y0086D01*
X025513D01*
Y0087D01*
X025313D01*
Y0086D01*
X025213D01*
Y0084D01*
X025313D01*
Y0094D02*
Y0093D01*
X025513D01*
Y0094D01*
X025613D01*
Y0096D01*
X025513D01*
Y0097D01*
X025313D01*
Y0096D01*
X025213D01*
Y0094D01*
X025313D01*
Y0104D02*
Y0103D01*
X025513D01*
Y0104D01*
X025613D01*
Y0106D01*
X025513D01*
Y0107D01*
X025313D01*
Y0106D01*
X025213D01*
Y0104D01*
X025313D01*
Y0114D02*
Y0113D01*
X025513D01*
Y0114D01*
X025613D01*
Y0116D01*
X025513D01*
Y0117D01*
X025313D01*
Y0116D01*
X025213D01*
Y0114D01*
X025313D01*
X02055Y00625D02*
Y00665D01*
X02095D01*
Y00625D01*
X02055D01*
Y00375D02*
Y00415D01*
X02095D01*
Y00375D01*
X02055D01*
X02345Y00225D02*
Y00265D01*
X02385D01*
Y00225D01*
X02345D01*
X02095D02*
Y00265D01*
X02135D01*
Y00225D01*
X02095D01*
X02205Y00495D02*
X02215D01*
X02225Y00505D01*
X02235Y00495D01*
X02245D01*
Y00505D01*
X02235Y00515D01*
X02245Y00525D01*
Y00535D01*
X02235D01*
X02225Y00525D01*
X02215Y00535D01*
X02205D01*
Y00525D01*
X02215Y00515D01*
X02205Y00505D01*
Y00495D01*
X02315D02*
X02325D01*
X02335Y00505D01*
X02345Y00495D01*
X02355D01*
Y00505D01*
X02345Y00515D01*
X02355Y00525D01*
Y00535D01*
X02345D01*
X02335Y00525D01*
X02325Y00535D01*
X02315D01*
Y00525D01*
X02325Y00515D01*
X02315Y00505D01*
Y00495D01*
X02485Y0042D02*
X02465Y0046D01*
X02505D01*
X02485Y0042D01*
X02735Y0022D02*
X02715Y0026D01*
X02755D01*
X02735Y0022D01*
Y0042D02*
X02715Y0046D01*
X02755D01*
X02735Y0042D01*
X02485Y0022D02*
X02465Y0026D01*
X02505D01*
X02485Y0022D01*
X0285Y0042D02*
Y0046D01*
X0289D01*
Y0042D01*
X0285D01*
Y0017D02*
Y0021D01*
X0289D01*
Y0017D01*
X0285D01*
X0265Y0113D02*
Y0117D01*
X0269D01*
Y0113D01*
X0265D01*
Y0088D02*
Y0092D01*
X0269D01*
Y0088D01*
X0265D01*
X02785Y0113D02*
Y0117D01*
X02825D01*
Y0113D01*
X02785D01*
Y0088D02*
Y0092D01*
X02825D01*
Y0088D01*
X02785D01*
X0297Y01346D02*
X0299Y01366D01*
X0301Y01346D01*
X0299Y01326D01*
X0297Y01346D01*
Y01444D02*
X0299Y01464D01*
X0301Y01444D01*
X0299Y01424D01*
X0297Y01444D01*
Y01545D02*
X0299Y01565D01*
X0301Y01545D01*
X0299Y01525D01*
X0297Y01545D01*
X02505Y02495D02*
Y02535D01*
X02545D01*
Y02495D01*
X02505D01*
X02255D02*
Y02535D01*
X02295D01*
Y02495D01*
X02255D01*
X02505Y02365D02*
Y02405D01*
X02545D01*
Y02365D01*
X02505D01*
X02255D02*
Y02405D01*
X02295D01*
Y02365D01*
X02255D01*
Y0223D02*
Y0227D01*
X02295D01*
Y0223D01*
X02255D01*
X02505D02*
Y0227D01*
X02545D01*
Y0223D01*
X02505D01*
X022137Y0194D02*
Y0193D01*
X022337D01*
Y0194D01*
X022437D01*
Y0196D01*
X022337D01*
Y0197D01*
X022137D01*
Y0196D01*
X022037D01*
Y0194D01*
X022137D01*
Y0184D02*
Y0183D01*
X022337D01*
Y0184D01*
X022437D01*
Y0186D01*
X022337D01*
Y0187D01*
X022137D01*
Y0186D01*
X022037D01*
Y0184D01*
X022137D01*
Y0174D02*
Y0173D01*
X022337D01*
Y0174D01*
X022437D01*
Y0176D01*
X022337D01*
Y0177D01*
X022137D01*
Y0176D01*
X022037D01*
Y0174D01*
X022137D01*
Y0164D02*
Y0163D01*
X022337D01*
Y0164D01*
X022437D01*
Y0166D01*
X022337D01*
Y0167D01*
X022137D01*
Y0166D01*
X022037D01*
Y0164D01*
X022137D01*
X025263D02*
Y0163D01*
X025463D01*
Y0164D01*
X025563D01*
Y0166D01*
X025463D01*
Y0167D01*
X025263D01*
Y0166D01*
X025163D01*
Y0164D01*
X025263D01*
Y0174D02*
Y0173D01*
X025463D01*
Y0174D01*
X025563D01*
Y0176D01*
X025463D01*
Y0177D01*
X025263D01*
Y0176D01*
X025163D01*
Y0174D01*
X025263D01*
Y0184D02*
Y0183D01*
X025463D01*
Y0184D01*
X025563D01*
Y0186D01*
X025463D01*
Y0187D01*
X025263D01*
Y0186D01*
X025163D01*
Y0184D01*
X025263D01*
Y0194D02*
Y0193D01*
X025463D01*
Y0194D01*
X025563D01*
Y0196D01*
X025463D01*
Y0197D01*
X025263D01*
Y0196D01*
X025163D01*
Y0194D01*
X025263D01*
X02255Y0211D02*
Y0215D01*
X02295D01*
Y0211D01*
X02255D01*
X02505D02*
Y0215D01*
X02545D01*
Y0211D01*
X02505D01*
X0197Y02525D02*
X0195Y02565D01*
X0199D01*
X0197Y02525D01*
Y02325D02*
X0195Y02365D01*
X0199D01*
X0197Y02325D01*
X0185Y02215D02*
Y02255D01*
X0189D01*
Y02215D01*
X0185D01*
Y01965D02*
Y02005D01*
X0189D01*
Y01965D01*
X0185D01*
X01715Y02325D02*
Y02365D01*
X01755D01*
Y02325D01*
X01715D01*
Y02075D02*
Y02115D01*
X01755D01*
Y02075D01*
X01715D01*
X0086Y01975D02*
Y02015D01*
X009D01*
Y01975D01*
X0086D01*
Y02225D02*
Y02265D01*
X009D01*
Y02225D01*
X0086D01*
X01715Y02775D02*
Y02815D01*
X01755D01*
Y02775D01*
X01715D01*
Y02525D02*
Y02565D01*
X01755D01*
Y02525D01*
X01715D01*
X0138Y0261D02*
X0139Y0262D01*
X014D01*
X0139Y0263D01*
X014Y0264D01*
X0139D01*
X0138Y0265D01*
X0137Y0264D01*
X0136D01*
X0137Y0263D01*
X0136Y0262D01*
X0137D01*
X0138Y0261D01*
X0148D02*
X0149Y0262D01*
X015D01*
X0149Y0263D01*
X015Y0264D01*
X0149D01*
X0148Y0265D01*
X0147Y0264D01*
X0146D01*
X0147Y0263D01*
X0146Y0262D01*
X0147D01*
X0148Y0261D01*
X0158D02*
X0159Y0262D01*
X016D01*
X0159Y0263D01*
X016Y0264D01*
X0159D01*
X0158Y0265D01*
X0157Y0264D01*
X0156D01*
X0157Y0263D01*
X0156Y0262D01*
X0157D01*
X0158Y0261D01*
X0117Y0243D02*
X0115Y0247D01*
X0119D01*
X0117Y0243D01*
Y0263D02*
X0115Y0267D01*
X0119D01*
X0117Y0263D01*
X0088Y024D02*
X0086Y0244D01*
X009D01*
X0088Y024D01*
Y026D02*
X0086Y0264D01*
X009D01*
X0088Y026D01*
X0269Y02185D02*
X027Y02205D01*
X0269Y02225D01*
X0271Y02215D01*
X0273Y02225D01*
X0272Y02205D01*
X0273Y02185D01*
X0271Y02195D01*
X0269Y02185D01*
X0279D02*
X028Y02205D01*
X0279Y02225D01*
X0281Y02215D01*
X0283Y02225D01*
X0282Y02205D01*
X0283Y02185D01*
X0281Y02195D01*
X0279Y02185D01*
X0289D02*
X029Y02205D01*
X0289Y02225D01*
X0291Y02215D01*
X0293Y02225D01*
X0292Y02205D01*
X0293Y02185D01*
X0291Y02195D01*
X0289Y02185D01*
X0299D02*
X03Y02205D01*
X0299Y02225D01*
X0301Y02215D01*
X0303Y02225D01*
X0302Y02205D01*
X0303Y02185D01*
X0301Y02195D01*
X0299Y02185D01*
X029Y0183D02*
Y0187D01*
X0294D01*
Y0183D01*
X029D01*
X0265D02*
Y0187D01*
X0269D01*
Y0183D01*
X0265D01*
X00475Y0136D02*
Y014D01*
X00515D01*
Y0136D01*
X00475D01*
X00225D02*
Y014D01*
X00265D01*
Y0136D01*
X00225D01*
X00215Y0211D02*
X00235Y0213D01*
X00255Y0211D01*
X00235Y0209D01*
X00215Y0211D01*
Y0251D02*
X00235Y0253D01*
X00255Y0251D01*
X00235Y0249D01*
X00215Y0251D01*
Y0241D02*
X00235Y0243D01*
X00255Y0241D01*
X00235Y0239D01*
X00215Y0241D01*
Y0231D02*
X00235Y0233D01*
X00255Y0231D01*
X00235Y0229D01*
X00215Y0231D01*
Y0221D02*
X00235Y0223D01*
X00255Y0221D01*
X00235Y0219D01*
X00215Y0221D01*
Y0201D02*
X00235Y0203D01*
X00255Y0201D01*
X00235Y0199D01*
X00215Y0201D01*
X01575Y0081D02*
X01585Y0082D01*
X01595D01*
X01585Y0083D01*
X01595Y0084D01*
X01585D01*
X01575Y0085D01*
X01565Y0084D01*
X01555D01*
X01565Y0083D01*
X01555Y0082D01*
X01565D01*
X01575Y0081D01*
X01475D02*
X01485Y0082D01*
X01495D01*
X01485Y0083D01*
X01495Y0084D01*
X01485D01*
X01475Y0085D01*
X01465Y0084D01*
X01455D01*
X01465Y0083D01*
X01455Y0082D01*
X01465D01*
X01475Y0081D01*
X01375D02*
X01385Y0082D01*
X01395D01*
X01385Y0083D01*
X01395Y0084D01*
X01385D01*
X01375Y0085D01*
X01365Y0084D01*
X01355D01*
X01365Y0083D01*
X01355Y0082D01*
X01365D01*
X01375Y0081D01*
X016013Y0064D02*
Y0063D01*
X016213D01*
Y0064D01*
X016313D01*
Y0066D01*
X016213D01*
Y0067D01*
X016013D01*
Y0066D01*
X015913D01*
Y0064D01*
X016013D01*
Y0054D02*
Y0053D01*
X016213D01*
Y0054D01*
X016313D01*
Y0056D01*
X016213D01*
Y0057D01*
X016013D01*
Y0056D01*
X015913D01*
Y0054D01*
X016013D01*
Y0044D02*
Y0043D01*
X016213D01*
Y0044D01*
X016313D01*
Y0046D01*
X016213D01*
Y0047D01*
X016013D01*
Y0046D01*
X015913D01*
Y0044D01*
X016013D01*
Y0034D02*
Y0033D01*
X016213D01*
Y0034D01*
X016313D01*
Y0036D01*
X016213D01*
Y0037D01*
X016013D01*
Y0036D01*
X015913D01*
Y0034D01*
X016013D01*
X012887D02*
Y0033D01*
X013087D01*
Y0034D01*
X013187D01*
Y0036D01*
X013087D01*
Y0037D01*
X012887D01*
Y0036D01*
X012787D01*
Y0034D01*
X012887D01*
Y0044D02*
Y0043D01*
X013087D01*
Y0044D01*
X013187D01*
Y0046D01*
X013087D01*
Y0047D01*
X012887D01*
Y0046D01*
X012787D01*
Y0044D01*
X012887D01*
Y0054D02*
Y0053D01*
X013087D01*
Y0054D01*
X013187D01*
Y0056D01*
X013087D01*
Y0057D01*
X012887D01*
Y0056D01*
X012787D01*
Y0054D01*
X012887D01*
Y0064D02*
Y0063D01*
X013087D01*
Y0064D01*
X013187D01*
Y0066D01*
X013087D01*
Y0067D01*
X012887D01*
Y0066D01*
X012787D01*
Y0064D01*
X012887D01*
X0115Y0043D02*
Y0047D01*
X0119D01*
Y0043D01*
X0115D01*
Y0018D02*
Y0022D01*
X0119D01*
Y0018D01*
X0115D01*
X0249Y0141D02*
Y0145D01*
X0253D01*
Y0141D01*
X0249D01*
X0224D02*
Y0145D01*
X0228D01*
Y0141D01*
X0224D01*
X016013Y015515D02*
Y015415D01*
X016213D01*
Y015515D01*
X016313D01*
Y015715D01*
X016213D01*
Y015815D01*
X016013D01*
Y015715D01*
X015913D01*
Y015515D01*
X016013D01*
Y014515D02*
Y014415D01*
X016213D01*
Y014515D01*
X016313D01*
Y014715D01*
X016213D01*
Y014815D01*
X016013D01*
Y014715D01*
X015913D01*
Y014515D01*
X016013D01*
Y013515D02*
Y013415D01*
X016213D01*
Y013515D01*
X016313D01*
Y013715D01*
X016213D01*
Y013815D01*
X016013D01*
Y013715D01*
X015913D01*
Y013515D01*
X016013D01*
Y012515D02*
Y012415D01*
X016213D01*
Y012515D01*
X016313D01*
Y012715D01*
X016213D01*
Y012815D01*
X016013D01*
Y012715D01*
X015913D01*
Y012515D01*
X016013D01*
X012887D02*
Y012415D01*
X013087D01*
Y012515D01*
X013187D01*
Y012715D01*
X013087D01*
Y012815D01*
X012887D01*
Y012715D01*
X012787D01*
Y012515D01*
X012887D01*
Y013515D02*
Y013415D01*
X013087D01*
Y013515D01*
X013187D01*
Y013715D01*
X013087D01*
Y013815D01*
X012887D01*
Y013715D01*
X012787D01*
Y013515D01*
X012887D01*
Y014515D02*
Y014415D01*
X013087D01*
Y014515D01*
X013187D01*
Y014715D01*
X013087D01*
Y014815D01*
X012887D01*
Y014715D01*
X012787D01*
Y014515D01*
X012887D01*
Y015515D02*
Y015415D01*
X013087D01*
Y015515D01*
X013187D01*
Y015715D01*
X013087D01*
Y015815D01*
X012887D01*
Y015715D01*
X012787D01*
Y015515D01*
X012887D01*
X016013Y02435D02*
Y02425D01*
X016213D01*
Y02435D01*
X016313D01*
Y02455D01*
X016213D01*
Y02465D01*
X016013D01*
Y02455D01*
X015913D01*
Y02435D01*
X016013D01*
Y02335D02*
Y02325D01*
X016213D01*
Y02335D01*
X016313D01*
Y02355D01*
X016213D01*
Y02365D01*
X016013D01*
Y02355D01*
X015913D01*
Y02335D01*
X016013D01*
Y02235D02*
Y02225D01*
X016213D01*
Y02235D01*
X016313D01*
Y02255D01*
X016213D01*
Y02265D01*
X016013D01*
Y02255D01*
X015913D01*
Y02235D01*
X016013D01*
Y02135D02*
Y02125D01*
X016213D01*
Y02135D01*
X016313D01*
Y02155D01*
X016213D01*
Y02165D01*
X016013D01*
Y02155D01*
X015913D01*
Y02135D01*
X016013D01*
X012887D02*
Y02125D01*
X013087D01*
Y02135D01*
X013187D01*
Y02155D01*
X013087D01*
Y02165D01*
X012887D01*
Y02155D01*
X012787D01*
Y02135D01*
X012887D01*
Y02235D02*
Y02225D01*
X013087D01*
Y02235D01*
X013187D01*
Y02255D01*
X013087D01*
Y02265D01*
X012887D01*
Y02255D01*
X012787D01*
Y02235D01*
X012887D01*
Y02335D02*
Y02325D01*
X013087D01*
Y02335D01*
X013187D01*
Y02355D01*
X013087D01*
Y02365D01*
X012887D01*
Y02355D01*
X012787D01*
Y02335D01*
X012887D01*
Y02435D02*
Y02425D01*
X013087D01*
Y02435D01*
X013187D01*
Y02455D01*
X013087D01*
Y02465D01*
X012887D01*
Y02455D01*
X012787D01*
Y02435D01*
X012887D01*
X01575Y0173D02*
X01585Y0174D01*
X01595D01*
X01585Y0175D01*
X01595Y0176D01*
X01585D01*
X01575Y0177D01*
X01565Y0176D01*
X01555D01*
X01565Y0175D01*
X01555Y0174D01*
X01565D01*
X01575Y0173D01*
X01475D02*
X01485Y0174D01*
X01495D01*
X01485Y0175D01*
X01495Y0176D01*
X01485D01*
X01475Y0177D01*
X01465Y0176D01*
X01455D01*
X01465Y0175D01*
X01455Y0174D01*
X01465D01*
X01475Y0173D01*
X01375D02*
X01385Y0174D01*
X01395D01*
X01385Y0175D01*
X01395Y0176D01*
X01385D01*
X01375Y0177D01*
X01365Y0176D01*
X01355D01*
X01365Y0175D01*
X01355Y0174D01*
X01365D01*
X01375Y0173D01*
X01015Y013415D02*
Y013815D01*
X01055D01*
Y013415D01*
X01015D01*
Y010915D02*
Y011315D01*
X01055D01*
Y010915D01*
X01015D01*
X013413Y01105D02*
Y01145D01*
X013813D01*
Y01105D01*
X013413D01*
X015913D02*
Y01145D01*
X016313D01*
Y01105D01*
X015913D01*
X0224Y01525D02*
Y01565D01*
X0228D01*
Y01525D01*
X0224D01*
X0249D02*
Y01565D01*
X0253D01*
Y01525D01*
X0249D01*
X0185Y0163D02*
Y0167D01*
X0189D01*
Y0163D01*
X0185D01*
X021D02*
Y0167D01*
X0214D01*
Y0163D01*
X021D01*
X0185Y0173D02*
Y0177D01*
X0189D01*
Y0173D01*
X0185D01*
X021D02*
Y0177D01*
X0214D01*
Y0173D01*
X021D01*
X0115Y013415D02*
Y013815D01*
X0119D01*
Y013415D01*
X0115D01*
Y010915D02*
Y011315D01*
X0119D01*
Y010915D01*
X0115D01*
X0117Y017415D02*
X0115Y017815D01*
X0119D01*
X0117Y017415D01*
Y015415D02*
X0115Y015815D01*
X0119D01*
X0117Y015415D01*
X01015Y0265D02*
Y0269D01*
X01055D01*
Y0265D01*
X01015D01*
Y024D02*
Y0244D01*
X01055D01*
Y024D01*
X01015D01*
X013413Y01975D02*
Y02015D01*
X013813D01*
Y01975D01*
X013413D01*
X015913D02*
Y02015D01*
X016313D01*
Y01975D01*
X015913D01*
X01015Y02225D02*
Y02265D01*
X01055D01*
Y02225D01*
X01015D01*
Y01975D02*
Y02015D01*
X01055D01*
Y01975D01*
X01015D01*
X0115Y02225D02*
Y02265D01*
X0119D01*
Y02225D01*
X0115D01*
Y01975D02*
Y02015D01*
X0119D01*
Y01975D01*
X0115D01*
X006Y0199D02*
X0058Y0203D01*
X0062D01*
X006Y0199D01*
X004D02*
X0038Y0203D01*
X0042D01*
X004Y0199D01*
X006Y0219D02*
X0058Y0223D01*
X0062D01*
X006Y0219D01*
X004D02*
X0038Y0223D01*
X0042D01*
X004Y0219D01*
X00355Y0209D02*
Y0213D01*
X00395D01*
Y0209D01*
X00355D01*
X00605D02*
Y0213D01*
X00645D01*
Y0209D01*
X00605D01*
X00355Y0229D02*
Y0233D01*
X00395D01*
Y0229D01*
X00355D01*
X00605D02*
Y0233D01*
X00645D01*
Y0229D01*
X00605D01*
X006Y0239D02*
X0058Y0243D01*
X0062D01*
X006Y0239D01*
X004D02*
X0038Y0243D01*
X0042D01*
X004Y0239D01*
X00355Y0249D02*
Y0253D01*
X00395D01*
Y0249D01*
X00355D01*
X00605D02*
Y0253D01*
X00645D01*
Y0249D01*
X00605D01*
X01715Y011915D02*
Y012315D01*
X01755D01*
Y011915D01*
X01715D01*
Y014415D02*
Y014815D01*
X01755D01*
Y014415D01*
X01715D01*
X00475Y01565D02*
Y01605D01*
X00515D01*
Y01565D01*
X00475D01*
X00225D02*
Y01605D01*
X00265D01*
Y01565D01*
X00225D01*
X0188Y0053D02*
X0186Y0057D01*
X019D01*
X0188Y0053D01*
Y0073D02*
X0186Y0077D01*
X019D01*
X0188Y0073D01*
X013413Y00205D02*
Y00245D01*
X013813D01*
Y00205D01*
X013413D01*
X015913D02*
Y00245D01*
X016313D01*
Y00205D01*
X015913D01*
X00475Y01775D02*
Y01815D01*
X00515D01*
Y01775D01*
X00475D01*
X00225D02*
Y01815D01*
X00265D01*
Y01775D01*
X00225D01*
X028Y00705D02*
Y00745D01*
X0284D01*
Y00705D01*
X028D01*
X0255D02*
Y00745D01*
X0259D01*
Y00705D01*
X0255D01*
X0009811Y0009811D02*
Y0013811D01*
X0013811D01*
Y0009811D01*
X0009811D01*
X0010611Y0010611D02*
Y0013011D01*
X0013011D01*
Y0010611D01*
X0010611D01*
X0009811Y0281465D02*
Y0285465D01*
X0013811D01*
Y0281465D01*
X0009811D01*
X0010611Y0282265D02*
Y0284665D01*
X0013011D01*
Y0282265D01*
X0010611D01*
X034052Y0281465D02*
Y0285465D01*
X034452D01*
Y0281465D01*
X034052D01*
X034132Y0282265D02*
Y0284665D01*
X034372D01*
Y0282265D01*
X034132D01*
X034052Y0009811D02*
Y0013811D01*
X034452D01*
Y0009811D01*
X034052D01*
X034132Y0010611D02*
Y0013011D01*
X034372D01*
Y0010611D01*
X034132D01*
X02355Y0135D02*
Y0139D01*
X02395D01*
Y0135D01*
X02355D01*
X0146Y01105D02*
Y01145D01*
X015D01*
Y01105D01*
X0146D01*
X01465Y01975D02*
Y02015D01*
X01505D01*
Y01975D01*
X01465D01*
X0183Y00205D02*
Y00245D01*
X0187D01*
Y00205D01*
X0183D01*
D59*
X0271Y014002D02*
X0270771Y0140949D01*
X0270136Y0141666D01*
X0269241Y0142005D01*
X0268291Y014189D01*
X0267503Y0141346D01*
X0267058Y0140498D01*
Y0139541D01*
X0267503Y0138693D01*
X0268291Y013815D01*
X0269241Y0138034D01*
X0270136Y0138374D01*
X0270771Y013909D01*
X0271Y014002D01*
Y017498D02*
X0270771Y017591D01*
X0270136Y0176626D01*
X0269241Y0176966D01*
X0268291Y017685D01*
X0267503Y0176306D01*
X0267058Y0175459D01*
Y0174502D01*
X0267503Y0173654D01*
X0268291Y017311D01*
X0269241Y0172995D01*
X0270136Y0173334D01*
X0270771Y0174051D01*
X0271Y017498D01*
X0204Y0219961D02*
X0203771Y022089D01*
X0203136Y0221607D01*
X0202241Y0221946D01*
X0201291Y0221831D01*
X0200503Y0221287D01*
X0200058Y0220439D01*
Y0219482D01*
X0200503Y0218634D01*
X0201291Y0218091D01*
X0202241Y0217975D01*
X0203136Y0218315D01*
X0203771Y0219031D01*
X0204Y0219961D01*
Y0185D02*
X0203771Y0185929D01*
X0203136Y0186646D01*
X0202241Y0186985D01*
X0201291Y018687D01*
X0200503Y0186326D01*
X0200058Y0185479D01*
Y0184521D01*
X0200503Y0183674D01*
X0201291Y018313D01*
X0202241Y0183015D01*
X0203136Y0183354D01*
X0203771Y0184071D01*
X0204Y0185D01*
X02095Y0109961D02*
X0209271Y011089D01*
X0208636Y0111607D01*
X0207741Y0111946D01*
X0206791Y0111831D01*
X0206003Y0111287D01*
X0205558Y0110439D01*
Y0109482D01*
X0206003Y0108634D01*
X0206791Y0108091D01*
X0207741Y0107975D01*
X0208636Y0108315D01*
X0209271Y0109031D01*
X02095Y0109961D01*
Y0075D02*
X0209271Y0075929D01*
X0208636Y0076646D01*
X0207741Y0076985D01*
X0206791Y007687D01*
X0206003Y0076326D01*
X0205558Y0075479D01*
Y0074521D01*
X0206003Y0073674D01*
X0206791Y007313D01*
X0207741Y0073015D01*
X0208636Y0073354D01*
X0209271Y0074071D01*
X02095Y0075D01*
X0322Y02385D02*
X0321771Y0239429D01*
X0321136Y0240146D01*
X0320241Y0240485D01*
X0319291Y024037D01*
X0318503Y0239826D01*
X0318058Y0238979D01*
Y0238021D01*
X0318503Y0237174D01*
X0319291Y023663D01*
X0320241Y0236515D01*
X0321136Y0236854D01*
X0321771Y0237571D01*
X0322Y02385D01*
X0332D02*
X0331771Y0239429D01*
X0331136Y0240146D01*
X0330241Y0240485D01*
X0329291Y024037D01*
X0328503Y0239826D01*
X0328058Y0238979D01*
Y0238021D01*
X0328503Y0237174D01*
X0329291Y023663D01*
X0330241Y0236515D01*
X0331136Y0236854D01*
X0331771Y0237571D01*
X0332Y02385D01*
X0322Y02285D02*
X0321771Y0229429D01*
X0321136Y0230146D01*
X0320241Y0230485D01*
X0319291Y023037D01*
X0318503Y0229826D01*
X0318058Y0228979D01*
Y0228021D01*
X0318503Y0227174D01*
X0319291Y022663D01*
X0320241Y0226515D01*
X0321136Y0226854D01*
X0321771Y0227571D01*
X0322Y02285D01*
X0332D02*
X0331771Y0229429D01*
X0331136Y0230146D01*
X0330241Y0230485D01*
X0329291Y023037D01*
X0328503Y0229826D01*
X0328058Y0228979D01*
Y0228021D01*
X0328503Y0227174D01*
X0329291Y022663D01*
X0330241Y0226515D01*
X0331136Y0226854D01*
X0331771Y0227571D01*
X0332Y02285D01*
X0322Y02185D02*
X0321771Y0219429D01*
X0321136Y0220146D01*
X0320241Y0220485D01*
X0319291Y022037D01*
X0318503Y0219826D01*
X0318058Y0218979D01*
Y0218021D01*
X0318503Y0217174D01*
X0319291Y021663D01*
X0320241Y0216515D01*
X0321136Y0216854D01*
X0321771Y0217571D01*
X0322Y02185D01*
X0332D02*
X0331771Y0219429D01*
X0331136Y0220146D01*
X0330241Y0220485D01*
X0329291Y022037D01*
X0328503Y0219826D01*
X0328058Y0218979D01*
Y0218021D01*
X0328503Y0217174D01*
X0329291Y021663D01*
X0330241Y0216515D01*
X0331136Y0216854D01*
X0331771Y0217571D01*
X0332Y02185D01*
X0322Y02085D02*
X0321771Y0209429D01*
X0321136Y0210146D01*
X0320241Y0210485D01*
X0319291Y021037D01*
X0318503Y0209826D01*
X0318058Y0208979D01*
Y0208021D01*
X0318503Y0207174D01*
X0319291Y020663D01*
X0320241Y0206515D01*
X0321136Y0206854D01*
X0321771Y0207571D01*
X0322Y02085D01*
X0332D02*
X0331771Y0209429D01*
X0331136Y0210146D01*
X0330241Y0210485D01*
X0329291Y021037D01*
X0328503Y0209826D01*
X0328058Y0208979D01*
Y0208021D01*
X0328503Y0207174D01*
X0329291Y020663D01*
X0330241Y0206515D01*
X0331136Y0206854D01*
X0331771Y0207571D01*
X0332Y02085D01*
X0322Y01985D02*
X0321771Y0199429D01*
X0321136Y0200146D01*
X0320241Y0200485D01*
X0319291Y020037D01*
X0318503Y0199826D01*
X0318058Y0198979D01*
Y0198021D01*
X0318503Y0197174D01*
X0319291Y019663D01*
X0320241Y0196515D01*
X0321136Y0196854D01*
X0321771Y0197571D01*
X0322Y01985D01*
X0332D02*
X0331771Y0199429D01*
X0331136Y0200146D01*
X0330241Y0200485D01*
X0329291Y020037D01*
X0328503Y0199826D01*
X0328058Y0198979D01*
Y0198021D01*
X0328503Y0197174D01*
X0329291Y019663D01*
X0330241Y0196515D01*
X0331136Y0196854D01*
X0331771Y0197571D01*
X0332Y01985D01*
X0322Y01885D02*
X0321771Y0189429D01*
X0321136Y0190146D01*
X0320241Y0190485D01*
X0319291Y019037D01*
X0318503Y0189826D01*
X0318058Y0188979D01*
Y0188021D01*
X0318503Y0187174D01*
X0319291Y018663D01*
X0320241Y0186515D01*
X0321136Y0186854D01*
X0321771Y0187571D01*
X0322Y01885D01*
X0332D02*
X0331771Y0189429D01*
X0331136Y0190146D01*
X0330241Y0190485D01*
X0329291Y019037D01*
X0328503Y0189826D01*
X0328058Y0188979D01*
Y0188021D01*
X0328503Y0187174D01*
X0329291Y018663D01*
X0330241Y0186515D01*
X0331136Y0186854D01*
X0331771Y0187571D01*
X0332Y01885D01*
X0322Y01785D02*
X0321771Y0179429D01*
X0321136Y0180146D01*
X0320241Y0180485D01*
X0319291Y018037D01*
X0318503Y0179826D01*
X0318058Y0178979D01*
Y0178021D01*
X0318503Y0177174D01*
X0319291Y017663D01*
X0320241Y0176515D01*
X0321136Y0176854D01*
X0321771Y0177571D01*
X0322Y01785D01*
X0332D02*
X0331771Y0179429D01*
X0331136Y0180146D01*
X0330241Y0180485D01*
X0329291Y018037D01*
X0328503Y0179826D01*
X0328058Y0178979D01*
Y0178021D01*
X0328503Y0177174D01*
X0329291Y017663D01*
X0330241Y0176515D01*
X0331136Y0176854D01*
X0331771Y0177571D01*
X0332Y01785D01*
X0322Y01685D02*
X0321771Y0169429D01*
X0321136Y0170146D01*
X0320241Y0170485D01*
X0319291Y017037D01*
X0318503Y0169826D01*
X0318058Y0168979D01*
Y0168021D01*
X0318503Y0167174D01*
X0319291Y016663D01*
X0320241Y0166515D01*
X0321136Y0166854D01*
X0321771Y0167571D01*
X0322Y01685D01*
X0332D02*
X0331771Y0169429D01*
X0331136Y0170146D01*
X0330241Y0170485D01*
X0329291Y017037D01*
X0328503Y0169826D01*
X0328058Y0168979D01*
Y0168021D01*
X0328503Y0167174D01*
X0329291Y016663D01*
X0330241Y0166515D01*
X0331136Y0166854D01*
X0331771Y0167571D01*
X0332Y01685D01*
X0322Y01585D02*
X0321771Y0159429D01*
X0321136Y0160146D01*
X0320241Y0160485D01*
X0319291Y016037D01*
X0318503Y0159826D01*
X0318058Y0158979D01*
Y0158021D01*
X0318503Y0157174D01*
X0319291Y015663D01*
X0320241Y0156515D01*
X0321136Y0156854D01*
X0321771Y0157571D01*
X0322Y01585D01*
X0332D02*
X0331771Y0159429D01*
X0331136Y0160146D01*
X0330241Y0160485D01*
X0329291Y016037D01*
X0328503Y0159826D01*
X0328058Y0158979D01*
Y0158021D01*
X0328503Y0157174D01*
X0329291Y015663D01*
X0330241Y0156515D01*
X0331136Y0156854D01*
X0331771Y0157571D01*
X0332Y01585D01*
X0322Y01485D02*
X0321771Y0149429D01*
X0321136Y0150146D01*
X0320241Y0150485D01*
X0319291Y015037D01*
X0318503Y0149826D01*
X0318058Y0148979D01*
Y0148021D01*
X0318503Y0147174D01*
X0319291Y014663D01*
X0320241Y0146515D01*
X0321136Y0146854D01*
X0321771Y0147571D01*
X0322Y01485D01*
X0332D02*
X0331771Y0149429D01*
X0331136Y0150146D01*
X0330241Y0150485D01*
X0329291Y015037D01*
X0328503Y0149826D01*
X0328058Y0148979D01*
Y0148021D01*
X0328503Y0147174D01*
X0329291Y014663D01*
X0330241Y0146515D01*
X0331136Y0146854D01*
X0331771Y0147571D01*
X0332Y01485D01*
X0322Y01385D02*
X0321771Y0139429D01*
X0321136Y0140146D01*
X0320241Y0140485D01*
X0319291Y014037D01*
X0318503Y0139826D01*
X0318058Y0138979D01*
Y0138021D01*
X0318503Y0137174D01*
X0319291Y013663D01*
X0320241Y0136515D01*
X0321136Y0136854D01*
X0321771Y0137571D01*
X0322Y01385D01*
X0332D02*
X0331771Y0139429D01*
X0331136Y0140146D01*
X0330241Y0140485D01*
X0329291Y014037D01*
X0328503Y0139826D01*
X0328058Y0138979D01*
Y0138021D01*
X0328503Y0137174D01*
X0329291Y013663D01*
X0330241Y0136515D01*
X0331136Y0136854D01*
X0331771Y0137571D01*
X0332Y01385D01*
X0322Y01285D02*
X0321771Y0129429D01*
X0321136Y0130146D01*
X0320241Y0130485D01*
X0319291Y013037D01*
X0318503Y0129826D01*
X0318058Y0128979D01*
Y0128021D01*
X0318503Y0127174D01*
X0319291Y012663D01*
X0320241Y0126515D01*
X0321136Y0126854D01*
X0321771Y0127571D01*
X0322Y01285D01*
X0332D02*
X0331771Y0129429D01*
X0331136Y0130146D01*
X0330241Y0130485D01*
X0329291Y013037D01*
X0328503Y0129826D01*
X0328058Y0128979D01*
Y0128021D01*
X0328503Y0127174D01*
X0329291Y012663D01*
X0330241Y0126515D01*
X0331136Y0126854D01*
X0331771Y0127571D01*
X0332Y01285D01*
X0322Y01185D02*
X0321771Y0119429D01*
X0321136Y0120146D01*
X0320241Y0120485D01*
X0319291Y012037D01*
X0318503Y0119826D01*
X0318058Y0118979D01*
Y0118021D01*
X0318503Y0117174D01*
X0319291Y011663D01*
X0320241Y0116515D01*
X0321136Y0116854D01*
X0321771Y0117571D01*
X0322Y01185D01*
X0332D02*
X0331771Y0119429D01*
X0331136Y0120146D01*
X0330241Y0120485D01*
X0329291Y012037D01*
X0328503Y0119826D01*
X0328058Y0118979D01*
Y0118021D01*
X0328503Y0117174D01*
X0329291Y011663D01*
X0330241Y0116515D01*
X0331136Y0116854D01*
X0331771Y0117571D01*
X0332Y01185D01*
X0322Y01085D02*
X0321771Y0109429D01*
X0321136Y0110146D01*
X0320241Y0110485D01*
X0319291Y011037D01*
X0318503Y0109826D01*
X0318058Y0108979D01*
Y0108021D01*
X0318503Y0107174D01*
X0319291Y010663D01*
X0320241Y0106515D01*
X0321136Y0106854D01*
X0321771Y0107571D01*
X0322Y01085D01*
X0332D02*
X0331771Y0109429D01*
X0331136Y0110146D01*
X0330241Y0110485D01*
X0329291Y011037D01*
X0328503Y0109826D01*
X0328058Y0108979D01*
Y0108021D01*
X0328503Y0107174D01*
X0329291Y010663D01*
X0330241Y0106515D01*
X0331136Y0106854D01*
X0331771Y0107571D01*
X0332Y01085D01*
X0322Y00985D02*
X0321771Y0099429D01*
X0321136Y0100146D01*
X0320241Y0100485D01*
X0319291Y010037D01*
X0318503Y0099826D01*
X0318058Y0098979D01*
Y0098021D01*
X0318503Y0097174D01*
X0319291Y009663D01*
X0320241Y0096515D01*
X0321136Y0096854D01*
X0321771Y0097571D01*
X0322Y00985D01*
X0332D02*
X0331771Y0099429D01*
X0331136Y0100146D01*
X0330241Y0100485D01*
X0329291Y010037D01*
X0328503Y0099826D01*
X0328058Y0098979D01*
Y0098021D01*
X0328503Y0097174D01*
X0329291Y009663D01*
X0330241Y0096515D01*
X0331136Y0096854D01*
X0331771Y0097571D01*
X0332Y00985D01*
X0322Y00885D02*
X0321771Y0089429D01*
X0321136Y0090146D01*
X0320241Y0090485D01*
X0319291Y009037D01*
X0318503Y0089826D01*
X0318058Y0088979D01*
Y0088021D01*
X0318503Y0087174D01*
X0319291Y008663D01*
X0320241Y0086515D01*
X0321136Y0086854D01*
X0321771Y0087571D01*
X0322Y00885D01*
X0332D02*
X0331771Y0089429D01*
X0331136Y0090146D01*
X0330241Y0090485D01*
X0329291Y009037D01*
X0328503Y0089826D01*
X0328058Y0088979D01*
Y0088021D01*
X0328503Y0087174D01*
X0329291Y008663D01*
X0330241Y0086515D01*
X0331136Y0086854D01*
X0331771Y0087571D01*
X0332Y00885D01*
X0322Y00785D02*
X0321771Y0079429D01*
X0321136Y0080146D01*
X0320241Y0080485D01*
X0319291Y008037D01*
X0318503Y0079826D01*
X0318058Y0078979D01*
Y0078021D01*
X0318503Y0077174D01*
X0319291Y007663D01*
X0320241Y0076515D01*
X0321136Y0076854D01*
X0321771Y0077571D01*
X0322Y00785D01*
X0332D02*
X0331771Y0079429D01*
X0331136Y0080146D01*
X0330241Y0080485D01*
X0329291Y008037D01*
X0328503Y0079826D01*
X0328058Y0078979D01*
Y0078021D01*
X0328503Y0077174D01*
X0329291Y007663D01*
X0330241Y0076515D01*
X0331136Y0076854D01*
X0331771Y0077571D01*
X0332Y00785D01*
X0322Y00685D02*
X0321771Y0069429D01*
X0321136Y0070146D01*
X0320241Y0070485D01*
X0319291Y007037D01*
X0318503Y0069826D01*
X0318058Y0068979D01*
Y0068021D01*
X0318503Y0067174D01*
X0319291Y006663D01*
X0320241Y0066515D01*
X0321136Y0066854D01*
X0321771Y0067571D01*
X0322Y00685D01*
X0332D02*
X0331771Y0069429D01*
X0331136Y0070146D01*
X0330241Y0070485D01*
X0329291Y007037D01*
X0328503Y0069826D01*
X0328058Y0068979D01*
Y0068021D01*
X0328503Y0067174D01*
X0329291Y006663D01*
X0330241Y0066515D01*
X0331136Y0066854D01*
X0331771Y0067571D01*
X0332Y00685D01*
X0322Y00585D02*
X0321771Y0059429D01*
X0321136Y0060146D01*
X0320241Y0060485D01*
X0319291Y006037D01*
X0318503Y0059826D01*
X0318058Y0058979D01*
Y0058021D01*
X0318503Y0057174D01*
X0319291Y005663D01*
X0320241Y0056515D01*
X0321136Y0056854D01*
X0321771Y0057571D01*
X0322Y00585D01*
X0332D02*
X0331771Y0059429D01*
X0331136Y0060146D01*
X0330241Y0060485D01*
X0329291Y006037D01*
X0328503Y0059826D01*
X0328058Y0058979D01*
Y0058021D01*
X0328503Y0057174D01*
X0329291Y005663D01*
X0330241Y0056515D01*
X0331136Y0056854D01*
X0331771Y0057571D01*
X0332Y00585D01*
X0322Y00485D02*
X0321771Y004943D01*
X0321136Y0050146D01*
X0320241Y0050485D01*
X0319291Y005037D01*
X0318503Y0049826D01*
X0318058Y0048979D01*
Y0048021D01*
X0318503Y0047174D01*
X0319291Y004663D01*
X0320241Y0046515D01*
X0321136Y0046854D01*
X0321771Y0047571D01*
X0322Y00485D01*
X0332D02*
X0331771Y004943D01*
X0331136Y0050146D01*
X0330241Y0050485D01*
X0329291Y005037D01*
X0328503Y0049826D01*
X0328058Y0048979D01*
Y0048021D01*
X0328503Y0047174D01*
X0329291Y004663D01*
X0330241Y0046515D01*
X0331136Y0046854D01*
X0331771Y0047571D01*
X0332Y00485D01*
M02*
