%TF.GenerationSoftware,Altium Limited,Altium Designer,23.3.1 (30)*%
G04 Layer_Color=16711935*
%FSLAX26Y26*%
%MOIN*%
%TF.SameCoordinates,8F501EFE-F143-482A-9327-88418F9FCBED*%
%TF.FilePolarity,Positive*%
%TF.FileFunction,Other,Top_3D_Body*%
%TF.Part,Single*%
G01*
G75*
%TA.AperFunction,NonConductor*%
%ADD34C,0.007874*%
%ADD37C,0.005000*%
D34*
X2190709Y1150000D02*
G03*
X2190709Y1150000I-3937J0D01*
G01*
X2185709Y1950000D02*
G03*
X2185709Y1950000I-3937J0D01*
G01*
X1260709Y650000D02*
G03*
X1260709Y650000I-3937J0D01*
G01*
Y1561500D02*
G03*
X1260709Y1561500I-3937J0D01*
G01*
Y2445000D02*
G03*
X1260709Y2445000I-3937J0D01*
G01*
X2634882Y1677362D02*
X2745118D01*
X2634882Y1472638D02*
Y1677362D01*
Y1472638D02*
X2745118D01*
Y1677362D01*
X1964882Y1922441D02*
X2075118D01*
Y2127165D01*
X1964882D02*
X2075118D01*
X1964882Y1922441D02*
Y2127165D01*
X1672520Y2532559D02*
Y2727835D01*
X1287480Y2532559D02*
X1672520D01*
X1287480D02*
Y2727835D01*
X1672520D01*
X1282480Y927835D02*
X1667520D01*
X1282480Y732559D02*
Y927835D01*
Y732559D02*
X1667520D01*
Y927835D01*
X1282480Y1847835D02*
X1667520D01*
X1282480Y1652559D02*
Y1847835D01*
Y1652559D02*
X1667520D01*
Y1847835D01*
X2130118Y822441D02*
Y1027165D01*
X2019882Y822441D02*
X2130118D01*
X2019882D02*
Y1027165D01*
X2130118D01*
D37*
X2260000Y1188780D02*
X2510000D01*
X2260000Y811221D02*
X2510000D01*
X2260000D02*
Y1188780D01*
X2510000Y811221D02*
Y1188780D01*
X2255000Y1988780D02*
X2505000D01*
X2255000Y1611220D02*
X2505000D01*
X2255000D02*
Y1988780D01*
X2505000Y1611220D02*
Y1988780D01*
X1580000Y311221D02*
Y688779D01*
X1330000Y311221D02*
Y688779D01*
Y311221D02*
X1580000D01*
X1330000Y688779D02*
X1580000D01*
Y1222720D02*
Y1600280D01*
X1330000Y1222720D02*
Y1600280D01*
Y1222720D02*
X1580000D01*
X1330000Y1600280D02*
X1580000D01*
Y2106220D02*
Y2483780D01*
X1330000Y2106220D02*
Y2483780D01*
Y2106220D02*
X1580000D01*
X1330000Y2483780D02*
X1580000D01*
%TF.MD5,e7a85a42eebfb5f576fde40fe2b8d505*%
M02*
