%TF.GenerationSoftware,Altium Limited,Altium Designer,23.3.1 (30)*%
G04 Layer_Color=128*
%FSLAX26Y26*%
%MOIN*%
%TF.SameCoordinates,8F501EFE-F143-482A-9327-88418F9FCBED*%
%TF.FilePolarity,Positive*%
%TF.FileFunction,Drillmap*%
%TF.Part,Single*%
G01*
G75*
%TA.AperFunction,NonConductor*%
%ADD37C,0.005000*%
D37*
X2993000Y2670000D02*
X3027000D01*
X3010000Y2653000D02*
Y2687000D01*
X2893000Y2670000D02*
X2927000D01*
X2910000Y2653000D02*
Y2687000D01*
X2788000Y2670000D02*
X2822000D01*
X2805000Y2653000D02*
Y2687000D01*
X2104500Y1340000D02*
X2135500D01*
X2120000Y1324500D02*
Y1355500D01*
X2104500Y1540000D02*
X2135500D01*
X2120000Y1524500D02*
Y1555500D01*
X1721000Y1915000D02*
X1749000D01*
X1735000Y1901000D02*
Y1929000D01*
X1721000Y1665000D02*
X1749000D01*
X1735000Y1651000D02*
Y1679000D01*
X866000Y1111500D02*
X894000D01*
X880000Y1097500D02*
Y1125500D01*
X866000Y1361500D02*
X894000D01*
X880000Y1347500D02*
Y1375500D01*
X864500Y1561500D02*
X895500D01*
X880000Y1546000D02*
Y1577000D01*
X864500Y1761500D02*
X895500D01*
X880000Y1746000D02*
Y1777000D01*
X1021000Y1535000D02*
X1049000D01*
X1035000Y1521000D02*
Y1549000D01*
X1021000Y1785000D02*
X1049000D01*
X1035000Y1771000D02*
Y1799000D01*
X1021000Y200000D02*
X1049000D01*
X1035000Y186000D02*
Y214000D01*
X1021000Y450000D02*
X1049000D01*
X1035000Y436000D02*
Y464000D01*
X866000Y200000D02*
X894000D01*
X880000Y186000D02*
Y214000D01*
X866000Y450000D02*
X894000D01*
X880000Y436000D02*
Y464000D01*
X1154500Y650000D02*
X1185500D01*
X1170000Y634500D02*
Y665500D01*
X1154500Y850000D02*
X1185500D01*
X1170000Y834500D02*
Y865500D01*
X864500Y630000D02*
X895500D01*
X880000Y614500D02*
Y645500D01*
X864500Y830000D02*
X895500D01*
X880000Y814500D02*
Y845500D01*
X1026000Y630000D02*
X1054000D01*
X1040000Y616000D02*
Y644000D01*
X1026000Y880000D02*
X1054000D01*
X1040000Y866000D02*
Y894000D01*
X1721000Y1000000D02*
X1749000D01*
X1735000Y986000D02*
Y1014000D01*
X1721000Y750000D02*
X1749000D01*
X1735000Y736000D02*
Y764000D01*
X1721000Y550000D02*
X1749000D01*
X1735000Y536000D02*
Y564000D01*
X1721000Y300000D02*
X1749000D01*
X1735000Y286000D02*
Y314000D01*
X2709701Y595000D02*
X2737701D01*
X2723701Y581000D02*
Y609000D01*
X2459701Y595000D02*
X2487701D01*
X2473701Y581000D02*
Y609000D01*
X2209701Y725000D02*
X2237701D01*
X2223701Y711000D02*
Y739000D01*
X2459701Y725000D02*
X2487701D01*
X2473701Y711000D02*
Y739000D01*
X2213347Y1150000D02*
X2244055D01*
X2228701Y1134646D02*
Y1165354D01*
X2213347Y1050000D02*
X2244055D01*
X2228701Y1034646D02*
Y1065354D01*
X2213347Y950000D02*
X2244055D01*
X2228701Y934646D02*
Y965354D01*
X2213347Y850000D02*
X2244055D01*
X2228701Y834646D02*
Y865354D01*
X2525945Y850000D02*
X2556653D01*
X2541299Y834646D02*
Y865354D01*
X2525945Y950000D02*
X2556653D01*
X2541299Y934646D02*
Y965354D01*
X2525945Y1050000D02*
X2556653D01*
X2541299Y1034646D02*
Y1065354D01*
X2525945Y1150000D02*
X2556653D01*
X2541299Y1134646D02*
Y1165354D01*
X2061000Y645000D02*
X2089000D01*
X2075000Y631000D02*
Y659000D01*
X2061000Y395000D02*
X2089000D01*
X2075000Y381000D02*
Y409000D01*
X2351000Y245000D02*
X2379000D01*
X2365000Y231000D02*
Y259000D01*
X2101000Y245000D02*
X2129000D01*
X2115000Y231000D02*
Y259000D01*
X2209000Y515000D02*
X2241000D01*
X2225000Y499000D02*
Y531000D01*
X2319000Y515000D02*
X2351000D01*
X2335000Y499000D02*
Y531000D01*
X2469500Y440000D02*
X2500500D01*
X2485000Y424500D02*
Y455500D01*
X2719500Y240000D02*
X2750500D01*
X2735000Y224500D02*
Y255500D01*
X2719500Y440000D02*
X2750500D01*
X2735000Y424500D02*
Y455500D01*
X2469500Y240000D02*
X2500500D01*
X2485000Y224500D02*
Y255500D01*
X2856000Y440000D02*
X2884000D01*
X2870000Y426000D02*
Y454000D01*
X2856000Y190000D02*
X2884000D01*
X2870000Y176000D02*
Y204000D01*
X2656000Y1150000D02*
X2684000D01*
X2670000Y1136000D02*
Y1164000D01*
X2656000Y900000D02*
X2684000D01*
X2670000Y886000D02*
Y914000D01*
X2791000Y1150000D02*
X2819000D01*
X2805000Y1136000D02*
Y1164000D01*
X2791000Y900000D02*
X2819000D01*
X2805000Y886000D02*
Y914000D01*
X2972000Y1346000D02*
X3008000D01*
X2990000Y1328000D02*
Y1364000D01*
X2972000Y1444000D02*
X3008000D01*
X2990000Y1426000D02*
Y1462000D01*
X2972000Y1545000D02*
X3008000D01*
X2990000Y1527000D02*
Y1563000D01*
X2670315Y1400197D02*
X2709685D01*
X2690000Y1380512D02*
Y1419882D01*
X2670315Y1749803D02*
X2709685D01*
X2690000Y1730118D02*
Y1769488D01*
X2511000Y2515000D02*
X2539000D01*
X2525000Y2501000D02*
Y2529000D01*
X2261000Y2515000D02*
X2289000D01*
X2275000Y2501000D02*
Y2529000D01*
X2511000Y2385000D02*
X2539000D01*
X2525000Y2371000D02*
Y2399000D01*
X2261000Y2385000D02*
X2289000D01*
X2275000Y2371000D02*
Y2399000D01*
X2261000Y2250000D02*
X2289000D01*
X2275000Y2236000D02*
Y2264000D01*
X2511000Y2250000D02*
X2539000D01*
X2525000Y2236000D02*
Y2264000D01*
X2208347Y1950000D02*
X2239055D01*
X2223701Y1934646D02*
Y1965354D01*
X2208347Y1850000D02*
X2239055D01*
X2223701Y1834646D02*
Y1865354D01*
X2208347Y1750000D02*
X2239055D01*
X2223701Y1734646D02*
Y1765354D01*
X2208347Y1650000D02*
X2239055D01*
X2223701Y1634646D02*
Y1665354D01*
X2520945Y1650000D02*
X2551653D01*
X2536299Y1634646D02*
Y1665354D01*
X2520945Y1750000D02*
X2551653D01*
X2536299Y1734646D02*
Y1765354D01*
X2520945Y1850000D02*
X2551653D01*
X2536299Y1834646D02*
Y1865354D01*
X2520945Y1950000D02*
X2551653D01*
X2536299Y1934646D02*
Y1965354D01*
X2261000Y2130000D02*
X2289000D01*
X2275000Y2116000D02*
Y2144000D01*
X2511000Y2130000D02*
X2539000D01*
X2525000Y2116000D02*
Y2144000D01*
X1954500Y2545000D02*
X1985500D01*
X1970000Y2529500D02*
Y2560500D01*
X1954500Y2345000D02*
X1985500D01*
X1970000Y2329500D02*
Y2360500D01*
X2000315Y2199606D02*
X2039685D01*
X2020000Y2179921D02*
Y2219291D01*
X2000315Y1850000D02*
X2039685D01*
X2020000Y1830315D02*
Y1869685D01*
X1856000Y2235000D02*
X1884000D01*
X1870000Y2221000D02*
Y2249000D01*
X1856000Y1985000D02*
X1884000D01*
X1870000Y1971000D02*
Y1999000D01*
X1721000Y2345000D02*
X1749000D01*
X1735000Y2331000D02*
Y2359000D01*
X1721000Y2095000D02*
X1749000D01*
X1735000Y2081000D02*
Y2109000D01*
X866000Y1995000D02*
X894000D01*
X880000Y1981000D02*
Y2009000D01*
X866000Y2245000D02*
X894000D01*
X880000Y2231000D02*
Y2259000D01*
X1721000Y2795000D02*
X1749000D01*
X1735000Y2781000D02*
Y2809000D01*
X1721000Y2545000D02*
X1749000D01*
X1735000Y2531000D02*
Y2559000D01*
X1366220Y2630000D02*
X1393780D01*
X1380000Y2616220D02*
Y2643780D01*
X1466220Y2630000D02*
X1493780D01*
X1480000Y2616220D02*
Y2643780D01*
X1566220Y2630000D02*
X1593780D01*
X1580000Y2616220D02*
Y2643780D01*
X1154500Y2450000D02*
X1185500D01*
X1170000Y2434500D02*
Y2465500D01*
X1154500Y2650000D02*
X1185500D01*
X1170000Y2634500D02*
Y2665500D01*
X864500Y2420000D02*
X895500D01*
X880000Y2404500D02*
Y2435500D01*
X864500Y2620000D02*
X895500D01*
X880000Y2604500D02*
Y2635500D01*
X2693000Y2205000D02*
X2727000D01*
X2710000Y2188000D02*
Y2222000D01*
X2793000Y2205000D02*
X2827000D01*
X2810000Y2188000D02*
Y2222000D01*
X2893000Y2205000D02*
X2927000D01*
X2910000Y2188000D02*
Y2222000D01*
X2993000Y2205000D02*
X3027000D01*
X3010000Y2188000D02*
Y2222000D01*
X2906000Y1850000D02*
X2934000D01*
X2920000Y1836000D02*
Y1864000D01*
X2656000Y1850000D02*
X2684000D01*
X2670000Y1836000D02*
Y1864000D01*
X481000Y1380000D02*
X509000D01*
X495000Y1366000D02*
Y1394000D01*
X231000Y1380000D02*
X259000D01*
X245000Y1366000D02*
Y1394000D01*
X217000Y2110000D02*
X253000D01*
X235000Y2092000D02*
Y2128000D01*
X217000Y2510000D02*
X253000D01*
X235000Y2492000D02*
Y2528000D01*
X217000Y2410000D02*
X253000D01*
X235000Y2392000D02*
Y2428000D01*
X217000Y2310000D02*
X253000D01*
X235000Y2292000D02*
Y2328000D01*
X217000Y2210000D02*
X253000D01*
X235000Y2192000D02*
Y2228000D01*
X217000Y2010000D02*
X253000D01*
X235000Y1992000D02*
Y2028000D01*
X1561220Y830000D02*
X1588780D01*
X1575000Y816221D02*
Y843779D01*
X1461220Y830000D02*
X1488780D01*
X1475000Y816221D02*
Y843779D01*
X1361220Y830000D02*
X1388780D01*
X1375000Y816221D02*
Y843779D01*
X1595945Y650000D02*
X1626653D01*
X1611299Y634646D02*
Y665354D01*
X1595945Y550000D02*
X1626653D01*
X1611299Y534646D02*
Y565354D01*
X1595945Y450000D02*
X1626653D01*
X1611299Y434646D02*
Y465354D01*
X1595945Y350000D02*
X1626653D01*
X1611299Y334646D02*
Y365354D01*
X1283347Y350000D02*
X1314055D01*
X1298701Y334646D02*
Y365354D01*
X1283347Y450000D02*
X1314055D01*
X1298701Y434646D02*
Y465354D01*
X1283347Y550000D02*
X1314055D01*
X1298701Y534646D02*
Y565354D01*
X1283347Y650000D02*
X1314055D01*
X1298701Y634646D02*
Y665354D01*
X1156000Y450000D02*
X1184000D01*
X1170000Y436000D02*
Y464000D01*
X1156000Y200000D02*
X1184000D01*
X1170000Y186000D02*
Y214000D01*
X2496000Y1430000D02*
X2524000D01*
X2510000Y1416000D02*
Y1444000D01*
X2246000Y1430000D02*
X2274000D01*
X2260000Y1416000D02*
Y1444000D01*
X1595945Y1561500D02*
X1626653D01*
X1611299Y1546146D02*
Y1576854D01*
X1595945Y1461500D02*
X1626653D01*
X1611299Y1446146D02*
Y1476854D01*
X1595945Y1361500D02*
X1626653D01*
X1611299Y1346146D02*
Y1376854D01*
X1595945Y1261500D02*
X1626653D01*
X1611299Y1246146D02*
Y1276854D01*
X1283347Y1261500D02*
X1314055D01*
X1298701Y1246146D02*
Y1276854D01*
X1283347Y1361500D02*
X1314055D01*
X1298701Y1346146D02*
Y1376854D01*
X1283347Y1461500D02*
X1314055D01*
X1298701Y1446146D02*
Y1476854D01*
X1283347Y1561500D02*
X1314055D01*
X1298701Y1546146D02*
Y1576854D01*
X1595945Y2445000D02*
X1626653D01*
X1611299Y2429646D02*
Y2460354D01*
X1595945Y2345000D02*
X1626653D01*
X1611299Y2329646D02*
Y2360354D01*
X1595945Y2245000D02*
X1626653D01*
X1611299Y2229646D02*
Y2260354D01*
X1595945Y2145000D02*
X1626653D01*
X1611299Y2129646D02*
Y2160354D01*
X1283347Y2145000D02*
X1314055D01*
X1298701Y2129646D02*
Y2160354D01*
X1283347Y2245000D02*
X1314055D01*
X1298701Y2229646D02*
Y2260354D01*
X1283347Y2345000D02*
X1314055D01*
X1298701Y2329646D02*
Y2360354D01*
X1283347Y2445000D02*
X1314055D01*
X1298701Y2429646D02*
Y2460354D01*
X1561220Y1750000D02*
X1588780D01*
X1575000Y1736220D02*
Y1763780D01*
X1461220Y1750000D02*
X1488780D01*
X1475000Y1736220D02*
Y1763780D01*
X1361220Y1750000D02*
X1388780D01*
X1375000Y1736220D02*
Y1763780D01*
X1021000Y1361500D02*
X1049000D01*
X1035000Y1347500D02*
Y1375500D01*
X1021000Y1111500D02*
X1049000D01*
X1035000Y1097500D02*
Y1125500D01*
X1347299Y1125000D02*
X1375299D01*
X1361299Y1111000D02*
Y1139000D01*
X1597299Y1125000D02*
X1625299D01*
X1611299Y1111000D02*
Y1139000D01*
X2246000Y1545000D02*
X2274000D01*
X2260000Y1531000D02*
Y1559000D01*
X2496000Y1545000D02*
X2524000D01*
X2510000Y1531000D02*
Y1559000D01*
X1856000Y1650000D02*
X1884000D01*
X1870000Y1636000D02*
Y1664000D01*
X2106000Y1650000D02*
X2134000D01*
X2120000Y1636000D02*
Y1664000D01*
X1856000Y1750000D02*
X1884000D01*
X1870000Y1736000D02*
Y1764000D01*
X2106000Y1750000D02*
X2134000D01*
X2120000Y1736000D02*
Y1764000D01*
X1156000Y1361500D02*
X1184000D01*
X1170000Y1347500D02*
Y1375500D01*
X1156000Y1111500D02*
X1184000D01*
X1170000Y1097500D02*
Y1125500D01*
X1154500Y1761500D02*
X1185500D01*
X1170000Y1746000D02*
Y1777000D01*
X1154500Y1561500D02*
X1185500D01*
X1170000Y1546000D02*
Y1577000D01*
X1021000Y2670000D02*
X1049000D01*
X1035000Y2656000D02*
Y2684000D01*
X1021000Y2420000D02*
X1049000D01*
X1035000Y2406000D02*
Y2434000D01*
X1347299Y1995000D02*
X1375299D01*
X1361299Y1981000D02*
Y2009000D01*
X1597299Y1995000D02*
X1625299D01*
X1611299Y1981000D02*
Y2009000D01*
X1021000Y2245000D02*
X1049000D01*
X1035000Y2231000D02*
Y2259000D01*
X1021000Y1995000D02*
X1049000D01*
X1035000Y1981000D02*
Y2009000D01*
X1156000Y2245000D02*
X1184000D01*
X1170000Y2231000D02*
Y2259000D01*
X1156000Y1995000D02*
X1184000D01*
X1170000Y1981000D02*
Y2009000D01*
X584500Y2010000D02*
X615500D01*
X600000Y1994500D02*
Y2025500D01*
X384500Y2010000D02*
X415500D01*
X400000Y1994500D02*
Y2025500D01*
X584500Y2210000D02*
X615500D01*
X600000Y2194500D02*
Y2225500D01*
X384500Y2210000D02*
X415500D01*
X400000Y2194500D02*
Y2225500D01*
X361000Y2110000D02*
X389000D01*
X375000Y2096000D02*
Y2124000D01*
X611000Y2110000D02*
X639000D01*
X625000Y2096000D02*
Y2124000D01*
X361000Y2310000D02*
X389000D01*
X375000Y2296000D02*
Y2324000D01*
X611000Y2310000D02*
X639000D01*
X625000Y2296000D02*
Y2324000D01*
X584500Y2410000D02*
X615500D01*
X600000Y2394500D02*
Y2425500D01*
X384500Y2410000D02*
X415500D01*
X400000Y2394500D02*
Y2425500D01*
X361000Y2510000D02*
X389000D01*
X375000Y2496000D02*
Y2524000D01*
X611000Y2510000D02*
X639000D01*
X625000Y2496000D02*
Y2524000D01*
X1721000Y1211500D02*
X1749000D01*
X1735000Y1197500D02*
Y1225500D01*
X1721000Y1461500D02*
X1749000D01*
X1735000Y1447500D02*
Y1475500D01*
X481000Y1585000D02*
X509000D01*
X495000Y1571000D02*
Y1599000D01*
X231000Y1585000D02*
X259000D01*
X245000Y1571000D02*
Y1599000D01*
X2055315Y1099606D02*
X2094685D01*
X2075000Y1079921D02*
Y1119291D01*
X2055315Y750000D02*
X2094685D01*
X2075000Y730315D02*
Y769685D01*
X1864500Y550000D02*
X1895500D01*
X1880000Y534500D02*
Y565500D01*
X1864500Y750000D02*
X1895500D01*
X1880000Y734500D02*
Y765500D01*
X1347299Y225000D02*
X1375299D01*
X1361299Y211000D02*
Y239000D01*
X1597299Y225000D02*
X1625299D01*
X1611299Y211000D02*
Y239000D01*
X481000Y1795000D02*
X509000D01*
X495000Y1781000D02*
Y1809000D01*
X231000Y1795000D02*
X259000D01*
X245000Y1781000D02*
Y1809000D01*
X2806000Y725000D02*
X2834000D01*
X2820000Y711000D02*
Y739000D01*
X2556000Y725000D02*
X2584000D01*
X2570000Y711000D02*
Y739000D01*
X3180315Y2385000D02*
X3219685D01*
X3200000Y2365315D02*
Y2404685D01*
X3280315Y2385000D02*
X3319685D01*
X3300000Y2365315D02*
Y2404685D01*
X3180315Y2285000D02*
X3219685D01*
X3200000Y2265315D02*
Y2304685D01*
X3280315Y2285000D02*
X3319685D01*
X3300000Y2265315D02*
Y2304685D01*
X3180315Y2185000D02*
X3219685D01*
X3200000Y2165315D02*
Y2204685D01*
X3280315Y2185000D02*
X3319685D01*
X3300000Y2165315D02*
Y2204685D01*
X3180315Y2085000D02*
X3219685D01*
X3200000Y2065315D02*
Y2104685D01*
X3280315Y2085000D02*
X3319685D01*
X3300000Y2065315D02*
Y2104685D01*
X3180315Y1985000D02*
X3219685D01*
X3200000Y1965315D02*
Y2004685D01*
X3280315Y1985000D02*
X3319685D01*
X3300000Y1965315D02*
Y2004685D01*
X3180315Y1885000D02*
X3219685D01*
X3200000Y1865315D02*
Y1904685D01*
X3280315Y1885000D02*
X3319685D01*
X3300000Y1865315D02*
Y1904685D01*
X3180315Y1785000D02*
X3219685D01*
X3200000Y1765315D02*
Y1804685D01*
X3280315Y1785000D02*
X3319685D01*
X3300000Y1765315D02*
Y1804685D01*
X3180315Y1685000D02*
X3219685D01*
X3200000Y1665315D02*
Y1704685D01*
X3280315Y1685000D02*
X3319685D01*
X3300000Y1665315D02*
Y1704685D01*
X3180315Y1585000D02*
X3219685D01*
X3200000Y1565315D02*
Y1604685D01*
X3280315Y1585000D02*
X3319685D01*
X3300000Y1565315D02*
Y1604685D01*
X3180315Y1485000D02*
X3219685D01*
X3200000Y1465315D02*
Y1504685D01*
X3280315Y1485000D02*
X3319685D01*
X3300000Y1465315D02*
Y1504685D01*
X3180315Y1385000D02*
X3219685D01*
X3200000Y1365315D02*
Y1404685D01*
X3280315Y1385000D02*
X3319685D01*
X3300000Y1365315D02*
Y1404685D01*
X3180315Y1285000D02*
X3219685D01*
X3200000Y1265315D02*
Y1304685D01*
X3280315Y1285000D02*
X3319685D01*
X3300000Y1265315D02*
Y1304685D01*
X3180315Y1185000D02*
X3219685D01*
X3200000Y1165315D02*
Y1204685D01*
X3280315Y1185000D02*
X3319685D01*
X3300000Y1165315D02*
Y1204685D01*
X3180315Y1085000D02*
X3219685D01*
X3200000Y1065315D02*
Y1104685D01*
X3280315Y1085000D02*
X3319685D01*
X3300000Y1065315D02*
Y1104685D01*
X3180315Y985000D02*
X3219685D01*
X3200000Y965315D02*
Y1004685D01*
X3280315Y985000D02*
X3319685D01*
X3300000Y965315D02*
Y1004685D01*
X3180315Y885000D02*
X3219685D01*
X3200000Y865315D02*
Y904685D01*
X3280315Y885000D02*
X3319685D01*
X3300000Y865315D02*
Y904685D01*
X3180315Y785000D02*
X3219685D01*
X3200000Y765315D02*
Y804685D01*
X3280315Y785000D02*
X3319685D01*
X3300000Y765315D02*
Y804685D01*
X3180315Y685000D02*
X3219685D01*
X3200000Y665315D02*
Y704685D01*
X3280315Y685000D02*
X3319685D01*
X3300000Y665315D02*
Y704685D01*
X3180315Y585000D02*
X3219685D01*
X3200000Y565315D02*
Y604685D01*
X3280315Y585000D02*
X3319685D01*
X3300000Y565315D02*
Y604685D01*
X3180315Y485000D02*
X3219685D01*
X3200000Y465315D02*
Y504685D01*
X3280315Y485000D02*
X3319685D01*
X3300000Y465315D02*
Y504685D01*
X68898Y118110D02*
X167323D01*
X118110Y68898D02*
Y167323D01*
X68898Y2834646D02*
X167323D01*
X118110Y2785433D02*
Y2883858D01*
X3375984Y2834646D02*
X3474410D01*
X3425197Y2785433D02*
Y2883858D01*
X3375984Y118110D02*
X3474410D01*
X3425197Y68898D02*
Y167323D01*
X2361000Y1370000D02*
X2389000D01*
X2375000Y1356000D02*
Y1384000D01*
X1466000Y1125000D02*
X1494000D01*
X1480000Y1111000D02*
Y1139000D01*
X1471000Y1995000D02*
X1499000D01*
X1485000Y1981000D02*
Y2009000D01*
X1836000Y225000D02*
X1864000D01*
X1850000Y211000D02*
Y239000D01*
%TF.MD5,b7156ffd7b138275d80770b2446c5480*%
M02*
