G04*
G04 #@! TF.GenerationSoftware,Altium Limited,Altium Designer,23.3.1 (30)*
G04*
G04 Layer_Color=16711935*
%FSTAX25Y25*%
%MOIN*%
G70*
G04*
G04 #@! TF.SameCoordinates,9A05AFE5-7EB6-4EC5-A0C1-68252A558CAD*
G04*
G04*
G04 #@! TF.FilePolarity,Positive*
G04*
G01*
G75*
%ADD11C,0.00787*%
G36*
X0271519Y0156532D02*
X0271515Y0156466D01*
X0271512Y0156394D01*
X0271504Y0156321D01*
X0271493Y0156248D01*
X0271482Y0156186D01*
Y0156182D01*
X0271479Y0156175D01*
Y0156164D01*
X0271472Y015615D01*
X0271461Y0156109D01*
X0271442Y0156059D01*
X0271417Y0156D01*
X0271384Y0155938D01*
X0271348Y0155877D01*
X02713Y0155818D01*
X0271297Y0155815D01*
X0271293Y0155811D01*
X0271282Y01558D01*
X0271271Y0155786D01*
X0271235Y0155749D01*
X0271184Y0155705D01*
X0271122Y0155658D01*
X0271049Y0155607D01*
X0270966Y015556D01*
X0270871Y015552D01*
X0270867D01*
X027086Y0155516D01*
X0270845Y0155509D01*
X0270824Y0155505D01*
X0270798Y0155494D01*
X0270769Y0155487D01*
X0270736Y015548D01*
X0270696Y0155469D01*
X0270656Y0155458D01*
X0270609Y0155451D01*
X0270507Y0155432D01*
X0270394Y0155422D01*
X027027Y0155418D01*
X0270267D01*
X0270259D01*
X0270241D01*
X0270223D01*
X0270198Y0155422D01*
X0270168D01*
X0270099Y0155425D01*
X0270019Y0155436D01*
X0269935Y0155447D01*
X0269848Y0155465D01*
X0269761Y0155487D01*
X0269757D01*
X026975Y0155491D01*
X0269739Y0155494D01*
X0269724Y0155498D01*
X0269684Y0155513D01*
X0269633Y0155534D01*
X0269575Y0155556D01*
X0269517Y0155585D01*
X0269455Y0155622D01*
X0269397Y0155658D01*
X0269389Y0155662D01*
X0269371Y0155676D01*
X0269346Y0155698D01*
X0269313Y0155727D01*
X0269277Y015576D01*
X026924Y01558D01*
X02692Y015584D01*
X0269167Y0155887D01*
X0269164Y0155895D01*
X0269153Y0155909D01*
X0269138Y0155935D01*
X026912Y0155971D01*
X0269098Y0156015D01*
X026908Y0156066D01*
X0269058Y0156124D01*
X026904Y015619D01*
Y0156197D01*
X0269036Y0156208D01*
X0269033Y0156219D01*
X0269029Y0156255D01*
X0269022Y0156306D01*
X0269015Y0156364D01*
X0269007Y0156433D01*
X0269004Y015651D01*
X0269Y0156594D01*
Y01575D01*
X0271519D01*
Y0156532D01*
D02*
G37*
G36*
X0269069Y0155127D02*
X0269102Y0155123D01*
X0269138Y0155116D01*
X0269175Y0155108D01*
X0269215Y0155094D01*
X0269218D01*
X0269222Y015509D01*
X0269244Y0155083D01*
X0269277Y0155069D01*
X026932Y0155047D01*
X0269371Y0155018D01*
X0269429Y0154981D01*
X0269488Y0154941D01*
X026955Y015489D01*
X0269553D01*
X0269557Y0154883D01*
X0269579Y0154865D01*
X0269612Y0154832D01*
X0269659Y0154785D01*
X0269713Y015473D01*
X0269779Y0154661D01*
X0269852Y0154577D01*
X0269928Y0154486D01*
X0269932Y0154482D01*
X0269943Y0154468D01*
X0269961Y0154446D01*
X0269983Y0154421D01*
X0270012Y0154388D01*
X0270045Y0154348D01*
X0270081Y0154308D01*
X0270121Y015426D01*
X0270208Y0154169D01*
X0270296Y0154078D01*
X0270339Y0154035D01*
X0270383Y0153995D01*
X0270423Y0153958D01*
X0270463Y0153929D01*
X0270467D01*
X027047Y0153922D01*
X0270481Y0153915D01*
X0270496Y0153907D01*
X0270536Y0153882D01*
X0270583Y0153853D01*
X0270642Y0153827D01*
X0270704Y0153802D01*
X0270773Y0153787D01*
X0270838Y015378D01*
X0270842D01*
X0270845D01*
X0270867Y0153784D01*
X0270904Y0153787D01*
X0270944Y0153798D01*
X0270995Y0153813D01*
X0271046Y0153838D01*
X0271097Y0153871D01*
X0271148Y0153915D01*
X0271155Y0153922D01*
X0271169Y015394D01*
X0271188Y0153966D01*
X0271213Y0154006D01*
X0271235Y0154057D01*
X0271257Y0154115D01*
X0271271Y0154184D01*
X0271275Y015426D01*
Y0154282D01*
X0271271Y0154297D01*
X0271268Y0154341D01*
X0271257Y0154392D01*
X0271242Y0154446D01*
X0271217Y0154508D01*
X0271184Y0154566D01*
X027114Y0154621D01*
X0271133Y0154628D01*
X0271115Y0154643D01*
X0271086Y0154665D01*
X0271042Y0154686D01*
X0270991Y0154712D01*
X0270925Y0154734D01*
X0270853Y0154748D01*
X0270769Y0154755D01*
X0270802Y0155072D01*
X0270805D01*
X0270816Y0155069D01*
X0270834D01*
X027086Y0155065D01*
X0270889Y0155058D01*
X0270922Y015505D01*
X0270962Y0155039D01*
X0271002Y0155028D01*
X0271089Y0154999D01*
X0271177Y0154956D01*
X027122Y015493D01*
X0271264Y0154897D01*
X0271304Y0154865D01*
X027134Y0154828D01*
X0271344Y0154825D01*
X0271348Y0154817D01*
X0271359Y0154806D01*
X027137Y0154788D01*
X0271384Y0154766D01*
X0271399Y0154741D01*
X0271417Y0154712D01*
X0271435Y0154675D01*
X0271453Y0154635D01*
X0271472Y0154592D01*
X0271486Y0154544D01*
X0271501Y0154493D01*
X0271512Y0154439D01*
X0271522Y0154381D01*
X0271526Y0154319D01*
X027153Y0154253D01*
Y0154217D01*
X0271526Y0154191D01*
X0271522Y0154162D01*
X0271519Y0154126D01*
X0271512Y0154086D01*
X0271504Y0154046D01*
X0271479Y0153951D01*
X0271442Y0153856D01*
X0271421Y0153809D01*
X0271395Y0153762D01*
X0271362Y0153718D01*
X0271326Y0153678D01*
X0271322Y0153674D01*
X0271319Y0153667D01*
X0271304Y015366D01*
X0271289Y0153645D01*
X0271271Y0153627D01*
X0271246Y0153609D01*
X027122Y0153591D01*
X0271188Y0153569D01*
X0271118Y0153532D01*
X0271031Y0153496D01*
X0270987Y0153481D01*
X0270936Y0153474D01*
X0270885Y0153467D01*
X0270831Y0153463D01*
X0270824D01*
X0270805D01*
X0270776Y0153467D01*
X0270736Y0153471D01*
X0270693Y0153478D01*
X0270642Y0153492D01*
X0270587Y0153507D01*
X0270532Y0153529D01*
X0270525Y0153532D01*
X0270507Y015354D01*
X0270478Y0153554D01*
X0270438Y0153576D01*
X0270394Y0153605D01*
X0270339Y0153642D01*
X0270285Y0153685D01*
X0270223Y0153736D01*
X0270216Y0153744D01*
X0270194Y0153762D01*
X0270176Y015378D01*
X0270158Y0153798D01*
X0270136Y015382D01*
X0270107Y0153849D01*
X0270077Y0153878D01*
X0270045Y0153915D01*
X0270008Y0153951D01*
X0269968Y0153995D01*
X0269928Y0154042D01*
X0269881Y0154093D01*
X0269833Y0154151D01*
X0269783Y0154209D01*
X0269779Y0154213D01*
X0269772Y015422D01*
X0269761Y0154235D01*
X0269746Y0154253D01*
X0269724Y0154275D01*
X0269703Y01543D01*
X0269655Y0154359D01*
X0269601Y0154421D01*
X0269546Y0154479D01*
X0269499Y015453D01*
X026948Y0154552D01*
X0269462Y015457D01*
X0269459Y0154574D01*
X0269448Y0154584D01*
X0269433Y0154599D01*
X0269411Y0154617D01*
X0269386Y0154635D01*
X026936Y0154657D01*
X0269298Y0154701D01*
Y015346D01*
X0269D01*
Y015513D01*
X0269004D01*
X0269018D01*
X026904D01*
X0269069Y0155127D01*
D02*
G37*
G36*
X0202Y0205749D02*
X0200031D01*
X0200034Y0205745D01*
X0200049Y0205727D01*
X0200071Y0205705D01*
X0200096Y0205669D01*
X0200129Y0205629D01*
X0200166Y0205578D01*
X0200205Y020552D01*
X0200246Y0205454D01*
Y0205451D01*
X0200249Y0205447D01*
X0200264Y0205425D01*
X0200282Y0205389D01*
X0200304Y0205345D01*
X0200329Y0205294D01*
X0200355Y0205239D01*
X020038Y0205185D01*
X0200402Y020513D01*
X0200104D01*
Y0205134D01*
X0200096Y0205141D01*
X0200093Y0205156D01*
X0200082Y0205174D01*
X0200071Y0205196D01*
X0200056Y0205221D01*
X020002Y0205283D01*
X019998Y0205356D01*
X0199929Y0205429D01*
X0199871Y0205505D01*
X0199809Y0205581D01*
X0199805Y0205585D01*
X0199802Y0205589D01*
X0199791Y02056D01*
X019978Y0205614D01*
X0199743Y0205647D01*
X01997Y0205691D01*
X0199649Y0205734D01*
X019959Y0205782D01*
X0199532Y0205822D01*
X019947Y0205858D01*
Y0206058D01*
X0202D01*
Y0205749D01*
D02*
G37*
G36*
X0200802Y0204559D02*
X0200832D01*
X0200901Y0204555D01*
X0200981Y0204544D01*
X0201065Y0204533D01*
X0201152Y0204515D01*
X0201239Y0204493D01*
X0201243D01*
X020125Y0204489D01*
X0201261Y0204486D01*
X0201276Y0204482D01*
X0201316Y0204468D01*
X0201367Y0204446D01*
X0201425Y0204424D01*
X0201483Y0204395D01*
X0201545Y0204359D01*
X0201603Y0204322D01*
X0201611Y0204318D01*
X0201629Y0204304D01*
X0201654Y0204282D01*
X0201687Y0204253D01*
X0201723Y020422D01*
X020176Y020418D01*
X02018Y020414D01*
X0201833Y0204093D01*
X0201836Y0204085D01*
X0201847Y0204071D01*
X0201862Y0204046D01*
X020188Y0204009D01*
X0201902Y0203965D01*
X020192Y0203914D01*
X0201942Y0203856D01*
X020196Y0203791D01*
Y0203783D01*
X0201964Y0203772D01*
X0201967Y0203762D01*
X0201971Y0203725D01*
X0201978Y0203674D01*
X0201986Y0203616D01*
X0201993Y0203547D01*
X0201996Y020347D01*
X0202Y0203387D01*
Y020248D01*
X0199481D01*
Y0203449D01*
X0199485Y0203514D01*
X0199488Y0203587D01*
X0199496Y020366D01*
X0199507Y0203732D01*
X0199518Y0203794D01*
Y0203798D01*
X0199521Y0203805D01*
Y0203816D01*
X0199529Y0203831D01*
X0199539Y0203871D01*
X0199558Y0203922D01*
X0199583Y020398D01*
X0199616Y0204042D01*
X0199652Y0204104D01*
X01997Y0204162D01*
X0199703Y0204166D01*
X0199707Y0204169D01*
X0199718Y020418D01*
X0199729Y0204195D01*
X0199765Y0204231D01*
X0199816Y0204275D01*
X0199878Y0204322D01*
X0199951Y0204373D01*
X0200034Y020442D01*
X0200129Y020446D01*
X0200133D01*
X020014Y0204464D01*
X0200155Y0204471D01*
X0200176Y0204475D01*
X0200202Y0204486D01*
X0200231Y0204493D01*
X0200264Y0204501D01*
X0200304Y0204511D01*
X0200344Y0204522D01*
X0200391Y020453D01*
X0200493Y0204548D01*
X0200606Y0204559D01*
X020073Y0204562D01*
X0200733D01*
X0200741D01*
X0200759D01*
X0200777D01*
X0200802Y0204559D01*
D02*
G37*
G36*
X0149778Y0262656D02*
X0147947Y0262D01*
X0147943D01*
X0147936Y0261997D01*
X0147925Y0261993D01*
X014791Y0261986D01*
X0147889Y0261982D01*
X0147867Y0261975D01*
X0147812Y0261957D01*
X014775Y0261935D01*
X0147681Y0261913D01*
X0147536Y0261869D01*
X0147539D01*
X0147546Y0261866D01*
X0147557Y0261862D01*
X0147572Y0261859D01*
X0147612Y0261848D01*
X0147667Y0261829D01*
X0147728Y0261811D01*
X0147798Y0261789D01*
X014787Y0261764D01*
X0147947Y0261735D01*
X0149778Y026105D01*
Y0260712D01*
X0147259Y0261695D01*
Y0262044D01*
X0149778Y026302D01*
Y0262656D01*
D02*
G37*
G36*
Y0259238D02*
X0149774Y0259209D01*
Y0259176D01*
X014977Y0259099D01*
X0149759Y0259019D01*
X0149749Y0258932D01*
X014973Y0258852D01*
X014972Y0258812D01*
X0149709Y0258779D01*
Y0258775D01*
X0149705Y0258772D01*
X0149694Y025875D01*
X014968Y0258717D01*
X0149654Y0258677D01*
X0149621Y0258633D01*
X0149577Y0258586D01*
X0149527Y0258542D01*
X0149468Y0258499D01*
X0149465D01*
X0149461Y0258495D01*
X0149439Y0258481D01*
X0149403Y0258466D01*
X0149355Y0258444D01*
X0149301Y0258426D01*
X0149235Y0258408D01*
X0149166Y0258397D01*
X014909Y0258393D01*
X0149086D01*
X0149079D01*
X0149064D01*
X0149046Y0258397D01*
X0149021D01*
X0148995Y0258401D01*
X0148933Y0258415D01*
X0148861Y0258437D01*
X0148784Y0258466D01*
X0148708Y025851D01*
X0148671Y0258539D01*
X0148635Y0258568D01*
X0148631Y0258572D01*
X0148627Y0258575D01*
X0148617Y0258586D01*
X0148606Y0258601D01*
X0148591Y0258619D01*
X0148576Y0258641D01*
X0148558Y025867D01*
X0148537Y0258699D01*
X0148518Y0258735D01*
X01485Y0258775D01*
X0148478Y0258819D01*
X014846Y0258866D01*
X0148445Y0258921D01*
X0148427Y0258976D01*
X0148416Y0259037D01*
X0148406Y0259103D01*
X0148402Y0259096D01*
X0148395Y0259081D01*
X014838Y0259059D01*
X0148365Y025903D01*
X0148325Y0258965D01*
X01483Y0258932D01*
X0148278Y0258903D01*
X0148271Y0258896D01*
X0148253Y0258877D01*
X0148223Y0258848D01*
X0148187Y0258812D01*
X0148136Y0258772D01*
X0148082Y0258724D01*
X0148016Y0258677D01*
X0147943Y0258626D01*
X0147259Y0258193D01*
Y0258608D01*
X0147783Y0258939D01*
X0147787D01*
X0147794Y0258946D01*
X0147805Y0258954D01*
X0147819Y0258965D01*
X014786Y025899D01*
X014791Y0259023D01*
X0147965Y0259063D01*
X0148023Y0259103D01*
X0148078Y0259143D01*
X0148129Y0259179D01*
X0148133Y0259183D01*
X0148147Y0259194D01*
X0148169Y0259212D01*
X0148194Y0259238D01*
X0148249Y0259292D01*
X0148274Y0259321D01*
X0148296Y0259351D01*
X01483Y0259354D01*
X0148303Y0259362D01*
X0148311Y0259376D01*
X0148322Y0259398D01*
X0148333Y025942D01*
X0148344Y0259445D01*
X0148362Y0259503D01*
Y0259507D01*
X0148365Y0259514D01*
Y0259529D01*
X0148369Y0259547D01*
X0148373Y0259573D01*
Y0259602D01*
X0148376Y0259642D01*
Y0260071D01*
X0147259D01*
Y0260406D01*
X0149778D01*
Y0259238D01*
D02*
G37*
G36*
X0149155Y0257756D02*
X0149163Y0257749D01*
X0149166Y0257734D01*
X0149177Y0257716D01*
X0149188Y0257694D01*
X0149203Y0257669D01*
X0149239Y0257607D01*
X0149279Y0257534D01*
X014933Y0257461D01*
X0149388Y0257385D01*
X014945Y0257309D01*
X0149454Y0257305D01*
X0149457Y0257301D01*
X0149468Y025729D01*
X0149479Y0257276D01*
X0149516Y0257243D01*
X0149559Y0257199D01*
X014961Y0257156D01*
X0149669Y0257108D01*
X0149727Y0257068D01*
X0149789Y0257032D01*
Y0256832D01*
X0147259D01*
Y0257141D01*
X0149228D01*
X0149224Y0257145D01*
X014921Y0257163D01*
X0149188Y0257185D01*
X0149163Y0257221D01*
X014913Y0257261D01*
X0149093Y0257312D01*
X0149053Y025737D01*
X0149013Y0257436D01*
Y025744D01*
X014901Y0257443D01*
X0148995Y0257465D01*
X0148977Y0257501D01*
X0148955Y0257545D01*
X014893Y0257596D01*
X0148904Y0257651D01*
X0148879Y0257705D01*
X0148857Y025776D01*
X0149155D01*
Y0257756D01*
D02*
G37*
G36*
X0149321Y0082656D02*
X0147491Y0082D01*
X0147487D01*
X014748Y0081997D01*
X0147469Y0081993D01*
X0147454Y0081986D01*
X0147432Y0081982D01*
X014741Y0081975D01*
X0147356Y0081957D01*
X0147294Y0081935D01*
X0147225Y0081913D01*
X0147079Y0081869D01*
X0147083D01*
X014709Y0081866D01*
X0147101Y0081862D01*
X0147116Y0081858D01*
X0147156Y0081848D01*
X014721Y0081829D01*
X0147272Y0081811D01*
X0147341Y0081789D01*
X0147414Y0081764D01*
X0147491Y0081735D01*
X0149321Y008105D01*
Y0080712D01*
X0146802Y0081695D01*
Y0082044D01*
X0149321Y008302D01*
Y0082656D01*
D02*
G37*
G36*
Y0079238D02*
X0149318Y0079209D01*
Y0079176D01*
X0149314Y0079099D01*
X0149303Y0079019D01*
X0149292Y0078932D01*
X0149274Y0078852D01*
X0149263Y0078812D01*
X0149252Y0078779D01*
Y0078775D01*
X0149249Y0078772D01*
X0149238Y007875D01*
X0149223Y0078717D01*
X0149198Y0078677D01*
X0149165Y0078633D01*
X0149121Y0078586D01*
X014907Y0078543D01*
X0149012Y0078499D01*
X0149008D01*
X0149005Y0078495D01*
X0148983Y0078481D01*
X0148946Y0078466D01*
X0148899Y0078444D01*
X0148845Y0078426D01*
X0148779Y0078408D01*
X014871Y0078397D01*
X0148634Y0078393D01*
X014863D01*
X0148623D01*
X0148608D01*
X014859Y0078397D01*
X0148564D01*
X0148539Y00784D01*
X0148477Y0078415D01*
X0148404Y0078437D01*
X0148328Y0078466D01*
X0148251Y007851D01*
X0148215Y0078539D01*
X0148179Y0078568D01*
X0148175Y0078572D01*
X0148171Y0078575D01*
X014816Y0078586D01*
X0148149Y0078601D01*
X0148135Y0078619D01*
X014812Y0078641D01*
X0148102Y007867D01*
X014808Y0078699D01*
X0148062Y0078735D01*
X0148044Y0078775D01*
X0148022Y0078819D01*
X0148004Y0078866D01*
X0147989Y0078921D01*
X0147971Y0078976D01*
X014796Y0079037D01*
X0147949Y0079103D01*
X0147945Y0079096D01*
X0147938Y0079081D01*
X0147924Y0079059D01*
X0147909Y007903D01*
X0147869Y0078965D01*
X0147844Y0078932D01*
X0147822Y0078903D01*
X0147815Y0078896D01*
X0147796Y0078877D01*
X0147767Y0078848D01*
X0147731Y0078812D01*
X014768Y0078772D01*
X0147625Y0078724D01*
X014756Y0078677D01*
X0147487Y0078626D01*
X0146802Y0078193D01*
Y0078608D01*
X0147327Y0078939D01*
X014733D01*
X0147338Y0078947D01*
X0147349Y0078954D01*
X0147363Y0078965D01*
X0147403Y007899D01*
X0147454Y0079023D01*
X0147509Y0079063D01*
X0147567Y0079103D01*
X0147622Y0079143D01*
X0147672Y007918D01*
X0147676Y0079183D01*
X0147691Y0079194D01*
X0147713Y0079212D01*
X0147738Y0079238D01*
X0147793Y0079292D01*
X0147818Y0079321D01*
X014784Y0079351D01*
X0147844Y0079354D01*
X0147847Y0079361D01*
X0147854Y0079376D01*
X0147865Y0079398D01*
X0147876Y007942D01*
X0147887Y0079445D01*
X0147906Y0079503D01*
Y0079507D01*
X0147909Y0079514D01*
Y0079529D01*
X0147913Y0079547D01*
X0147916Y0079573D01*
Y0079602D01*
X014792Y0079642D01*
Y0080071D01*
X0146802D01*
Y0080406D01*
X0149321D01*
Y0079238D01*
D02*
G37*
G36*
X0147509Y0077683D02*
X0147505D01*
X0147498Y007768D01*
X0147483Y0077676D01*
X0147465Y0077672D01*
X0147443Y0077669D01*
X0147418Y0077662D01*
X0147363Y0077643D01*
X0147298Y0077618D01*
X0147236Y0077585D01*
X0147178Y0077549D01*
X0147126Y0077505D01*
X0147123Y0077498D01*
X0147108Y0077483D01*
X014709Y0077454D01*
X0147072Y0077418D01*
X014705Y0077374D01*
X0147032Y0077319D01*
X0147017Y0077258D01*
X0147014Y0077192D01*
Y007717D01*
X0147017Y0077156D01*
X0147021Y0077116D01*
X0147032Y0077065D01*
X014705Y0077006D01*
X0147075Y0076945D01*
X0147112Y0076883D01*
X0147163Y0076824D01*
X014717Y0076817D01*
X0147192Y0076799D01*
X0147225Y0076777D01*
X0147268Y0076748D01*
X0147323Y0076719D01*
X0147385Y0076697D01*
X0147458Y0076679D01*
X0147538Y0076671D01*
X0147541D01*
X0147549D01*
X014756D01*
X0147574Y0076675D01*
X0147614Y0076679D01*
X0147662Y007669D01*
X014772Y0076704D01*
X0147778Y007673D01*
X0147836Y0076766D01*
X0147891Y0076814D01*
X0147898Y0076821D01*
X0147913Y0076839D01*
X0147935Y0076868D01*
X014796Y0076908D01*
X0147985Y0076959D01*
X0148007Y0077021D01*
X0148022Y007709D01*
X0148029Y0077167D01*
Y0077199D01*
X0148026Y0077225D01*
X0148022Y0077258D01*
X0148015Y0077294D01*
X0148007Y0077338D01*
X0147996Y0077385D01*
X0148269Y0077349D01*
Y007733D01*
X0148266Y0077316D01*
Y0077268D01*
X0148273Y0077228D01*
X014828Y0077181D01*
X0148291Y0077126D01*
X014831Y0077065D01*
X0148335Y0077006D01*
X0148368Y0076945D01*
Y0076941D01*
X0148371Y0076937D01*
X0148386Y0076919D01*
X0148411Y0076894D01*
X0148444Y0076864D01*
X0148492Y0076835D01*
X0148546Y007681D01*
X0148608Y0076792D01*
X0148644Y0076784D01*
X0148684D01*
X0148688D01*
X0148692D01*
X0148714D01*
X0148743Y0076792D01*
X0148783Y0076799D01*
X0148826Y0076814D01*
X0148874Y0076832D01*
X0148921Y0076861D01*
X0148965Y0076901D01*
X0148968Y0076904D01*
X0148983Y0076923D01*
X0149001Y0076948D01*
X0149023Y0076981D01*
X0149041Y0077025D01*
X0149059Y0077076D01*
X0149074Y0077134D01*
X0149077Y0077199D01*
Y0077228D01*
X014907Y0077261D01*
X0149063Y0077305D01*
X0149048Y0077352D01*
X014903Y0077399D01*
X0149001Y0077451D01*
X0148965Y0077498D01*
X0148961Y0077501D01*
X0148943Y0077516D01*
X0148917Y0077538D01*
X0148881Y0077563D01*
X0148834Y0077589D01*
X0148775Y0077614D01*
X0148706Y0077636D01*
X0148626Y0077651D01*
X0148681Y007796D01*
X0148684D01*
X0148695Y0077956D01*
X014871Y0077953D01*
X0148732Y0077949D01*
X0148757Y0077942D01*
X0148786Y0077931D01*
X0148855Y0077909D01*
X0148936Y0077873D01*
X0149016Y0077829D01*
X0149092Y0077774D01*
X0149161Y0077705D01*
X0149165Y0077702D01*
X0149169Y0077694D01*
X0149176Y0077683D01*
X0149187Y0077669D01*
X0149201Y0077651D01*
X0149216Y0077625D01*
X014923Y00776D01*
X0149249Y0077567D01*
X0149278Y0077494D01*
X0149307Y007741D01*
X0149325Y0077312D01*
X0149332Y0077261D01*
Y007717D01*
X0149329Y007713D01*
X0149321Y0077083D01*
X0149311Y0077025D01*
X0149292Y0076959D01*
X014927Y0076894D01*
X0149241Y0076828D01*
Y0076824D01*
X0149238Y0076821D01*
X0149227Y0076799D01*
X0149205Y0076766D01*
X0149179Y007673D01*
X0149143Y0076686D01*
X0149103Y0076642D01*
X0149056Y0076599D01*
X0149001Y0076562D01*
X0148994Y0076559D01*
X0148976Y0076548D01*
X0148943Y0076533D01*
X0148903Y0076515D01*
X0148855Y0076497D01*
X0148801Y0076482D01*
X0148739Y0076471D01*
X0148677Y0076468D01*
X014867D01*
X0148648D01*
X0148619Y0076471D01*
X0148579Y0076479D01*
X0148531Y007649D01*
X0148481Y0076508D01*
X014843Y007653D01*
X0148379Y0076559D01*
X0148371Y0076562D01*
X0148357Y0076573D01*
X0148331Y0076595D01*
X0148302Y0076624D01*
X0148269Y0076661D01*
X0148233Y0076704D01*
X01482Y0076755D01*
X0148168Y0076817D01*
Y0076814D01*
X0148164Y0076806D01*
X014816Y0076795D01*
X0148157Y0076781D01*
X0148142Y0076741D01*
X014812Y007669D01*
X0148091Y0076631D01*
X0148055Y0076573D01*
X0148007Y0076519D01*
X0147953Y0076468D01*
X0147945Y0076464D01*
X0147924Y007645D01*
X0147887Y0076428D01*
X014784Y0076406D01*
X0147782Y0076384D01*
X0147713Y0076362D01*
X0147633Y0076348D01*
X0147545Y0076344D01*
X0147541D01*
X014753D01*
X0147512D01*
X0147491Y0076348D01*
X0147461Y0076351D01*
X0147429Y0076358D01*
X0147392Y0076366D01*
X0147352Y0076373D01*
X0147265Y0076402D01*
X0147218Y0076424D01*
X0147174Y0076446D01*
X0147126Y0076475D01*
X0147079Y0076508D01*
X0147032Y0076544D01*
X0146988Y0076588D01*
X0146985Y0076591D01*
X0146977Y0076599D01*
X0146966Y0076613D01*
X0146952Y0076631D01*
X0146934Y0076653D01*
X0146915Y0076682D01*
X0146894Y0076715D01*
X0146875Y0076755D01*
X0146853Y0076795D01*
X0146832Y0076843D01*
X0146813Y007689D01*
X0146795Y0076945D01*
X0146781Y0077003D01*
X014677Y0077065D01*
X0146763Y0077126D01*
X0146759Y0077196D01*
Y0077228D01*
X0146763Y007725D01*
X0146766Y0077279D01*
X014677Y0077312D01*
X0146777Y0077349D01*
X0146784Y0077389D01*
X0146806Y0077476D01*
X0146843Y0077567D01*
X0146864Y0077614D01*
X014689Y0077658D01*
X0146923Y0077702D01*
X0146955Y0077745D01*
X0146959Y0077749D01*
X0146966Y0077756D01*
X0146977Y0077767D01*
X0146992Y0077778D01*
X014701Y0077796D01*
X0147036Y0077815D01*
X0147061Y0077836D01*
X0147094Y0077858D01*
X014713Y007788D01*
X0147167Y0077902D01*
X0147254Y0077942D01*
X0147356Y0077975D01*
X014741Y0077986D01*
X0147469Y0077993D01*
X0147509Y0077683D01*
D02*
G37*
G36*
X0149278Y0174656D02*
X0147447Y0174001D01*
X0147443D01*
X0147436Y0173997D01*
X0147425Y0173993D01*
X014741Y0173986D01*
X0147389Y0173982D01*
X0147367Y0173975D01*
X0147312Y0173957D01*
X014725Y0173935D01*
X0147181Y0173913D01*
X0147036Y0173869D01*
X0147039D01*
X0147046Y0173866D01*
X0147057Y0173862D01*
X0147072Y0173858D01*
X0147112Y0173848D01*
X0147167Y0173829D01*
X0147228Y0173811D01*
X0147298Y0173789D01*
X014737Y0173764D01*
X0147447Y0173735D01*
X0149278Y017305D01*
Y0172712D01*
X0146759Y0173695D01*
Y0174044D01*
X0149278Y017502D01*
Y0174656D01*
D02*
G37*
G36*
Y0171238D02*
X0149274Y0171209D01*
Y0171176D01*
X014927Y0171099D01*
X0149259Y0171019D01*
X0149249Y0170932D01*
X014923Y0170852D01*
X014922Y0170812D01*
X0149209Y0170779D01*
Y0170775D01*
X0149205Y0170772D01*
X0149194Y017075D01*
X0149179Y0170717D01*
X0149154Y0170677D01*
X0149121Y0170633D01*
X0149077Y0170586D01*
X0149027Y0170543D01*
X0148968Y0170499D01*
X0148965D01*
X0148961Y0170495D01*
X0148939Y0170481D01*
X0148903Y0170466D01*
X0148855Y0170444D01*
X0148801Y0170426D01*
X0148735Y0170408D01*
X0148666Y0170397D01*
X014859Y0170393D01*
X0148586D01*
X0148579D01*
X0148564D01*
X0148546Y0170397D01*
X0148521D01*
X0148495Y0170401D01*
X0148433Y0170415D01*
X0148361Y0170437D01*
X0148284Y0170466D01*
X0148208Y017051D01*
X0148171Y0170539D01*
X0148135Y0170568D01*
X0148131Y0170572D01*
X0148127Y0170575D01*
X0148117Y0170586D01*
X0148106Y0170601D01*
X0148091Y0170619D01*
X0148076Y0170641D01*
X0148058Y017067D01*
X0148037Y0170699D01*
X0148018Y0170735D01*
X0148Y0170775D01*
X0147978Y0170819D01*
X014796Y0170866D01*
X0147945Y0170921D01*
X0147927Y0170976D01*
X0147916Y0171037D01*
X0147906Y0171103D01*
X0147902Y0171096D01*
X0147895Y0171081D01*
X014788Y0171059D01*
X0147865Y017103D01*
X0147825Y0170965D01*
X01478Y0170932D01*
X0147778Y0170903D01*
X0147771Y0170896D01*
X0147753Y0170877D01*
X0147723Y0170848D01*
X0147687Y0170812D01*
X0147636Y0170772D01*
X0147582Y0170724D01*
X0147516Y0170677D01*
X0147443Y0170626D01*
X0146759Y0170193D01*
Y0170608D01*
X0147283Y0170939D01*
X0147287D01*
X0147294Y0170947D01*
X0147305Y0170954D01*
X0147319Y0170965D01*
X014736Y017099D01*
X014741Y0171023D01*
X0147465Y0171063D01*
X0147523Y0171103D01*
X0147578Y0171143D01*
X0147629Y0171179D01*
X0147633Y0171183D01*
X0147647Y0171194D01*
X0147669Y0171212D01*
X0147694Y0171238D01*
X0147749Y0171292D01*
X0147774Y0171321D01*
X0147796Y0171351D01*
X01478Y0171354D01*
X0147803Y0171361D01*
X0147811Y0171376D01*
X0147822Y0171398D01*
X0147833Y017142D01*
X0147844Y0171445D01*
X0147862Y0171503D01*
Y0171507D01*
X0147865Y0171514D01*
Y0171529D01*
X0147869Y0171547D01*
X0147873Y0171573D01*
Y0171602D01*
X0147876Y0171642D01*
Y0172071D01*
X0146759D01*
Y0172406D01*
X0149278D01*
Y0171238D01*
D02*
G37*
G36*
X0146828Y0170036D02*
X0146861Y0170033D01*
X0146897Y0170026D01*
X0146934Y0170018D01*
X0146974Y0170004D01*
X0146977D01*
X0146981Y017D01*
X0147003Y0169993D01*
X0147036Y0169978D01*
X0147079Y0169956D01*
X014713Y0169927D01*
X0147188Y0169891D01*
X0147247Y0169851D01*
X0147309Y01698D01*
X0147312D01*
X0147316Y0169793D01*
X0147338Y0169774D01*
X014737Y0169742D01*
X0147418Y0169694D01*
X0147472Y016964D01*
X0147538Y0169571D01*
X0147611Y0169487D01*
X0147687Y0169396D01*
X0147691Y0169392D01*
X0147702Y0169378D01*
X014772Y0169356D01*
X0147742Y016933D01*
X0147771Y0169298D01*
X0147803Y0169258D01*
X014784Y0169218D01*
X014788Y016917D01*
X0147967Y0169079D01*
X0148055Y0168988D01*
X0148098Y0168945D01*
X0148142Y0168904D01*
X0148182Y0168868D01*
X0148222Y0168839D01*
X0148226D01*
X0148229Y0168832D01*
X014824Y0168824D01*
X0148255Y0168817D01*
X0148295Y0168792D01*
X0148342Y0168763D01*
X01484Y0168737D01*
X0148462Y0168712D01*
X0148531Y0168697D01*
X0148597Y016869D01*
X0148601D01*
X0148604D01*
X0148626Y0168693D01*
X0148663Y0168697D01*
X0148703Y0168708D01*
X0148754Y0168722D01*
X0148804Y0168748D01*
X0148855Y0168781D01*
X0148907Y0168824D01*
X0148914Y0168832D01*
X0148928Y016885D01*
X0148946Y0168875D01*
X0148972Y0168915D01*
X0148994Y0168966D01*
X0149016Y0169025D01*
X014903Y0169094D01*
X0149034Y016917D01*
Y0169192D01*
X014903Y0169207D01*
X0149027Y016925D01*
X0149016Y0169301D01*
X0149001Y0169356D01*
X0148976Y0169418D01*
X0148943Y0169476D01*
X0148899Y0169531D01*
X0148892Y0169538D01*
X0148874Y0169552D01*
X0148845Y0169574D01*
X0148801Y0169596D01*
X014875Y0169622D01*
X0148684Y0169643D01*
X0148612Y0169658D01*
X0148528Y0169665D01*
X0148561Y0169982D01*
X0148564D01*
X0148575Y0169978D01*
X0148593D01*
X0148619Y0169975D01*
X0148648Y0169967D01*
X0148681Y016996D01*
X0148721Y0169949D01*
X0148761Y0169938D01*
X0148848Y0169909D01*
X0148936Y0169865D01*
X0148979Y016984D01*
X0149023Y0169807D01*
X0149063Y0169774D01*
X0149099Y0169738D01*
X0149103Y0169734D01*
X0149107Y0169727D01*
X0149118Y0169716D01*
X0149128Y0169698D01*
X0149143Y0169676D01*
X0149158Y0169651D01*
X0149176Y0169622D01*
X0149194Y0169585D01*
X0149212Y0169545D01*
X014923Y0169501D01*
X0149245Y0169454D01*
X0149259Y0169403D01*
X014927Y0169349D01*
X0149281Y016929D01*
X0149285Y0169228D01*
X0149289Y0169163D01*
Y0169126D01*
X0149285Y0169101D01*
X0149281Y0169072D01*
X0149278Y0169035D01*
X014927Y0168995D01*
X0149263Y0168955D01*
X0149238Y0168861D01*
X0149201Y0168766D01*
X0149179Y0168719D01*
X0149154Y0168672D01*
X0149121Y0168628D01*
X0149085Y0168588D01*
X0149081Y0168584D01*
X0149077Y0168577D01*
X0149063Y016857D01*
X0149048Y0168555D01*
X014903Y0168537D01*
X0149005Y0168519D01*
X0148979Y01685D01*
X0148946Y0168479D01*
X0148877Y0168442D01*
X014879Y0168406D01*
X0148746Y0168391D01*
X0148695Y0168384D01*
X0148644Y0168377D01*
X014859Y0168373D01*
X0148582D01*
X0148564D01*
X0148535Y0168377D01*
X0148495Y016838D01*
X0148451Y0168388D01*
X01484Y0168402D01*
X0148346Y0168417D01*
X0148291Y0168439D01*
X0148284Y0168442D01*
X0148266Y0168449D01*
X0148237Y0168464D01*
X0148197Y0168486D01*
X0148153Y0168515D01*
X0148098Y0168551D01*
X0148044Y0168595D01*
X0147982Y0168646D01*
X0147975Y0168653D01*
X0147953Y0168672D01*
X0147935Y016869D01*
X0147916Y0168708D01*
X0147895Y016873D01*
X0147865Y0168759D01*
X0147836Y0168788D01*
X0147803Y0168824D01*
X0147767Y0168861D01*
X0147727Y0168904D01*
X0147687Y0168952D01*
X014764Y0169003D01*
X0147592Y0169061D01*
X0147541Y0169119D01*
X0147538Y0169123D01*
X014753Y016913D01*
X014752Y0169145D01*
X0147505Y0169163D01*
X0147483Y0169185D01*
X0147461Y016921D01*
X0147414Y0169269D01*
X014736Y016933D01*
X0147305Y0169389D01*
X0147257Y016944D01*
X0147239Y0169461D01*
X0147221Y016948D01*
X0147218Y0169483D01*
X0147207Y0169494D01*
X0147192Y0169509D01*
X014717Y0169527D01*
X0147145Y0169545D01*
X0147119Y0169567D01*
X0147057Y0169611D01*
Y0168369D01*
X0146759D01*
Y017004D01*
X0146763D01*
X0146777D01*
X0146799D01*
X0146828Y0170036D01*
D02*
G37*
G36*
X0210063Y0091512D02*
X0210059Y0091447D01*
X0210055Y0091374D01*
X0210048Y0091301D01*
X0210037Y0091228D01*
X0210026Y0091166D01*
Y0091163D01*
X0210022Y0091155D01*
Y0091145D01*
X0210015Y009113D01*
X0210004Y009109D01*
X0209986Y0091039D01*
X0209961Y0090981D01*
X0209928Y0090919D01*
X0209891Y0090857D01*
X0209844Y0090799D01*
X020984Y0090795D01*
X0209837Y0090791D01*
X0209826Y0090781D01*
X0209815Y0090766D01*
X0209779Y0090729D01*
X0209728Y0090686D01*
X0209666Y0090639D01*
X0209593Y0090588D01*
X0209509Y009054D01*
X0209415Y00905D01*
X0209411D01*
X0209404Y0090497D01*
X0209389Y0090489D01*
X0209367Y0090486D01*
X0209342Y0090475D01*
X0209313Y0090467D01*
X020928Y009046D01*
X020924Y0090449D01*
X02092Y0090438D01*
X0209153Y0090431D01*
X0209051Y0090413D01*
X0208938Y0090402D01*
X0208814Y0090398D01*
X020881D01*
X0208803D01*
X0208785D01*
X0208767D01*
X0208741Y0090402D01*
X0208712D01*
X0208643Y0090406D01*
X0208563Y0090417D01*
X0208479Y0090427D01*
X0208392Y0090446D01*
X0208304Y0090467D01*
X0208301D01*
X0208294Y0090471D01*
X0208283Y0090475D01*
X0208268Y0090478D01*
X0208228Y0090493D01*
X0208177Y0090515D01*
X0208119Y0090537D01*
X0208061Y0090566D01*
X0207999Y0090602D01*
X020794Y0090639D01*
X0207933Y0090642D01*
X0207915Y0090657D01*
X0207889Y0090679D01*
X0207857Y0090708D01*
X020782Y009074D01*
X0207784Y0090781D01*
X0207744Y009082D01*
X0207711Y0090868D01*
X0207707Y0090875D01*
X0207697Y009089D01*
X0207682Y0090915D01*
X0207664Y0090952D01*
X0207642Y0090995D01*
X0207624Y0091046D01*
X0207602Y0091104D01*
X0207584Y009117D01*
Y0091177D01*
X020758Y0091188D01*
X0207576Y0091199D01*
X0207573Y0091236D01*
X0207565Y0091286D01*
X0207558Y0091345D01*
X0207551Y0091414D01*
X0207547Y009149D01*
X0207544Y0091574D01*
Y009248D01*
X0210063D01*
Y0091512D01*
D02*
G37*
G36*
X020825Y0089754D02*
X0208246D01*
X0208239Y008975D01*
X0208224Y0089747D01*
X0208206Y0089743D01*
X0208184Y0089739D01*
X0208159Y0089732D01*
X0208104Y0089714D01*
X0208039Y0089688D01*
X0207977Y0089656D01*
X0207919Y0089619D01*
X0207868Y0089576D01*
X0207864Y0089568D01*
X0207849Y0089554D01*
X0207831Y0089525D01*
X0207813Y0089488D01*
X0207791Y0089445D01*
X0207773Y008939D01*
X0207758Y0089328D01*
X0207755Y0089263D01*
Y0089241D01*
X0207758Y0089226D01*
X0207762Y0089186D01*
X0207773Y0089135D01*
X0207791Y0089077D01*
X0207817Y0089015D01*
X0207853Y0088953D01*
X0207904Y0088895D01*
X0207911Y0088888D01*
X0207933Y008887D01*
X0207966Y0088848D01*
X020801Y0088819D01*
X0208064Y0088789D01*
X0208126Y0088768D01*
X0208199Y0088749D01*
X0208279Y0088742D01*
X0208283D01*
X020829D01*
X0208301D01*
X0208315Y0088746D01*
X0208355Y0088749D01*
X0208403Y008876D01*
X0208461Y0088775D01*
X0208519Y00888D01*
X0208577Y0088837D01*
X0208632Y0088884D01*
X0208639Y0088891D01*
X0208654Y008891D01*
X0208676Y0088939D01*
X0208701Y0088979D01*
X0208727Y008903D01*
X0208749Y0089091D01*
X0208763Y0089161D01*
X020877Y0089237D01*
Y008927D01*
X0208767Y0089295D01*
X0208763Y0089328D01*
X0208756Y0089364D01*
X0208749Y0089408D01*
X0208738Y0089455D01*
X0209011Y0089419D01*
Y0089401D01*
X0209007Y0089386D01*
Y0089339D01*
X0209014Y0089299D01*
X0209021Y0089252D01*
X0209032Y0089197D01*
X0209051Y0089135D01*
X0209076Y0089077D01*
X0209109Y0089015D01*
Y0089011D01*
X0209113Y0089008D01*
X0209127Y008899D01*
X0209153Y0088964D01*
X0209185Y0088935D01*
X0209233Y0088906D01*
X0209287Y008888D01*
X0209349Y0088862D01*
X0209385Y0088855D01*
X0209425D01*
X0209429D01*
X0209433D01*
X0209455D01*
X0209484Y0088862D01*
X0209524Y008887D01*
X0209567Y0088884D01*
X0209615Y0088902D01*
X0209662Y0088931D01*
X0209706Y0088971D01*
X0209709Y0088975D01*
X0209724Y0088993D01*
X0209742Y0089019D01*
X0209764Y0089052D01*
X0209782Y0089095D01*
X02098Y0089146D01*
X0209815Y0089204D01*
X0209819Y008927D01*
Y0089299D01*
X0209811Y0089332D01*
X0209804Y0089375D01*
X0209789Y0089423D01*
X0209771Y008947D01*
X0209742Y0089521D01*
X0209706Y0089568D01*
X0209702Y0089572D01*
X0209684Y0089587D01*
X0209659Y0089608D01*
X0209622Y0089634D01*
X0209575Y0089659D01*
X0209517Y0089685D01*
X0209447Y0089707D01*
X0209367Y0089721D01*
X0209422Y0090031D01*
X0209425D01*
X0209436Y0090027D01*
X0209451Y0090023D01*
X0209473Y009002D01*
X0209498Y0090012D01*
X0209527Y0090001D01*
X0209597Y008998D01*
X0209677Y0089943D01*
X0209757Y00899D01*
X0209833Y0089845D01*
X0209902Y0089776D01*
X0209906Y0089772D01*
X020991Y0089765D01*
X0209917Y0089754D01*
X0209928Y0089739D01*
X0209942Y0089721D01*
X0209957Y0089696D01*
X0209971Y008967D01*
X020999Y0089638D01*
X0210019Y0089565D01*
X0210048Y0089481D01*
X0210066Y0089383D01*
X0210073Y0089332D01*
Y0089241D01*
X021007Y0089201D01*
X0210063Y0089153D01*
X0210052Y0089095D01*
X0210033Y008903D01*
X0210012Y0088964D01*
X0209982Y0088899D01*
Y0088895D01*
X0209979Y0088891D01*
X0209968Y008887D01*
X0209946Y0088837D01*
X0209921Y00888D01*
X0209884Y0088757D01*
X0209844Y0088713D01*
X0209797Y0088669D01*
X0209742Y0088633D01*
X0209735Y0088629D01*
X0209717Y0088618D01*
X0209684Y0088604D01*
X0209644Y0088586D01*
X0209597Y0088567D01*
X0209542Y0088553D01*
X020948Y0088542D01*
X0209418Y0088538D01*
X0209411D01*
X0209389D01*
X020936Y0088542D01*
X020932Y0088549D01*
X0209273Y008856D01*
X0209222Y0088578D01*
X0209171Y00886D01*
X020912Y0088629D01*
X0209113Y0088633D01*
X0209098Y0088644D01*
X0209072Y0088666D01*
X0209043Y0088695D01*
X0209011Y0088731D01*
X0208974Y0088775D01*
X0208941Y0088826D01*
X0208909Y0088888D01*
Y0088884D01*
X0208905Y0088877D01*
X0208901Y0088866D01*
X0208898Y0088851D01*
X0208883Y0088811D01*
X0208861Y008876D01*
X0208832Y0088702D01*
X0208796Y0088644D01*
X0208749Y0088589D01*
X0208694Y0088538D01*
X0208687Y0088535D01*
X0208665Y008852D01*
X0208628Y0088498D01*
X0208581Y0088476D01*
X0208523Y0088455D01*
X0208454Y0088433D01*
X0208374Y0088418D01*
X0208286Y0088415D01*
X0208283D01*
X0208272D01*
X0208253D01*
X0208232Y0088418D01*
X0208203Y0088422D01*
X020817Y0088429D01*
X0208133Y0088436D01*
X0208093Y0088444D01*
X0208006Y0088473D01*
X0207959Y0088495D01*
X0207915Y0088516D01*
X0207868Y0088546D01*
X020782Y0088578D01*
X0207773Y0088615D01*
X0207729Y0088658D01*
X0207726Y0088662D01*
X0207718Y0088669D01*
X0207707Y0088684D01*
X0207693Y0088702D01*
X0207675Y0088724D01*
X0207657Y0088753D01*
X0207635Y0088786D01*
X0207616Y0088826D01*
X0207595Y0088866D01*
X0207573Y0088913D01*
X0207555Y008896D01*
X0207536Y0089015D01*
X0207522Y0089073D01*
X0207511Y0089135D01*
X0207504Y0089197D01*
X02075Y0089266D01*
Y0089299D01*
X0207504Y0089321D01*
X0207507Y008935D01*
X0207511Y0089383D01*
X0207518Y0089419D01*
X0207525Y0089459D01*
X0207547Y0089547D01*
X0207584Y0089638D01*
X0207606Y0089685D01*
X0207631Y0089728D01*
X0207664Y0089772D01*
X0207697Y0089816D01*
X02077Y008982D01*
X0207707Y0089827D01*
X0207718Y0089838D01*
X0207733Y0089849D01*
X0207751Y0089867D01*
X0207777Y0089885D01*
X0207802Y0089907D01*
X0207835Y0089929D01*
X0207871Y0089951D01*
X0207908Y0089972D01*
X0207995Y0090012D01*
X0208097Y0090045D01*
X0208152Y0090056D01*
X020821Y0090063D01*
X020825Y0089754D01*
D02*
G37*
%LPC*%
G36*
X027122Y0157165D02*
X0269298D01*
Y0156568D01*
X0269302Y0156543D01*
X0269306Y0156488D01*
X0269309Y0156426D01*
X0269317Y0156361D01*
X0269328Y0156295D01*
X0269342Y0156241D01*
X0269346Y0156233D01*
X0269349Y0156215D01*
X026936Y015619D01*
X0269375Y0156157D01*
X0269397Y0156121D01*
X0269419Y0156084D01*
X0269444Y0156048D01*
X0269473Y0156011D01*
X026948Y0156008D01*
X0269495Y0155993D01*
X026952Y0155971D01*
X0269557Y0155946D01*
X0269604Y0155917D01*
X0269659Y0155884D01*
X0269721Y0155855D01*
X026979Y0155829D01*
X0269794D01*
X0269801Y0155826D01*
X0269812Y0155822D01*
X0269826Y0155818D01*
X0269844Y0155815D01*
X026987Y0155807D01*
X0269895Y01558D01*
X0269924Y0155793D01*
X0269997Y0155782D01*
X0270081Y0155771D01*
X0270176Y0155764D01*
X0270278Y015576D01*
X0270281D01*
X0270296D01*
X0270314D01*
X0270343Y0155764D01*
X0270376D01*
X0270412Y0155767D01*
X0270456Y0155771D01*
X02705Y0155775D01*
X0270598Y0155793D01*
X02707Y0155815D01*
X0270795Y0155848D01*
X0270842Y0155869D01*
X0270882Y0155891D01*
X0270885D01*
X0270893Y0155898D01*
X0270904Y0155906D01*
X0270918Y0155913D01*
X0270955Y0155942D01*
X0270998Y0155979D01*
X0271046Y0156026D01*
X0271093Y015608D01*
X0271133Y0156142D01*
X0271166Y0156208D01*
X0271169Y0156215D01*
X0271173Y0156233D01*
X0271184Y0156266D01*
X0271195Y0156313D01*
X0271202Y0156372D01*
X0271213Y0156444D01*
X0271217Y0156488D01*
Y0156535D01*
X027122Y0156583D01*
Y0157165D01*
D02*
G37*
G36*
X0200722Y020422D02*
X0200719D01*
X0200704D01*
X0200686D01*
X0200657Y0204217D01*
X0200624D01*
X0200588Y0204213D01*
X0200544Y0204209D01*
X02005Y0204206D01*
X0200402Y0204187D01*
X02003Y0204166D01*
X0200205Y0204133D01*
X0200158Y0204111D01*
X0200118Y0204089D01*
X0200114D01*
X0200107Y0204082D01*
X0200096Y0204075D01*
X0200082Y0204067D01*
X0200045Y0204038D01*
X0200002Y0204002D01*
X0199954Y0203954D01*
X0199907Y02039D01*
X0199867Y0203838D01*
X0199834Y0203772D01*
X0199831Y0203765D01*
X0199827Y0203747D01*
X0199816Y0203714D01*
X0199805Y0203667D01*
X0199798Y0203609D01*
X0199787Y0203536D01*
X0199783Y0203492D01*
Y0203445D01*
X019978Y0203397D01*
Y0202815D01*
X0201702D01*
Y0203412D01*
X0201698Y0203438D01*
X0201694Y0203492D01*
X0201691Y0203554D01*
X0201683Y020362D01*
X0201672Y0203685D01*
X0201658Y020374D01*
X0201654Y0203747D01*
X0201651Y0203765D01*
X020164Y0203791D01*
X0201625Y0203823D01*
X0201603Y020386D01*
X0201581Y0203896D01*
X0201556Y0203933D01*
X0201527Y0203969D01*
X020152Y0203973D01*
X0201505Y0203987D01*
X020148Y0204009D01*
X0201443Y0204034D01*
X0201396Y0204064D01*
X0201341Y0204096D01*
X0201279Y0204125D01*
X020121Y0204151D01*
X0201206D01*
X0201199Y0204155D01*
X0201188Y0204158D01*
X0201174Y0204162D01*
X0201156Y0204166D01*
X020113Y0204173D01*
X0201105Y020418D01*
X0201076Y0204187D01*
X0201003Y0204198D01*
X0200919Y0204209D01*
X0200824Y0204217D01*
X0200722Y020422D01*
D02*
G37*
G36*
X0149497Y0260071D02*
X0148664D01*
Y0259321D01*
X0148668Y0259278D01*
X0148671Y0259227D01*
X0148675Y0259169D01*
X0148682Y025911D01*
X0148693Y0259052D01*
X0148708Y0259001D01*
X0148711Y0258994D01*
X0148719Y0258979D01*
X0148729Y0258957D01*
X0148744Y0258928D01*
X0148766Y0258896D01*
X0148791Y0258863D01*
X0148824Y025883D01*
X0148861Y0258805D01*
X0148864Y0258801D01*
X0148879Y0258794D01*
X01489Y0258783D01*
X014893Y0258768D01*
X0148962Y0258757D01*
X0148999Y0258746D01*
X0149042Y0258739D01*
X0149086Y0258735D01*
X014909D01*
X0149093D01*
X0149115Y0258739D01*
X0149148Y0258743D01*
X0149192Y025875D01*
X0149235Y0258768D01*
X0149286Y025879D01*
X0149334Y0258823D01*
X0149381Y0258866D01*
X0149385Y0258874D01*
X0149399Y0258892D01*
X0149417Y0258921D01*
X0149439Y0258968D01*
X0149461Y0259023D01*
X0149479Y0259096D01*
X0149494Y0259179D01*
X0149497Y0259278D01*
Y0260071D01*
D02*
G37*
G36*
X0149041Y0080071D02*
X0148208D01*
Y0079321D01*
X0148211Y0079278D01*
X0148215Y0079227D01*
X0148219Y0079169D01*
X0148226Y007911D01*
X0148237Y0079052D01*
X0148251Y0079001D01*
X0148255Y0078994D01*
X0148262Y0078979D01*
X0148273Y0078957D01*
X0148288Y0078928D01*
X014831Y0078896D01*
X0148335Y0078863D01*
X0148368Y007883D01*
X0148404Y0078805D01*
X0148408Y0078801D01*
X0148422Y0078794D01*
X0148444Y0078783D01*
X0148473Y0078768D01*
X0148506Y0078757D01*
X0148542Y0078746D01*
X0148586Y0078739D01*
X014863Y0078735D01*
X0148634D01*
X0148637D01*
X0148659Y0078739D01*
X0148692Y0078743D01*
X0148735Y007875D01*
X0148779Y0078768D01*
X014883Y007879D01*
X0148877Y0078823D01*
X0148925Y0078866D01*
X0148928Y0078874D01*
X0148943Y0078892D01*
X0148961Y0078921D01*
X0148983Y0078968D01*
X0149005Y0079023D01*
X0149023Y0079096D01*
X0149038Y007918D01*
X0149041Y0079278D01*
Y0080071D01*
D02*
G37*
G36*
X0148997Y0172071D02*
X0148164D01*
Y0171321D01*
X0148168Y0171278D01*
X0148171Y0171227D01*
X0148175Y0171169D01*
X0148182Y017111D01*
X0148193Y0171052D01*
X0148208Y0171001D01*
X0148211Y0170994D01*
X0148219Y0170979D01*
X0148229Y0170957D01*
X0148244Y0170928D01*
X0148266Y0170896D01*
X0148291Y0170863D01*
X0148324Y017083D01*
X0148361Y0170805D01*
X0148364Y0170801D01*
X0148379Y0170794D01*
X01484Y0170783D01*
X014843Y0170768D01*
X0148462Y0170757D01*
X0148499Y0170746D01*
X0148542Y0170739D01*
X0148586Y0170735D01*
X014859D01*
X0148593D01*
X0148615Y0170739D01*
X0148648Y0170743D01*
X0148692Y017075D01*
X0148735Y0170768D01*
X0148786Y017079D01*
X0148834Y0170823D01*
X0148881Y0170866D01*
X0148885Y0170874D01*
X0148899Y0170892D01*
X0148917Y0170921D01*
X0148939Y0170968D01*
X0148961Y0171023D01*
X0148979Y0171096D01*
X0148994Y0171179D01*
X0148997Y0171278D01*
Y0172071D01*
D02*
G37*
G36*
X0209764Y0092146D02*
X0207842D01*
Y0091549D01*
X0207846Y0091523D01*
X0207849Y0091468D01*
X0207853Y0091407D01*
X020786Y0091341D01*
X0207871Y0091276D01*
X0207886Y0091221D01*
X0207889Y0091214D01*
X0207893Y0091195D01*
X0207904Y009117D01*
X0207919Y0091137D01*
X020794Y0091101D01*
X0207962Y0091064D01*
X0207988Y0091028D01*
X0208017Y0090992D01*
X0208024Y0090988D01*
X0208039Y0090973D01*
X0208064Y0090952D01*
X0208101Y0090926D01*
X0208148Y0090897D01*
X0208203Y0090864D01*
X0208264Y0090835D01*
X0208333Y009081D01*
X0208337D01*
X0208344Y0090806D01*
X0208355Y0090802D01*
X020837Y0090799D01*
X0208388Y0090795D01*
X0208414Y0090788D01*
X0208439Y0090781D01*
X0208468Y0090773D01*
X0208541Y0090762D01*
X0208625Y0090751D01*
X0208719Y0090744D01*
X0208821Y009074D01*
X0208825D01*
X020884D01*
X0208858D01*
X0208887Y0090744D01*
X020892D01*
X0208956Y0090748D01*
X0209Y0090751D01*
X0209043Y0090755D01*
X0209142Y0090773D01*
X0209243Y0090795D01*
X0209338Y0090828D01*
X0209385Y009085D01*
X0209425Y0090872D01*
X0209429D01*
X0209436Y0090879D01*
X0209447Y0090886D01*
X0209462Y0090893D01*
X0209498Y0090922D01*
X0209542Y0090959D01*
X0209589Y0091006D01*
X0209637Y0091061D01*
X0209677Y0091123D01*
X0209709Y0091188D01*
X0209713Y0091195D01*
X0209717Y0091214D01*
X0209728Y0091246D01*
X0209739Y0091294D01*
X0209746Y0091352D01*
X0209757Y0091425D01*
X020976Y0091468D01*
Y0091516D01*
X0209764Y0091563D01*
Y0092146D01*
D02*
G37*
%LPD*%
D11*
X0263094Y0178425D02*
X0274905D01*
X0263094Y0136575D02*
Y0178425D01*
Y0136575D02*
X0274905D01*
Y0178425D01*
X0196095Y0181555D02*
X0207906D01*
Y0223406D01*
X0196095D02*
X0207906D01*
X0196095Y0181555D02*
Y0223406D01*
X0167646Y0252862D02*
Y0273177D01*
X0128354Y0252862D02*
X0167646D01*
X0128354D02*
Y0273177D01*
X0167646D01*
X0127854Y0093177D02*
X0167146D01*
X0127854Y0072862D02*
Y0093177D01*
Y0072862D02*
X0167146D01*
Y0093177D01*
X0127854Y0185177D02*
X0167146D01*
X0127854Y0164862D02*
Y0185177D01*
Y0164862D02*
X0167146D01*
Y0185177D01*
X0213405Y0071555D02*
Y0113406D01*
X0201594Y0071555D02*
X0213405D01*
X0201594D02*
Y0113406D01*
X0213405D01*
M02*
